<svg width="253" height="279" viewBox="0 0 253 279" fill="none" xmlns="http://www.w3.org/2000/svg">
<path fill-rule="evenodd" clip-rule="evenodd" d="M45.3447 17.6133C45.3447 12.0904 49.8218 7.61328 55.3447 7.61328H230.454C235.977 7.61328 240.454 12.0904 240.454 17.6133V77.6133C240.454 83.1361 235.977 87.6133 230.454 87.6133H55.3447C49.8218 87.6133 45.3447 83.1361 45.3447 77.6133V17.6133Z" fill="url(#paint0_linear_0_322)"/>
<path fill-rule="evenodd" clip-rule="evenodd" d="M45.3447 19.6133C45.3447 14.0904 49.8218 9.61328 55.3447 9.61328H230.454C235.977 9.61328 240.454 14.0904 240.454 19.6133V214.486C240.454 220.009 235.977 224.486 230.454 224.486H55.3447C49.8218 224.486 45.3447 220.009 45.3447 214.486V19.6133Z" fill="url(#paint1_linear_0_322)"/>
<g filter="url(#filter0_f_0_322)">
<path fill-rule="evenodd" clip-rule="evenodd" d="M67.6834 28.4898L76.8246 27.9296H208.7L215.006 29.1582L217.433 31.3675L218.562 60.0918C218.562 60.0918 214.787 61.7488 213.385 61.9474C211.984 62.1461 203.292 63.9368 203.292 63.9368H78.0539C78.0539 63.9368 68.7776 63.212 66.6458 62.5884C64.514 61.9649 63.382 59.3599 63.382 59.3599V31.3675L67.6834 28.4898Z" fill="url(#paint2_linear_0_322)"/>
</g>
<path fill-rule="evenodd" clip-rule="evenodd" d="M63.0054 31.274C63.0054 28.5126 65.244 26.274 68.0054 26.274H216.952C219.714 26.274 221.952 28.5126 221.952 31.274V51.487C221.952 54.2485 219.714 56.487 216.952 56.487H68.0054C65.244 56.487 63.0054 54.2485 63.0054 51.487V31.274Z" fill="white"/>
<path fill-rule="evenodd" clip-rule="evenodd" d="M63.0054 32.274C63.0054 29.5126 65.244 27.274 68.0054 27.274H216.952C219.714 27.274 221.952 29.5126 221.952 32.274V52.487C221.952 55.2485 219.714 57.487 216.952 57.487H68.0054C65.244 57.487 63.0054 55.2485 63.0054 52.487V32.274Z" fill="url(#paint3_linear_0_322)"/>
<path fill-rule="evenodd" clip-rule="evenodd" d="M75.6202 37.684C75.6202 36.5794 76.5157 35.684 77.6202 35.684H86.3402C87.4448 35.684 88.3402 36.5794 88.3402 37.684V47.1398C88.3402 48.2443 87.4448 49.1398 86.3402 49.1398H77.6202C76.5157 49.1398 75.6202 48.2443 75.6202 47.1398V37.684Z" fill="url(#paint4_linear_0_322)"/>
<path fill-rule="evenodd" clip-rule="evenodd" d="M90.175 35.6371C91.1039 35.6371 91.857 34.8841 91.857 33.9552C91.857 33.0262 91.1039 32.2732 90.175 32.2732C89.2461 32.2732 88.493 33.0262 88.493 33.9552C88.493 34.8841 89.2461 35.6371 90.175 35.6371Z" fill="url(#paint5_linear_0_322)"/>
<path fill-rule="evenodd" clip-rule="evenodd" d="M196.882 40.0166C196.882 39.4643 197.33 39.0166 197.882 39.0166H202.61C203.163 39.0166 203.61 39.4643 203.61 40.0166V44.7445C203.61 45.2968 203.163 45.7445 202.61 45.7445H197.882C197.33 45.7445 196.882 45.2968 196.882 44.7445V40.0166Z" fill="url(#paint6_linear_0_322)"/>
<path fill-rule="evenodd" clip-rule="evenodd" d="M105.726 35.6025C105.726 35.0502 106.173 34.6025 106.726 34.6025H136.363C136.915 34.6025 137.363 35.0502 137.363 35.6025V35.6719C137.363 36.2241 136.915 36.6719 136.363 36.6719H106.726C106.173 36.6719 105.726 36.2241 105.726 35.6719V35.6025Z" fill="#C8D7E9"/>
<path fill-rule="evenodd" clip-rule="evenodd" d="M139.246 35.6025C139.246 35.0502 139.694 34.6025 140.246 34.6025H140.769C141.322 34.6025 141.769 35.0502 141.769 35.6025V36.1254C141.769 36.6777 141.322 37.1254 140.769 37.1254H140.246C139.694 37.1254 139.246 36.6777 139.246 36.1254V35.6025Z" fill="#C8D7E9"/>
<path opacity="0.615319" fill-rule="evenodd" clip-rule="evenodd" d="M105.726 42.3938C105.726 42.051 106.004 41.773 106.346 41.773H175.536C175.879 41.773 176.157 42.051 176.157 42.3938C176.157 42.7367 175.879 43.0146 175.536 43.0146H106.346C106.003 43.0146 105.726 42.7367 105.726 42.3938Z" fill="#C8D7E9"/>
<path opacity="0.615319" fill-rule="evenodd" clip-rule="evenodd" d="M105.726 44.877C105.726 44.5342 106.004 44.2562 106.346 44.2562H175.536C175.879 44.2562 176.157 44.5342 176.157 44.877C176.157 45.2199 175.879 45.4979 175.536 45.4979H106.346C106.003 45.4979 105.726 45.2199 105.726 44.877Z" fill="#C8D7E9"/>
<path opacity="0.615319" fill-rule="evenodd" clip-rule="evenodd" d="M105.726 47.3603C105.726 47.0175 106.004 46.7395 106.346 46.7395H157.834C158.177 46.7395 158.455 47.0175 158.455 47.3603C158.455 47.7032 158.177 47.9811 157.834 47.9811H106.346C106.004 47.9811 105.726 47.7032 105.726 47.3603Z" fill="#C8D7E9"/>
<path opacity="0.615319" fill-rule="evenodd" clip-rule="evenodd" d="M105.726 49.8436C105.726 49.5007 106.004 49.2228 106.346 49.2228H144.652C144.995 49.2228 145.273 49.5007 145.273 49.8436C145.273 50.1865 144.995 50.4644 144.652 50.4644H106.346C106.004 50.4644 105.726 50.1865 105.726 49.8436Z" fill="#C8D7E9"/>
<g filter="url(#filter1_f_0_322)">
<path fill-rule="evenodd" clip-rule="evenodd" d="M67.6834 80.6311L76.8246 80.0708H208.7L215.006 81.2994L217.433 83.5087L218.562 112.233C218.562 112.233 214.787 113.89 213.385 114.089C211.984 114.287 203.292 116.078 203.292 116.078H78.0539C78.0539 116.078 68.7776 115.353 66.6458 114.73C64.514 114.106 63.382 111.501 63.382 111.501V83.5087L67.6834 80.6311Z" fill="url(#paint7_linear_0_322)"/>
</g>
<path fill-rule="evenodd" clip-rule="evenodd" d="M63.0054 83.4153C63.0054 80.6539 65.244 78.4153 68.0054 78.4153H216.952C219.714 78.4153 221.952 80.6539 221.952 83.4153V103.628C221.952 106.39 219.714 108.628 216.952 108.628H68.0054C65.244 108.628 63.0054 106.39 63.0054 103.628V83.4153Z" fill="white"/>
<path fill-rule="evenodd" clip-rule="evenodd" d="M63.0054 84.4153C63.0054 81.6539 65.244 79.4153 68.0054 79.4153H216.952C219.714 79.4153 221.952 81.6539 221.952 84.4153V104.628C221.952 107.39 219.714 109.628 216.952 109.628H68.0054C65.244 109.628 63.0054 107.39 63.0054 104.628V84.4153Z" fill="url(#paint8_linear_0_322)"/>
<path fill-rule="evenodd" clip-rule="evenodd" d="M75.6202 89.8252C75.6202 88.7206 76.5157 87.8252 77.6202 87.8252H86.3402C87.4448 87.8252 88.3402 88.7206 88.3402 89.8252V99.281C88.3402 100.386 87.4448 101.281 86.3402 101.281H77.6202C76.5157 101.281 75.6202 100.386 75.6202 99.281V89.8252Z" fill="url(#paint9_linear_0_322)"/>
<path fill-rule="evenodd" clip-rule="evenodd" d="M90.175 87.7784C91.1039 87.7784 91.857 87.0253 91.857 86.0964C91.857 85.1675 91.1039 84.4144 90.175 84.4144C89.2461 84.4144 88.493 85.1675 88.493 86.0964C88.493 87.0253 89.2461 87.7784 90.175 87.7784Z" fill="url(#paint10_linear_0_322)"/>
<path fill-rule="evenodd" clip-rule="evenodd" d="M196.882 92.1578C196.882 91.6056 197.33 91.1578 197.882 91.1578H202.61C203.163 91.1578 203.61 91.6056 203.61 92.1578V96.8857C203.61 97.438 203.163 97.8857 202.61 97.8857H197.882C197.33 97.8857 196.882 97.438 196.882 96.8857V92.1578Z" fill="url(#paint11_linear_0_322)"/>
<path fill-rule="evenodd" clip-rule="evenodd" d="M105.726 87.7437C105.726 87.1914 106.173 86.7437 106.726 86.7437H136.363C136.915 86.7437 137.363 87.1914 137.363 87.7437V87.8131C137.363 88.3654 136.915 88.8131 136.363 88.8131H106.726C106.173 88.8131 105.726 88.3654 105.726 87.8131V87.7437Z" fill="#C8D7E9"/>
<path fill-rule="evenodd" clip-rule="evenodd" d="M139.246 87.7437C139.246 87.1914 139.694 86.7437 140.246 86.7437H140.769C141.322 86.7437 141.769 87.1914 141.769 87.7437V88.2667C141.769 88.819 141.322 89.2667 140.769 89.2667H140.246C139.694 89.2667 139.246 88.819 139.246 88.2667V87.7437Z" fill="#C8D7E9"/>
<path opacity="0.615319" fill-rule="evenodd" clip-rule="evenodd" d="M105.726 94.5351C105.726 94.1922 106.004 93.9142 106.346 93.9142H175.536C175.879 93.9142 176.157 94.1922 176.157 94.5351C176.157 94.8779 175.879 95.1559 175.536 95.1559H106.346C106.003 95.1559 105.726 94.8779 105.726 94.5351Z" fill="#C8D7E9"/>
<path opacity="0.615319" fill-rule="evenodd" clip-rule="evenodd" d="M105.726 97.0183C105.726 96.6754 106.004 96.3975 106.346 96.3975H175.536C175.879 96.3975 176.157 96.6754 176.157 97.0183C176.157 97.3611 175.879 97.6391 175.536 97.6391H106.346C106.003 97.6391 105.726 97.3611 105.726 97.0183Z" fill="#C8D7E9"/>
<path opacity="0.615319" fill-rule="evenodd" clip-rule="evenodd" d="M105.726 99.5016C105.726 99.1587 106.004 98.8807 106.346 98.8807H157.834C158.177 98.8807 158.455 99.1587 158.455 99.5016C158.455 99.8444 158.177 100.122 157.834 100.122H106.346C106.004 100.122 105.726 99.8444 105.726 99.5016Z" fill="#C8D7E9"/>
<path opacity="0.615319" fill-rule="evenodd" clip-rule="evenodd" d="M105.726 101.985C105.726 101.642 106.004 101.364 106.346 101.364H144.652C144.995 101.364 145.273 101.642 145.273 101.985C145.273 102.328 144.995 102.606 144.652 102.606H106.346C106.004 102.606 105.726 102.328 105.726 101.985Z" fill="#C8D7E9"/>
<g filter="url(#filter2_f_0_322)">
<path fill-rule="evenodd" clip-rule="evenodd" d="M67.6834 132.772L76.8246 132.212H208.7L215.006 133.441L217.433 135.65L218.562 164.374C218.562 164.374 214.787 166.031 213.385 166.23C211.984 166.429 203.292 168.219 203.292 168.219H78.0539C78.0539 168.219 68.7776 167.494 66.6458 166.871C64.514 166.247 63.382 163.642 63.382 163.642V135.65L67.6834 132.772Z" fill="url(#paint12_linear_0_322)"/>
</g>
<path fill-rule="evenodd" clip-rule="evenodd" d="M63.0054 135.557C63.0054 132.795 65.244 130.557 68.0054 130.557H216.952C219.714 130.557 221.952 132.795 221.952 135.557V155.77C221.952 158.531 219.714 160.77 216.952 160.77H68.0054C65.244 160.77 63.0054 158.531 63.0054 155.77V135.557Z" fill="white"/>
<path fill-rule="evenodd" clip-rule="evenodd" d="M63.0054 136.557C63.0054 133.795 65.244 131.557 68.0054 131.557H216.952C219.714 131.557 221.952 133.795 221.952 136.557V156.77C221.952 159.531 219.714 161.77 216.952 161.77H68.0054C65.244 161.77 63.0054 159.531 63.0054 156.77V136.557Z" fill="url(#paint13_linear_0_322)"/>
<path fill-rule="evenodd" clip-rule="evenodd" d="M75.6202 141.966C75.6202 140.862 76.5157 139.966 77.6202 139.966H86.3402C87.4448 139.966 88.3402 140.862 88.3402 141.966V151.422C88.3402 152.527 87.4448 153.422 86.3402 153.422H77.6202C76.5157 153.422 75.6202 152.527 75.6202 151.422V141.966Z" fill="url(#paint14_linear_0_322)"/>
<path fill-rule="evenodd" clip-rule="evenodd" d="M90.175 139.92C91.1039 139.92 91.857 139.167 91.857 138.238C91.857 137.309 91.1039 136.556 90.175 136.556C89.2461 136.556 88.493 137.309 88.493 138.238C88.493 139.167 89.2461 139.92 90.175 139.92Z" fill="url(#paint15_linear_0_322)"/>
<path fill-rule="evenodd" clip-rule="evenodd" d="M196.882 144.299C196.882 143.747 197.33 143.299 197.882 143.299H202.61C203.163 143.299 203.61 143.747 203.61 144.299V149.027C203.61 149.579 203.163 150.027 202.61 150.027H197.882C197.33 150.027 196.882 149.579 196.882 149.027V144.299Z" fill="url(#paint16_linear_0_322)"/>
<path fill-rule="evenodd" clip-rule="evenodd" d="M105.726 139.885C105.726 139.333 106.173 138.885 106.726 138.885H136.363C136.915 138.885 137.363 139.333 137.363 139.885V139.954C137.363 140.507 136.915 140.954 136.363 140.954H106.726C106.173 140.954 105.726 140.507 105.726 139.954V139.885Z" fill="#C8D7E9"/>
<path fill-rule="evenodd" clip-rule="evenodd" d="M139.246 139.885C139.246 139.333 139.694 138.885 140.246 138.885H140.769C141.322 138.885 141.769 139.333 141.769 139.885V140.408C141.769 140.96 141.322 141.408 140.769 141.408H140.246C139.694 141.408 139.246 140.96 139.246 140.408V139.885Z" fill="#C8D7E9"/>
<path opacity="0.615319" fill-rule="evenodd" clip-rule="evenodd" d="M105.726 146.676C105.726 146.333 106.004 146.055 106.346 146.055H175.536C175.879 146.055 176.157 146.333 176.157 146.676C176.157 147.019 175.879 147.297 175.536 147.297H106.346C106.003 147.297 105.726 147.019 105.726 146.676Z" fill="#C8D7E9"/>
<path opacity="0.615319" fill-rule="evenodd" clip-rule="evenodd" d="M105.726 149.16C105.726 148.817 106.004 148.539 106.346 148.539H175.536C175.879 148.539 176.157 148.817 176.157 149.16C176.157 149.502 175.879 149.78 175.536 149.78H106.346C106.003 149.78 105.726 149.502 105.726 149.16Z" fill="#C8D7E9"/>
<path opacity="0.615319" fill-rule="evenodd" clip-rule="evenodd" d="M105.726 151.643C105.726 151.3 106.004 151.022 106.346 151.022H157.834C158.177 151.022 158.455 151.3 158.455 151.643C158.455 151.986 158.177 152.264 157.834 152.264H106.346C106.004 152.264 105.726 151.986 105.726 151.643Z" fill="#C8D7E9"/>
<path opacity="0.615319" fill-rule="evenodd" clip-rule="evenodd" d="M105.726 154.126C105.726 153.783 106.004 153.505 106.346 153.505H144.652C144.995 153.505 145.273 153.783 145.273 154.126C145.273 154.469 144.995 154.747 144.652 154.747H106.346C106.004 154.747 105.726 154.469 105.726 154.126Z" fill="#C8D7E9"/>
<g opacity="0.522135" filter="url(#filter3_f_0_322)">
<path fill-rule="evenodd" clip-rule="evenodd" d="M119.596 206.332L121.901 205.624H161.526L163.117 207.177L163.729 209.969L164.014 246.268C164.014 246.268 163.061 248.362 162.708 248.613C162.354 248.865 160.162 251.127 160.162 251.127H122.211C122.211 251.127 119.871 250.211 119.334 249.423C118.796 248.635 118.511 245.344 118.511 245.344V209.969L119.596 206.332Z" fill="url(#paint17_linear_0_322)"/>
</g>
<g filter="url(#filter4_f_0_322)">
<path fill-rule="evenodd" clip-rule="evenodd" d="M142.479 251.818C157.574 251.818 169.811 239.581 169.811 224.486C169.811 209.391 157.574 197.154 142.479 197.154C127.384 197.154 115.147 209.391 115.147 224.486C115.147 239.581 127.384 251.818 142.479 251.818Z" fill="url(#paint18_linear_0_322)"/>
</g>
<path opacity="0.309726" fill-rule="evenodd" clip-rule="evenodd" d="M142.479 251.818C157.574 251.818 169.811 239.581 169.811 224.486C169.811 209.391 157.574 197.154 142.479 197.154C127.384 197.154 115.147 209.391 115.147 224.486C115.147 239.581 127.384 251.818 142.479 251.818Z" fill="white"/>
<path fill-rule="evenodd" clip-rule="evenodd" d="M142.479 247.237C155.044 247.237 165.23 237.051 165.23 224.486C165.23 211.92 155.044 201.734 142.479 201.734C129.913 201.734 119.727 211.92 119.727 224.486C119.727 237.051 129.913 247.237 142.479 247.237Z" fill="white"/>
<g opacity="0.6">
<path opacity="0.2" fill-rule="evenodd" clip-rule="evenodd" d="M110.07 224.485C110.981 224.485 111.72 223.72 111.72 222.777C111.72 221.834 110.981 221.069 110.07 221.069C109.158 221.069 108.419 221.834 108.419 222.777C108.419 223.72 109.158 224.485 110.07 224.485Z" fill="white"/>
<path fill-rule="evenodd" clip-rule="evenodd" d="M110.07 223.916C110.677 223.916 111.17 223.406 111.17 222.777C111.17 222.148 110.677 221.639 110.07 221.639C109.462 221.639 108.969 222.148 108.969 222.777C108.969 223.406 109.462 223.916 110.07 223.916Z" fill="white"/>
</g>
<g opacity="0.9">
<path opacity="0.2" fill-rule="evenodd" clip-rule="evenodd" d="M128.151 255.26C129.063 255.26 129.802 254.495 129.802 253.552C129.802 252.609 129.063 251.844 128.151 251.844C127.239 251.844 126.5 252.609 126.5 253.552C126.5 254.495 127.239 255.26 128.151 255.26Z" fill="white"/>
<path fill-rule="evenodd" clip-rule="evenodd" d="M128.151 254.691C128.759 254.691 129.251 254.181 129.251 253.552C129.251 252.923 128.759 252.413 128.151 252.413C127.543 252.413 127.05 252.923 127.05 253.552C127.05 254.181 127.543 254.691 128.151 254.691Z" fill="white"/>
</g>
<g opacity="0.5">
<path opacity="0.2" fill-rule="evenodd" clip-rule="evenodd" d="M113.26 212.159C114.172 212.159 114.911 211.395 114.911 210.451C114.911 209.508 114.172 208.743 113.26 208.743C112.349 208.743 111.61 209.508 111.61 210.451C111.61 211.395 112.349 212.159 113.26 212.159Z" fill="white"/>
<path fill-rule="evenodd" clip-rule="evenodd" d="M113.26 211.59C113.868 211.59 114.361 211.08 114.361 210.451C114.361 209.823 113.868 209.313 113.26 209.313C112.653 209.313 112.16 209.823 112.16 210.451C112.16 211.08 112.653 211.59 113.26 211.59Z" fill="white"/>
</g>
<g opacity="0.8">
<path opacity="0.2" fill-rule="evenodd" clip-rule="evenodd" d="M117.515 247.717C118.426 247.717 119.166 246.953 119.166 246.009C119.166 245.066 118.426 244.302 117.515 244.302C116.603 244.302 115.864 245.066 115.864 246.009C115.864 246.953 116.603 247.717 117.515 247.717Z" fill="white"/>
<path fill-rule="evenodd" clip-rule="evenodd" d="M117.515 247.148C118.123 247.148 118.615 246.638 118.615 246.009C118.615 245.381 118.123 244.871 117.515 244.871C116.907 244.871 116.414 245.381 116.414 246.009C116.414 246.638 116.907 247.148 117.515 247.148Z" fill="white"/>
</g>
<g opacity="0.3">
<path opacity="0.2" fill-rule="evenodd" clip-rule="evenodd" d="M129.214 195.997C130.126 195.997 130.865 195.232 130.865 194.289C130.865 193.345 130.126 192.581 129.214 192.581C128.303 192.581 127.564 193.345 127.564 194.289C127.564 195.232 128.303 195.997 129.214 195.997Z" fill="white"/>
<path fill-rule="evenodd" clip-rule="evenodd" d="M129.214 195.427C129.822 195.427 130.315 194.918 130.315 194.289C130.315 193.66 129.822 193.15 129.214 193.15C128.607 193.15 128.114 193.66 128.114 194.289C128.114 194.918 128.607 195.427 129.214 195.427Z" fill="white"/>
</g>
<path opacity="0.2" fill-rule="evenodd" clip-rule="evenodd" d="M141.978 193.842C142.889 193.842 143.628 193.077 143.628 192.134C143.628 191.19 142.889 190.426 141.978 190.426C141.066 190.426 140.327 191.19 140.327 192.134C140.327 193.077 141.066 193.842 141.978 193.842Z" fill="white"/>
<path fill-rule="evenodd" clip-rule="evenodd" d="M141.978 193.272C142.585 193.272 143.078 192.763 143.078 192.134C143.078 191.505 142.585 190.995 141.978 190.995C141.37 190.995 140.877 191.505 140.877 192.134C140.877 192.763 141.37 193.272 141.978 193.272Z" fill="white"/>
<path opacity="0.2" fill-rule="evenodd" clip-rule="evenodd" d="M141.978 258.493C142.889 258.493 143.628 257.728 143.628 256.785C143.628 255.841 142.889 255.077 141.978 255.077C141.066 255.077 140.327 255.841 140.327 256.785C140.327 257.728 141.066 258.493 141.978 258.493Z" fill="white"/>
<path fill-rule="evenodd" clip-rule="evenodd" d="M141.978 257.923C142.585 257.923 143.078 257.414 143.078 256.785C143.078 256.156 142.585 255.646 141.978 255.646C141.37 255.646 140.877 256.156 140.877 256.785C140.877 257.414 141.37 257.923 141.978 257.923Z" fill="white"/>
<g opacity="0.4">
<path opacity="0.2" fill-rule="evenodd" clip-rule="evenodd" d="M119.642 203.539C120.554 203.539 121.293 202.775 121.293 201.831C121.293 200.888 120.554 200.123 119.642 200.123C118.73 200.123 117.991 200.888 117.991 201.831C117.991 202.775 118.73 203.539 119.642 203.539Z" fill="white"/>
<path fill-rule="evenodd" clip-rule="evenodd" d="M119.642 202.97C120.25 202.97 120.743 202.46 120.743 201.831C120.743 201.202 120.25 200.693 119.642 200.693C119.034 200.693 118.541 201.202 118.541 201.831C118.541 202.46 119.034 202.97 119.642 202.97Z" fill="white"/>
</g>
<g opacity="0.7">
<path opacity="0.2" fill-rule="evenodd" clip-rule="evenodd" d="M112.197 236.942C113.108 236.942 113.848 236.178 113.848 235.234C113.848 234.291 113.108 233.526 112.197 233.526C111.285 233.526 110.546 234.291 110.546 235.234C110.546 236.178 111.285 236.942 112.197 236.942Z" fill="white"/>
<path fill-rule="evenodd" clip-rule="evenodd" d="M112.197 236.373C112.805 236.373 113.297 235.863 113.297 235.234C113.297 234.605 112.805 234.096 112.197 234.096C111.589 234.096 111.096 234.605 111.096 235.234C111.096 235.863 111.589 236.373 112.197 236.373Z" fill="white"/>
</g>
<g opacity="0.7">
<path opacity="0.2" fill-rule="evenodd" clip-rule="evenodd" d="M174.878 224.589C173.96 224.589 173.216 223.831 173.216 222.895C173.216 221.959 173.96 221.2 174.878 221.2C175.795 221.2 176.539 221.959 176.539 222.895C176.539 223.831 175.795 224.589 174.878 224.589Z" fill="white"/>
<path fill-rule="evenodd" clip-rule="evenodd" d="M174.878 224.024C174.266 224.024 173.77 223.519 173.77 222.895C173.77 222.271 174.266 221.765 174.878 221.765C175.489 221.765 175.985 222.271 175.985 222.895C175.985 223.519 175.489 224.024 174.878 224.024Z" fill="white"/>
</g>
<g opacity="0.295233">
<path opacity="0.2" fill-rule="evenodd" clip-rule="evenodd" d="M156.682 255.136C155.764 255.136 155.02 254.377 155.02 253.441C155.02 252.505 155.764 251.747 156.682 251.747C157.599 251.747 158.343 252.505 158.343 253.441C158.343 254.377 157.599 255.136 156.682 255.136Z" fill="white"/>
<path fill-rule="evenodd" clip-rule="evenodd" d="M156.682 254.571C156.07 254.571 155.574 254.065 155.574 253.441C155.574 252.817 156.07 252.311 156.682 252.311C157.293 252.311 157.789 252.817 157.789 253.441C157.789 254.065 157.293 254.571 156.682 254.571Z" fill="white"/>
</g>
<g opacity="0.9">
<path opacity="0.2" fill-rule="evenodd" clip-rule="evenodd" d="M171.666 212.374C170.749 212.374 170.005 211.615 170.005 210.679C170.005 209.743 170.749 208.984 171.666 208.984C172.584 208.984 173.328 209.743 173.328 210.679C173.328 211.615 172.584 212.374 171.666 212.374Z" fill="white"/>
<path fill-rule="evenodd" clip-rule="evenodd" d="M171.666 211.809C171.055 211.809 170.559 211.303 170.559 210.679C170.559 210.055 171.055 209.549 171.666 209.549C172.278 209.549 172.774 210.055 172.774 210.679C172.774 211.303 172.278 211.809 171.666 211.809Z" fill="white"/>
</g>
<g opacity="0.4">
<path opacity="0.2" fill-rule="evenodd" clip-rule="evenodd" d="M167.385 247.652C166.468 247.652 165.724 246.894 165.724 245.958C165.724 245.022 166.468 244.263 167.385 244.263C168.303 244.263 169.046 245.022 169.046 245.958C169.046 246.894 168.303 247.652 167.385 247.652Z" fill="white"/>
<path fill-rule="evenodd" clip-rule="evenodd" d="M167.385 247.087C166.773 247.087 166.278 246.582 166.278 245.958C166.278 245.334 166.773 244.828 167.385 244.828C167.997 244.828 168.493 245.334 168.493 245.958C168.493 246.582 167.997 247.087 167.385 247.087Z" fill="white"/>
</g>
<path opacity="0.2" fill-rule="evenodd" clip-rule="evenodd" d="M155.611 196.338C154.694 196.338 153.95 195.579 153.95 194.643C153.95 193.707 154.694 192.949 155.611 192.949C156.529 192.949 157.273 193.707 157.273 194.643C157.273 195.579 156.529 196.338 155.611 196.338Z" fill="white"/>
<path fill-rule="evenodd" clip-rule="evenodd" d="M155.611 195.773C155 195.773 154.504 195.267 154.504 194.643C154.504 194.019 155 193.514 155.611 193.514C156.223 193.514 156.719 194.019 156.719 194.643C156.719 195.267 156.223 195.773 155.611 195.773Z" fill="white"/>
<g opacity="0.9">
<path opacity="0.2" fill-rule="evenodd" clip-rule="evenodd" d="M165.244 203.821C164.327 203.821 163.583 203.062 163.583 202.127C163.583 201.191 164.327 200.432 165.244 200.432C166.162 200.432 166.906 201.191 166.906 202.127C166.906 203.062 166.162 203.821 165.244 203.821Z" fill="white"/>
<path fill-rule="evenodd" clip-rule="evenodd" d="M165.244 203.256C164.633 203.256 164.137 202.751 164.137 202.127C164.137 201.503 164.633 200.997 165.244 200.997C165.856 200.997 166.352 201.503 166.352 202.127C166.352 202.751 165.856 203.256 165.244 203.256Z" fill="white"/>
</g>
<g opacity="0.5">
<path opacity="0.2" fill-rule="evenodd" clip-rule="evenodd" d="M172.737 236.962C171.819 236.962 171.076 236.203 171.076 235.267C171.076 234.331 171.819 233.573 172.737 233.573C173.654 233.573 174.398 234.331 174.398 235.267C174.398 236.203 173.654 236.962 172.737 236.962Z" fill="white"/>
<path fill-rule="evenodd" clip-rule="evenodd" d="M172.737 236.397C172.125 236.397 171.629 235.891 171.629 235.267C171.629 234.643 172.125 234.138 172.737 234.138C173.349 234.138 173.844 234.643 173.844 235.267C173.844 235.891 173.349 236.397 172.737 236.397Z" fill="white"/>
</g>
<path fill-rule="evenodd" clip-rule="evenodd" d="M131.397 221.148C131.787 220.757 132.421 220.757 132.811 221.148L142.457 230.794C142.848 231.185 142.848 231.818 142.457 232.208L141.86 232.805C141.47 233.196 140.837 233.196 140.446 232.805L130.8 223.159C130.41 222.768 130.41 222.135 130.8 221.745L131.397 221.148Z" fill="url(#paint19_linear_0_322)"/>
<path fill-rule="evenodd" clip-rule="evenodd" d="M155.441 214.594C155.022 214.242 154.397 214.293 154.04 214.708L139.926 231.112C139.573 231.523 139.611 232.14 140.011 232.504L140.668 233.102C141.085 233.482 141.734 233.442 142.101 233.013L156.205 216.555C156.567 216.132 156.515 215.496 156.089 215.138L155.441 214.594Z" fill="url(#paint20_linear_0_322)"/>
<defs>
<filter id="filter0_f_0_322" x="36.1992" y="0.746748" width="209.546" height="90.3729" filterUnits="userSpaceOnUse" color-interpolation-filters="sRGB">
<feFlood flood-opacity="0" result="BackgroundImageFix"/>
<feBlend mode="normal" in="SourceGraphic" in2="BackgroundImageFix" result="shape"/>
<feGaussianBlur stdDeviation="13.5914" result="effect1_foregroundBlur_0_322"/>
</filter>
<filter id="filter1_f_0_322" x="36.1992" y="52.888" width="209.546" height="90.3729" filterUnits="userSpaceOnUse" color-interpolation-filters="sRGB">
<feFlood flood-opacity="0" result="BackgroundImageFix"/>
<feBlend mode="normal" in="SourceGraphic" in2="BackgroundImageFix" result="shape"/>
<feGaussianBlur stdDeviation="13.5914" result="effect1_foregroundBlur_0_322"/>
</filter>
<filter id="filter2_f_0_322" x="36.1992" y="105.029" width="209.546" height="90.3729" filterUnits="userSpaceOnUse" color-interpolation-filters="sRGB">
<feFlood flood-opacity="0" result="BackgroundImageFix"/>
<feBlend mode="normal" in="SourceGraphic" in2="BackgroundImageFix" result="shape"/>
<feGaussianBlur stdDeviation="13.5914" result="effect1_foregroundBlur_0_322"/>
</filter>
<filter id="filter3_f_0_322" x="91.3278" y="178.442" width="99.8687" height="99.8686" filterUnits="userSpaceOnUse" color-interpolation-filters="sRGB">
<feFlood flood-opacity="0" result="BackgroundImageFix"/>
<feBlend mode="normal" in="SourceGraphic" in2="BackgroundImageFix" result="shape"/>
<feGaussianBlur stdDeviation="13.5914" result="effect1_foregroundBlur_0_322"/>
</filter>
<filter id="filter4_f_0_322" x="87.9639" y="169.971" width="109.03" height="109.03" filterUnits="userSpaceOnUse" color-interpolation-filters="sRGB">
<feFlood flood-opacity="0" result="BackgroundImageFix"/>
<feBlend mode="normal" in="SourceGraphic" in2="BackgroundImageFix" result="shape"/>
<feGaussianBlur stdDeviation="13.5914" result="effect1_foregroundBlur_0_322"/>
</filter>
<linearGradient id="paint0_linear_0_322" x1="29.0637" y1="7.61328" x2="29.0637" y2="87.6133" gradientUnits="userSpaceOnUse">
<stop stop-color="#FFD0C0"/>
<stop offset="0.808684" stop-color="#FF5882" stop-opacity="0.231035"/>
<stop offset="1" stop-color="#FF5782" stop-opacity="0.01"/>
</linearGradient>
<linearGradient id="paint1_linear_0_322" x1="20.9371" y1="-8.28634" x2="20.9371" y2="224.486" gradientUnits="userSpaceOnUse">
<stop stop-color="#FFC5B1"/>
<stop offset="0.451809" stop-color="#FF5C84"/>
<stop offset="0.808684" stop-color="#FF5882" stop-opacity="0.231035"/>
<stop offset="1" stop-color="#FF5782" stop-opacity="0.01"/>
</linearGradient>
<linearGradient id="paint2_linear_0_322" x1="62.413" y1="29.344" x2="62.413" y2="65.8009" gradientUnits="userSpaceOnUse">
<stop stop-color="#480067" stop-opacity="0.222883"/>
<stop offset="0.826943" stop-color="#5A0065" stop-opacity="0.222883"/>
<stop offset="1" stop-color="#5F006C" stop-opacity="0.0996377"/>
</linearGradient>
<linearGradient id="paint3_linear_0_322" x1="281.069" y1="56.8254" x2="281.069" y2="25.094" gradientUnits="userSpaceOnUse">
<stop stop-color="white"/>
<stop offset="1" stop-color="#EBF2FA"/>
</linearGradient>
<linearGradient id="paint4_linear_0_322" x1="88.3402" y1="49.1398" x2="88.3402" y2="35.684" gradientUnits="userSpaceOnUse">
<stop stop-color="#737BFF"/>
<stop offset="1" stop-color="#00B2F4"/>
</linearGradient>
<linearGradient id="paint5_linear_0_322" x1="88.2831" y1="31.993" x2="88.2831" y2="35.2153" gradientUnits="userSpaceOnUse">
<stop stop-color="#FFC5B1"/>
<stop offset="1" stop-color="#FF5782"/>
</linearGradient>
<linearGradient id="paint6_linear_0_322" x1="195.706" y1="39.0166" x2="195.706" y2="48.097" gradientUnits="userSpaceOnUse">
<stop stop-color="#00E2C8"/>
<stop offset="1" stop-color="#327FF6"/>
</linearGradient>
<linearGradient id="paint7_linear_0_322" x1="62.413" y1="81.4852" x2="62.413" y2="117.942" gradientUnits="userSpaceOnUse">
<stop stop-color="#480067" stop-opacity="0.222883"/>
<stop offset="0.826943" stop-color="#5A0065" stop-opacity="0.222883"/>
<stop offset="1" stop-color="#5F006C" stop-opacity="0.0996377"/>
</linearGradient>
<linearGradient id="paint8_linear_0_322" x1="281.069" y1="108.967" x2="281.069" y2="77.2352" gradientUnits="userSpaceOnUse">
<stop stop-color="white"/>
<stop offset="1" stop-color="#EBF2FA"/>
</linearGradient>
<linearGradient id="paint9_linear_0_322" x1="88.3402" y1="101.281" x2="88.3402" y2="87.8252" gradientUnits="userSpaceOnUse">
<stop stop-color="#737BFF"/>
<stop offset="1" stop-color="#00B2F4"/>
</linearGradient>
<linearGradient id="paint10_linear_0_322" x1="88.2831" y1="84.1342" x2="88.2831" y2="87.3566" gradientUnits="userSpaceOnUse">
<stop stop-color="#FFC5B1"/>
<stop offset="1" stop-color="#FF5782"/>
</linearGradient>
<linearGradient id="paint11_linear_0_322" x1="195.706" y1="91.1578" x2="195.706" y2="100.238" gradientUnits="userSpaceOnUse">
<stop stop-color="#00E2C8"/>
<stop offset="1" stop-color="#327FF6"/>
</linearGradient>
<linearGradient id="paint12_linear_0_322" x1="62.413" y1="133.626" x2="62.413" y2="170.083" gradientUnits="userSpaceOnUse">
<stop stop-color="#480067" stop-opacity="0.222883"/>
<stop offset="0.826943" stop-color="#5A0065" stop-opacity="0.222883"/>
<stop offset="1" stop-color="#5F006C" stop-opacity="0.0996377"/>
</linearGradient>
<linearGradient id="paint13_linear_0_322" x1="281.069" y1="161.108" x2="281.069" y2="129.376" gradientUnits="userSpaceOnUse">
<stop stop-color="white"/>
<stop offset="1" stop-color="#EBF2FA"/>
</linearGradient>
<linearGradient id="paint14_linear_0_322" x1="88.3402" y1="153.422" x2="88.3402" y2="139.966" gradientUnits="userSpaceOnUse">
<stop stop-color="#737BFF"/>
<stop offset="1" stop-color="#00B2F4"/>
</linearGradient>
<linearGradient id="paint15_linear_0_322" x1="88.2831" y1="136.275" x2="88.2831" y2="139.498" gradientUnits="userSpaceOnUse">
<stop stop-color="#FFC5B1"/>
<stop offset="1" stop-color="#FF5782"/>
</linearGradient>
<linearGradient id="paint16_linear_0_322" x1="195.706" y1="143.299" x2="195.706" y2="152.379" gradientUnits="userSpaceOnUse">
<stop stop-color="#00E2C8"/>
<stop offset="1" stop-color="#327FF6"/>
</linearGradient>
<linearGradient id="paint17_linear_0_322" x1="117.14" y1="205.624" x2="117.14" y2="253.869" gradientUnits="userSpaceOnUse">
<stop stop-color="#481D70" stop-opacity="0.222883"/>
<stop offset="0.826943" stop-color="#481D70" stop-opacity="0.222883"/>
<stop offset="1" stop-color="#481D70" stop-opacity="0.0996377"/>
</linearGradient>
<linearGradient id="paint18_linear_0_322" x1="114.805" y1="199.301" x2="114.805" y2="254.648" gradientUnits="userSpaceOnUse">
<stop stop-color="#480067" stop-opacity="0.222883"/>
<stop offset="0.826943" stop-color="#5A0065" stop-opacity="0.222883"/>
<stop offset="1" stop-color="#5F006C" stop-opacity="0.0996377"/>
</linearGradient>
<linearGradient id="paint19_linear_0_322" x1="130.093" y1="222.452" x2="141.153" y2="233.512" gradientUnits="userSpaceOnUse">
<stop stop-color="#9CE9CA"/>
<stop offset="1" stop-color="#00CED9"/>
</linearGradient>
<linearGradient id="paint20_linear_0_322" x1="156.855" y1="215.781" x2="141.637" y2="233.916" gradientUnits="userSpaceOnUse">
<stop stop-color="#9CE9CA"/>
<stop offset="1" stop-color="#00CED9"/>
</linearGradient>
</defs>
</svg>
