<svg width="369" height="311" viewBox="0 0 369 311" fill="none" xmlns="http://www.w3.org/2000/svg">
<g opacity="0.5">
<path opacity="0.877831" fill-rule="evenodd" clip-rule="evenodd" d="M192 71.3596C192 65.8367 196.477 61.3596 202 61.3596H254.349C259.872 61.3596 264.349 65.8367 264.349 71.3596V145.26C264.349 150.783 259.872 155.26 254.349 155.26H202C196.477 155.26 192 150.783 192 145.26V71.3596Z" fill="url(#paint0_linear_0_13)"/>
<path opacity="0.877831" fill-rule="evenodd" clip-rule="evenodd" d="M108 71.3596C108 65.8367 112.477 61.3596 118 61.3596H170.349C175.872 61.3596 180.349 65.8367 180.349 71.3596V145.26C180.349 150.783 175.872 155.26 170.349 155.26H118C112.477 155.26 108 150.783 108 145.26V71.3596Z" fill="url(#paint1_linear_0_13)"/>
<path fill-rule="evenodd" clip-rule="evenodd" d="M192 73.3596C192 67.8367 196.477 63.3596 202 63.3596H254.349C259.872 63.3596 264.349 67.8367 264.349 73.3596V147.26C264.349 152.783 259.872 157.26 254.349 157.26H202C196.477 157.26 192 152.783 192 147.26V73.3596Z" fill="url(#paint2_linear_0_13)"/>
<path fill-rule="evenodd" clip-rule="evenodd" d="M108 73.3596C108 67.8367 112.477 63.3596 118 63.3596H170.349C175.872 63.3596 180.349 67.8367 180.349 73.3596V147.26C180.349 152.783 175.872 157.26 170.349 157.26H118C112.477 157.26 108 152.783 108 147.26V73.3596Z" fill="url(#paint3_linear_0_13)"/>
</g>
<g filter="url(#filter0_f_0_13)">
<rect x="132.914" y="28" width="111.629" height="104" rx="10" fill="url(#paint4_linear_0_13)"/>
</g>
<rect x="132.914" y="32" width="111.629" height="104" rx="10" fill="url(#paint5_linear_0_13)"/>
<rect x="132.914" y="34" width="111.629" height="133.204" rx="10" fill="url(#paint6_linear_0_13)"/>
<path fill-rule="evenodd" clip-rule="evenodd" d="M143 52C143 50.8954 143.895 50 145 50H180C181.105 50 182 50.8954 182 52V70.5134C182 71.6179 181.105 72.5134 180 72.5134H145C143.895 72.5134 143 71.6179 143 70.5134V52Z" fill="#EE5C7C"/>
<path fill-rule="evenodd" clip-rule="evenodd" d="M143 91.3454C143 90.2408 143.895 89.3454 145 89.3454H180C181.105 89.3454 182 90.2408 182 91.3454V109.859C182 110.963 181.105 111.859 180 111.859H145C143.895 111.859 143 110.963 143 109.859V91.3454Z" fill="#EE5C7C"/>
<path fill-rule="evenodd" clip-rule="evenodd" d="M194 52C194 50.8954 194.895 50 196 50H231C232.105 50 233 50.8954 233 52V70.5134C233 71.6179 232.105 72.5134 231 72.5134H196C194.895 72.5134 194 71.6179 194 70.5134V52Z" fill="#EE5C7C"/>
<path fill-rule="evenodd" clip-rule="evenodd" d="M194 91.3454C194 90.2408 194.895 89.3454 196 89.3454H231C232.105 89.3454 233 90.2408 233 91.3454V109.859C233 110.963 232.105 111.859 231 111.859H196C194.895 111.859 194 110.963 194 109.859V91.3454Z" fill="#EE5C7C"/>
<path fill-rule="evenodd" clip-rule="evenodd" d="M143 79.2599C143 78.1553 143.895 77.2599 145 77.2599H180C181.105 77.2599 182 78.1553 182 79.2599V79.9502C182 81.0547 181.105 81.9502 180 81.9502H145C143.895 81.9502 143 81.0547 143 79.9502V79.2599Z" fill="#EE5C7C"/>
<path fill-rule="evenodd" clip-rule="evenodd" d="M194 79.2599C194 78.1553 194.895 77.2599 196 77.2599H231C232.105 77.2599 233 78.1553 233 79.2599V79.9502C233 81.0547 232.105 81.9502 231 81.9502H196C194.895 81.9502 194 81.0547 194 79.9502V79.2599Z" fill="#EE5C7C"/>
<rect x="143.319" y="116.859" width="90.0535" height="4.69029" rx="2" fill="#EE5C7C"/>
<g filter="url(#filter1_f_0_13)">
<path fill-rule="evenodd" clip-rule="evenodd" d="M129.427 131.25C134.528 101.577 160.384 79 191.514 79C217.897 79 240.492 95.2174 249.874 118.227C251.711 117.988 253.584 117.864 255.486 117.864C279.235 117.864 298.486 137.116 298.486 160.864C298.486 184.613 284.279 203.864 260.531 203.864C259.962 203.864 259.393 203.853 258.823 203.831C242.484 204.594 119.754 205 116.514 205C95.5269 205 78.5137 187.987 78.5137 167C78.5137 146.013 95.5269 129 116.514 129C121.047 129 125.396 129.794 129.427 131.25Z" fill="url(#paint7_linear_0_13)"/>
</g>
<path fill-rule="evenodd" clip-rule="evenodd" d="M263.5 229H187H113.5H112.014L112.032 228.979C85.3731 228.231 64 207.148 64 180.019C64 152.394 86.1619 130 113.5 130C120.391 130 126.954 131.423 132.915 133.994C143.921 115.428 164.024 103 187 103C210.425 103 230.863 115.919 241.719 135.09C248.292 131.83 255.684 130 263.5 130C290.838 130 313 152.394 313 180.019C313 207.139 291.64 228.218 264.993 228.979L265.014 229H263.5Z" fill="url(#paint8_linear_0_13)"/>
<g opacity="0.522135" filter="url(#filter2_f_0_13)">
<path fill-rule="evenodd" clip-rule="evenodd" d="M142.003 200.307L146.259 199H219.408L222.344 201.866L223.474 207.02L224 274.03C224 274.03 222.242 277.896 221.589 278.359C220.937 278.823 216.89 283 216.89 283H146.831C146.831 283 142.512 281.309 141.52 279.854C140.527 278.4 140 272.323 140 272.323V207.02L142.003 200.307Z" fill="url(#paint9_linear_0_13)"/>
</g>
<g filter="url(#filter3_f_0_13)">
<path fill-rule="evenodd" clip-rule="evenodd" d="M188.053 263.107C205.756 263.107 220.107 248.756 220.107 231.053C220.107 213.351 205.756 199 188.053 199C170.351 199 156 213.351 156 231.053C156 248.756 170.351 263.107 188.053 263.107Z" fill="url(#paint10_linear_0_13)"/>
</g>
<path opacity="0.309726" fill-rule="evenodd" clip-rule="evenodd" d="M188.053 263.107C205.756 263.107 220.107 248.756 220.107 231.053C220.107 213.351 205.756 199 188.053 199C170.351 199 156 213.351 156 231.053C156 248.756 170.351 263.107 188.053 263.107Z" fill="white"/>
<path fill-rule="evenodd" clip-rule="evenodd" d="M188.053 258.107C202.994 258.107 215.107 245.994 215.107 231.053C215.107 216.112 202.994 204 188.053 204C173.112 204 161 216.112 161 231.053C161 245.994 173.112 258.107 188.053 258.107Z" fill="white"/>
<path fill-rule="evenodd" clip-rule="evenodd" d="M200.548 228.965C200.913 228.56 201.535 228.522 201.947 228.88L203.447 230.184C203.868 230.55 203.908 231.191 203.535 231.606L191.088 245.485C191.05 245.545 191.005 245.601 190.953 245.653L190.804 245.802L189.964 246.739C189.864 246.85 189.745 246.934 189.617 246.989L189.549 247.057C189.159 247.447 188.525 247.447 188.135 247.057L173.768 232.69C173.377 232.299 173.377 231.666 173.768 231.275L175.171 229.872C175.562 229.481 176.195 229.481 176.585 229.872L188.753 242.04L200.548 228.965Z" fill="url(#paint11_linear_0_13)"/>
<path fill-rule="evenodd" clip-rule="evenodd" d="M200.433 218.594C200.798 218.189 201.42 218.151 201.831 218.509L203.331 219.813C203.753 220.179 203.793 220.819 203.42 221.235L190.973 235.114C190.935 235.174 190.89 235.23 190.837 235.282L190.689 235.43L189.848 236.368C189.749 236.479 189.63 236.563 189.501 236.618L189.434 236.686C189.043 237.076 188.41 237.076 188.02 236.686L173.652 222.318C173.262 221.928 173.262 221.294 173.652 220.904L175.056 219.5C175.446 219.11 176.08 219.11 176.47 219.5L188.638 231.668L200.433 218.594Z" fill="url(#paint12_linear_0_13)"/>
<g opacity="0.2">
<path opacity="0.2" fill-rule="evenodd" clip-rule="evenodd" d="M186.184 116.908C186.184 117.962 187.038 118.816 188.092 118.816C189.146 118.816 190 117.962 190 116.908C190 115.854 189.146 115 188.092 115C187.038 115 186.184 115.854 186.184 116.908Z" fill="white"/>
<path fill-rule="evenodd" clip-rule="evenodd" d="M186.82 116.908C186.82 117.61 187.39 118.18 188.092 118.18C188.795 118.18 189.364 117.61 189.364 116.908C189.364 116.205 188.795 115.636 188.092 115.636C187.39 115.636 186.82 116.205 186.82 116.908Z" fill="white"/>
</g>
<g opacity="0.3">
<path opacity="0.2" fill-rule="evenodd" clip-rule="evenodd" d="M186.184 127.108C186.184 128.162 187.038 129.016 188.092 129.016C189.146 129.016 190 128.162 190 127.108C190 126.054 189.146 125.2 188.092 125.2C187.038 125.2 186.184 126.054 186.184 127.108Z" fill="white"/>
<path fill-rule="evenodd" clip-rule="evenodd" d="M186.82 127.108C186.82 127.81 187.39 128.38 188.092 128.38C188.795 128.38 189.364 127.81 189.364 127.108C189.364 126.405 188.795 125.836 188.092 125.836C187.39 125.836 186.82 126.405 186.82 127.108Z" fill="white"/>
</g>
<g opacity="0.4">
<path opacity="0.2" fill-rule="evenodd" clip-rule="evenodd" d="M186.184 137.308C186.184 138.362 187.038 139.216 188.092 139.216C189.146 139.216 190 138.362 190 137.308C190 136.254 189.146 135.4 188.092 135.4C187.038 135.4 186.184 136.254 186.184 137.308Z" fill="white"/>
<path fill-rule="evenodd" clip-rule="evenodd" d="M186.82 137.308C186.82 138.01 187.39 138.58 188.092 138.58C188.795 138.58 189.364 138.01 189.364 137.308C189.364 136.605 188.795 136.036 188.092 136.036C187.39 136.036 186.82 136.605 186.82 137.308Z" fill="white"/>
</g>
<g opacity="0.5">
<path opacity="0.2" fill-rule="evenodd" clip-rule="evenodd" d="M186.184 147.508C186.184 148.562 187.038 149.416 188.092 149.416C189.146 149.416 190 148.562 190 147.508C190 146.454 189.146 145.6 188.092 145.6C187.038 145.6 186.184 146.454 186.184 147.508Z" fill="white"/>
<path fill-rule="evenodd" clip-rule="evenodd" d="M186.82 147.508C186.82 148.21 187.39 148.78 188.092 148.78C188.795 148.78 189.364 148.21 189.364 147.508C189.364 146.805 188.795 146.236 188.092 146.236C187.39 146.236 186.82 146.805 186.82 147.508Z" fill="white"/>
</g>
<g opacity="0.6">
<path opacity="0.2" fill-rule="evenodd" clip-rule="evenodd" d="M186.184 157.708C186.184 158.762 187.038 159.616 188.092 159.616C189.146 159.616 190 158.762 190 157.708C190 156.654 189.146 155.8 188.092 155.8C187.038 155.8 186.184 156.654 186.184 157.708Z" fill="white"/>
<path fill-rule="evenodd" clip-rule="evenodd" d="M186.82 157.708C186.82 158.41 187.39 158.98 188.092 158.98C188.795 158.98 189.364 158.41 189.364 157.708C189.364 157.005 188.795 156.436 188.092 156.436C187.39 156.436 186.82 157.005 186.82 157.708Z" fill="white"/>
</g>
<g opacity="0.7">
<path opacity="0.2" fill-rule="evenodd" clip-rule="evenodd" d="M186.184 167.908C186.184 168.962 187.038 169.816 188.092 169.816C189.146 169.816 190 168.962 190 167.908C190 166.854 189.146 166 188.092 166C187.038 166 186.184 166.854 186.184 167.908Z" fill="white"/>
<path fill-rule="evenodd" clip-rule="evenodd" d="M186.82 167.908C186.82 168.61 187.39 169.18 188.092 169.18C188.795 169.18 189.364 168.61 189.364 167.908C189.364 167.205 188.795 166.636 188.092 166.636C187.39 166.636 186.82 167.205 186.82 167.908Z" fill="white"/>
</g>
<g opacity="0.8">
<path opacity="0.2" fill-rule="evenodd" clip-rule="evenodd" d="M186.184 178.108C186.184 179.162 187.038 180.016 188.092 180.016C189.146 180.016 190 179.162 190 178.108C190 177.054 189.146 176.2 188.092 176.2C187.038 176.2 186.184 177.054 186.184 178.108Z" fill="white"/>
<path fill-rule="evenodd" clip-rule="evenodd" d="M186.82 178.108C186.82 178.81 187.39 179.38 188.092 179.38C188.795 179.38 189.364 178.81 189.364 178.108C189.364 177.405 188.795 176.836 188.092 176.836C187.39 176.836 186.82 177.405 186.82 178.108Z" fill="white"/>
</g>
<g opacity="0.9">
<path opacity="0.2" fill-rule="evenodd" clip-rule="evenodd" d="M186.184 188.308C186.184 189.362 187.038 190.216 188.092 190.216C189.146 190.216 190 189.362 190 188.308C190 187.254 189.146 186.4 188.092 186.4C187.038 186.4 186.184 187.254 186.184 188.308Z" fill="white"/>
<path fill-rule="evenodd" clip-rule="evenodd" d="M186.82 188.308C186.82 189.01 187.39 189.58 188.092 189.58C188.795 189.58 189.364 189.01 189.364 188.308C189.364 187.605 188.795 187.036 188.092 187.036C187.39 187.036 186.82 187.605 186.82 188.308Z" fill="white"/>
</g>
<g opacity="0.2">
<path opacity="0.2" fill-rule="evenodd" clip-rule="evenodd" d="M83.9472 178.191C84.8693 177.944 85.4192 177.006 85.1753 176.096C84.9315 175.186 83.9863 174.649 83.0642 174.896C82.1421 175.143 81.5923 176.081 81.8361 176.991C82.0799 177.901 83.0251 178.438 83.9472 178.191Z" fill="white"/>
<path fill-rule="evenodd" clip-rule="evenodd" d="M83.8 177.642C84.4147 177.477 84.7813 176.852 84.6188 176.245C84.4562 175.639 83.8261 175.28 83.2113 175.445C82.5966 175.61 82.23 176.235 82.3926 176.842C82.5552 177.449 83.1853 177.807 83.8 177.642Z" fill="white"/>
</g>
<g opacity="0.3">
<path opacity="0.2" fill-rule="evenodd" clip-rule="evenodd" d="M91.1636 185.088C92.0857 184.841 92.6355 183.903 92.3917 182.993C92.1479 182.083 91.2027 181.545 90.2806 181.792C89.3585 182.039 88.8086 182.977 89.0525 183.887C89.2963 184.797 90.2415 185.335 91.1636 185.088Z" fill="white"/>
<path fill-rule="evenodd" clip-rule="evenodd" d="M91.0164 184.539C91.6311 184.374 91.9977 183.748 91.8351 183.142C91.6726 182.535 91.0424 182.177 90.4277 182.342C89.813 182.506 89.4464 183.132 89.609 183.738C89.7715 184.345 90.4016 184.703 91.0164 184.539Z" fill="white"/>
</g>
<g opacity="0.4">
<path opacity="0.2" fill-rule="evenodd" clip-rule="evenodd" d="M98.4949 190.187C99.417 189.94 99.9669 189.002 99.723 188.092C99.4792 187.182 98.534 186.645 97.6119 186.892C96.6898 187.139 96.14 188.077 96.3838 188.987C96.6277 189.897 97.5728 190.434 98.4949 190.187Z" fill="white"/>
<path fill-rule="evenodd" clip-rule="evenodd" d="M98.3477 189.638C98.9625 189.473 99.329 188.848 99.1665 188.241C99.0039 187.635 98.3738 187.276 97.7591 187.441C97.1443 187.606 96.7778 188.231 96.9403 188.838C97.1029 189.445 97.733 189.803 98.3477 189.638Z" fill="white"/>
</g>
<g opacity="0.5">
<path opacity="0.2" fill-rule="evenodd" clip-rule="evenodd" d="M105.973 195.836C106.896 195.589 107.445 194.651 107.202 193.741C106.958 192.831 106.013 192.294 105.09 192.541C104.168 192.788 103.619 193.726 103.862 194.636C104.106 195.546 105.051 196.083 105.973 195.836Z" fill="white"/>
<path fill-rule="evenodd" clip-rule="evenodd" d="M105.826 195.287C106.441 195.122 106.808 194.497 106.645 193.89C106.482 193.283 105.852 192.925 105.238 193.09C104.623 193.255 104.256 193.88 104.419 194.487C104.581 195.093 105.212 195.452 105.826 195.287Z" fill="white"/>
</g>
<g opacity="0.6">
<path opacity="0.2" fill-rule="evenodd" clip-rule="evenodd" d="M115.237 199.241C116.159 198.994 116.709 198.056 116.465 197.146C116.221 196.236 115.276 195.698 114.354 195.945C113.432 196.192 112.882 197.13 113.126 198.04C113.369 198.95 114.315 199.488 115.237 199.241Z" fill="white"/>
<path fill-rule="evenodd" clip-rule="evenodd" d="M115.089 198.691C115.704 198.527 116.071 197.901 115.908 197.295C115.746 196.688 115.116 196.33 114.501 196.495C113.886 196.659 113.52 197.285 113.682 197.891C113.845 198.498 114.475 198.856 115.089 198.691Z" fill="white"/>
</g>
<g opacity="0.7">
<path opacity="0.2" fill-rule="evenodd" clip-rule="evenodd" d="M124.5 202.645C125.422 202.398 125.972 201.46 125.728 200.55C125.484 199.64 124.539 199.103 123.617 199.35C122.695 199.597 122.145 200.535 122.389 201.445C122.633 202.355 123.578 202.892 124.5 202.645Z" fill="white"/>
<path fill-rule="evenodd" clip-rule="evenodd" d="M124.353 202.096C124.967 201.931 125.334 201.306 125.171 200.699C125.009 200.093 124.379 199.734 123.764 199.899C123.149 200.064 122.783 200.689 122.945 201.296C123.108 201.903 123.738 202.261 124.353 202.096Z" fill="white"/>
</g>
<g opacity="0.9">
<path opacity="0.2" fill-rule="evenodd" clip-rule="evenodd" d="M134.582 204.653C135.504 204.406 136.054 203.468 135.81 202.558C135.566 201.648 134.621 201.111 133.699 201.358C132.777 201.605 132.227 202.543 132.471 203.453C132.715 204.363 133.66 204.9 134.582 204.653Z" fill="white"/>
<path fill-rule="evenodd" clip-rule="evenodd" d="M134.435 204.104C135.049 203.939 135.416 203.314 135.253 202.707C135.091 202.101 134.461 201.742 133.846 201.907C133.231 202.072 132.865 202.697 133.027 203.304C133.19 203.91 133.82 204.269 134.435 204.104Z" fill="white"/>
</g>
<g opacity="0.9">
<path opacity="0.2" fill-rule="evenodd" clip-rule="evenodd" d="M144.107 206.81C145.029 206.563 145.579 205.625 145.335 204.715C145.091 203.805 144.146 203.268 143.224 203.515C142.302 203.762 141.752 204.7 141.996 205.61C142.24 206.52 143.185 207.057 144.107 206.81Z" fill="white"/>
<path fill-rule="evenodd" clip-rule="evenodd" d="M143.96 206.261C144.575 206.096 144.941 205.471 144.779 204.864C144.616 204.258 143.986 203.899 143.371 204.064C142.757 204.229 142.39 204.854 142.553 205.461C142.715 206.067 143.345 206.426 143.96 206.261Z" fill="white"/>
</g>
<g opacity="0.2">
<path opacity="0.2" fill-rule="evenodd" clip-rule="evenodd" d="M287.313 176.006C286.383 175.792 285.801 174.873 286.013 173.955C286.225 173.037 287.151 172.467 288.081 172.682C289.011 172.897 289.593 173.815 289.381 174.733C289.169 175.651 288.244 176.221 287.313 176.006Z" fill="white"/>
<path fill-rule="evenodd" clip-rule="evenodd" d="M287.441 175.452C286.821 175.309 286.433 174.697 286.574 174.085C286.716 173.473 287.333 173.093 287.953 173.236C288.573 173.379 288.961 173.991 288.82 174.603C288.679 175.215 288.061 175.595 287.441 175.452Z" fill="white"/>
</g>
<g opacity="0.3">
<path opacity="0.2" fill-rule="evenodd" clip-rule="evenodd" d="M280.342 183.15C279.412 182.936 278.83 182.017 279.042 181.099C279.253 180.181 280.179 179.611 281.109 179.826C282.04 180.041 282.622 180.959 282.41 181.877C282.198 182.795 281.272 183.365 280.342 183.15Z" fill="white"/>
<path fill-rule="evenodd" clip-rule="evenodd" d="M280.47 182.596C279.85 182.453 279.462 181.841 279.603 181.229C279.744 180.617 280.361 180.237 280.982 180.38C281.602 180.523 281.99 181.135 281.849 181.747C281.707 182.359 281.09 182.739 280.47 182.596Z" fill="white"/>
</g>
<g opacity="0.4">
<path opacity="0.2" fill-rule="evenodd" clip-rule="evenodd" d="M273.193 188.503C272.263 188.288 271.681 187.37 271.893 186.452C272.105 185.534 273.03 184.964 273.961 185.178C274.891 185.393 275.473 186.311 275.261 187.229C275.049 188.147 274.123 188.717 273.193 188.503Z" fill="white"/>
<path fill-rule="evenodd" clip-rule="evenodd" d="M273.321 187.949C272.701 187.805 272.313 187.193 272.454 186.581C272.595 185.969 273.213 185.589 273.833 185.732C274.453 185.876 274.841 186.488 274.7 187.1C274.558 187.712 273.941 188.092 273.321 187.949Z" fill="white"/>
</g>
<g opacity="0.5">
<path opacity="0.2" fill-rule="evenodd" clip-rule="evenodd" d="M265.916 194.409C264.986 194.194 264.404 193.276 264.616 192.358C264.828 191.44 265.754 190.87 266.684 191.085C267.614 191.299 268.196 192.218 267.984 193.136C267.772 194.054 266.846 194.624 265.916 194.409Z" fill="white"/>
<path fill-rule="evenodd" clip-rule="evenodd" d="M266.044 193.855C265.424 193.712 265.036 193.1 265.177 192.488C265.318 191.876 265.936 191.496 266.556 191.639C267.176 191.782 267.564 192.394 267.423 193.006C267.281 193.618 266.664 193.998 266.044 193.855Z" fill="white"/>
</g>
<g opacity="0.6">
<path opacity="0.2" fill-rule="evenodd" clip-rule="evenodd" d="M256.778 198.135C255.847 197.92 255.265 197.002 255.477 196.084C255.689 195.166 256.615 194.596 257.545 194.811C258.475 195.025 259.057 195.944 258.846 196.862C258.634 197.779 257.708 198.35 256.778 198.135Z" fill="white"/>
<path fill-rule="evenodd" clip-rule="evenodd" d="M256.905 197.581C256.285 197.438 255.897 196.825 256.038 196.213C256.18 195.602 256.797 195.221 257.417 195.365C258.037 195.508 258.425 196.12 258.284 196.732C258.143 197.344 257.526 197.724 256.905 197.581Z" fill="white"/>
</g>
<g opacity="0.7">
<path opacity="0.2" fill-rule="evenodd" clip-rule="evenodd" d="M247.639 201.861C246.709 201.646 246.126 200.728 246.338 199.81C246.55 198.892 247.476 198.322 248.406 198.536C249.336 198.751 249.919 199.669 249.707 200.587C249.495 201.505 248.569 202.075 247.639 201.861Z" fill="white"/>
<path fill-rule="evenodd" clip-rule="evenodd" d="M247.767 201.307C247.147 201.163 246.758 200.551 246.9 199.939C247.041 199.327 247.658 198.947 248.278 199.09C248.898 199.234 249.287 199.846 249.145 200.458C249.004 201.07 248.387 201.45 247.767 201.307Z" fill="white"/>
</g>
<g opacity="0.9">
<path opacity="0.2" fill-rule="evenodd" clip-rule="evenodd" d="M237.633 204.219C236.703 204.004 236.121 203.086 236.333 202.168C236.545 201.25 237.47 200.68 238.401 200.895C239.331 201.11 239.913 202.028 239.701 202.946C239.489 203.864 238.563 204.434 237.633 204.219Z" fill="white"/>
<path fill-rule="evenodd" clip-rule="evenodd" d="M237.761 203.665C237.141 203.522 236.753 202.91 236.894 202.298C237.035 201.686 237.653 201.306 238.273 201.449C238.893 201.592 239.281 202.204 239.14 202.816C238.998 203.428 238.381 203.808 237.761 203.665Z" fill="white"/>
</g>
<g opacity="0.9">
<path opacity="0.2" fill-rule="evenodd" clip-rule="evenodd" d="M228.189 206.707C227.259 206.493 226.676 205.574 226.888 204.656C227.1 203.738 228.026 203.168 228.956 203.383C229.886 203.598 230.469 204.516 230.257 205.434C230.045 206.352 229.119 206.922 228.189 206.707Z" fill="white"/>
<path fill-rule="evenodd" clip-rule="evenodd" d="M228.317 206.153C227.697 206.01 227.308 205.398 227.45 204.786C227.591 204.174 228.208 203.794 228.828 203.937C229.448 204.08 229.837 204.692 229.695 205.304C229.554 205.916 228.937 206.296 228.317 206.153Z" fill="white"/>
</g>
<defs>
<filter id="filter0_f_0_13" x="105.731" y="0.817183" width="165.994" height="158.366" filterUnits="userSpaceOnUse" color-interpolation-filters="sRGB">
<feFlood flood-opacity="0" result="BackgroundImageFix"/>
<feBlend mode="normal" in="SourceGraphic" in2="BackgroundImageFix" result="shape"/>
<feGaussianBlur stdDeviation="13.5914" result="effect1_foregroundBlur_0_13"/>
</filter>
<filter id="filter1_f_0_13" x="51.3309" y="51.8172" width="274.338" height="180.366" filterUnits="userSpaceOnUse" color-interpolation-filters="sRGB">
<feFlood flood-opacity="0" result="BackgroundImageFix"/>
<feBlend mode="normal" in="SourceGraphic" in2="BackgroundImageFix" result="shape"/>
<feGaussianBlur stdDeviation="13.5914" result="effect1_foregroundBlur_0_13"/>
</filter>
<filter id="filter2_f_0_13" x="112.817" y="171.817" width="138.366" height="138.366" filterUnits="userSpaceOnUse" color-interpolation-filters="sRGB">
<feFlood flood-opacity="0" result="BackgroundImageFix"/>
<feBlend mode="normal" in="SourceGraphic" in2="BackgroundImageFix" result="shape"/>
<feGaussianBlur stdDeviation="13.5914" result="effect1_foregroundBlur_0_13"/>
</filter>
<filter id="filter3_f_0_13" x="128.817" y="171.817" width="118.472" height="118.472" filterUnits="userSpaceOnUse" color-interpolation-filters="sRGB">
<feFlood flood-opacity="0" result="BackgroundImageFix"/>
<feBlend mode="normal" in="SourceGraphic" in2="BackgroundImageFix" result="shape"/>
<feGaussianBlur stdDeviation="13.5914" result="effect1_foregroundBlur_0_13"/>
</filter>
<linearGradient id="paint0_linear_0_13" x1="187.485" y1="53.5373" x2="187.485" y2="143.485" gradientUnits="userSpaceOnUse">
<stop stop-color="#FFC5B1"/>
<stop offset="1" stop-color="#FF5782" stop-opacity="0.01"/>
</linearGradient>
<linearGradient id="paint1_linear_0_13" x1="103.485" y1="53.5373" x2="103.485" y2="143.485" gradientUnits="userSpaceOnUse">
<stop stop-color="#FFC5B1"/>
<stop offset="1" stop-color="#FF5782" stop-opacity="0.01"/>
</linearGradient>
<linearGradient id="paint2_linear_0_13" x1="187.485" y1="55.5373" x2="187.485" y2="145.485" gradientUnits="userSpaceOnUse">
<stop stop-color="#FFC5B1"/>
<stop offset="1" stop-color="#FF5782" stop-opacity="0.01"/>
</linearGradient>
<linearGradient id="paint3_linear_0_13" x1="103.485" y1="55.5373" x2="103.485" y2="145.485" gradientUnits="userSpaceOnUse">
<stop stop-color="#FFC5B1"/>
<stop offset="1" stop-color="#FF5782" stop-opacity="0.01"/>
</linearGradient>
<linearGradient id="paint4_linear_0_13" x1="132.217" y1="32.0853" x2="132.217" y2="137.384" gradientUnits="userSpaceOnUse">
<stop stop-color="#480067" stop-opacity="0.222883"/>
<stop offset="0.826943" stop-color="#5A0065" stop-opacity="0.222883"/>
<stop offset="1" stop-color="#5F006C" stop-opacity="0.0996377"/>
</linearGradient>
<linearGradient id="paint5_linear_0_13" x1="132.375" y1="33.053" x2="132.375" y2="120.7" gradientUnits="userSpaceOnUse">
<stop stop-color="#FFB1B0"/>
<stop offset="0.785024" stop-color="#FF6387"/>
<stop offset="1" stop-color="#FF5782" stop-opacity="0.01"/>
</linearGradient>
<linearGradient id="paint6_linear_0_13" x1="111.333" y1="-18.1777" x2="111.333" y2="152.855" gradientUnits="userSpaceOnUse">
<stop stop-color="#FFC5B1"/>
<stop offset="0.81913" stop-color="#FF6B8B"/>
<stop offset="1" stop-color="#FF5782" stop-opacity="0.01"/>
</linearGradient>
<linearGradient id="paint7_linear_0_13" x1="71.8876" y1="79" x2="71.8876" y2="212.591" gradientUnits="userSpaceOnUse">
<stop stop-color="#481D70" stop-opacity="0.222883"/>
<stop offset="0.826943" stop-color="#481D70" stop-opacity="0.222883"/>
<stop offset="1" stop-color="#481D70" stop-opacity="0.0996377"/>
</linearGradient>
<linearGradient id="paint8_linear_0_13" x1="291.937" y1="229" x2="291.937" y2="113.125" gradientUnits="userSpaceOnUse">
<stop stop-color="#737BFF" stop-opacity="0.01"/>
<stop offset="0.165396" stop-color="#5E86FD" stop-opacity="0.216717"/>
<stop offset="0.525839" stop-color="#3999F9" stop-opacity="0.589833"/>
<stop offset="0.846565" stop-color="#0AADF5" stop-opacity="0.925499"/>
<stop offset="1" stop-color="#00B2F4"/>
</linearGradient>
<linearGradient id="paint9_linear_0_13" x1="137.47" y1="199" x2="137.47" y2="288.061" gradientUnits="userSpaceOnUse">
<stop stop-color="#481D70" stop-opacity="0.222883"/>
<stop offset="0.826943" stop-color="#481D70" stop-opacity="0.222883"/>
<stop offset="1" stop-color="#481D70" stop-opacity="0.0996377"/>
</linearGradient>
<linearGradient id="paint10_linear_0_13" x1="155.6" y1="201.518" x2="155.6" y2="266.425" gradientUnits="userSpaceOnUse">
<stop stop-color="#480067" stop-opacity="0.222883"/>
<stop offset="0.826943" stop-color="#5A0065" stop-opacity="0.222883"/>
<stop offset="1" stop-color="#5F006C" stop-opacity="0.0996377"/>
</linearGradient>
<linearGradient id="paint11_linear_0_13" x1="167.196" y1="237.992" x2="179.027" y2="257.156" gradientUnits="userSpaceOnUse">
<stop stop-color="#9CE9CA"/>
<stop offset="1" stop-color="#00CED9"/>
</linearGradient>
<linearGradient id="paint12_linear_0_13" x1="167.081" y1="227.621" x2="178.911" y2="246.785" gradientUnits="userSpaceOnUse">
<stop stop-color="#9CE9CA"/>
<stop offset="1" stop-color="#00CED9"/>
</linearGradient>
</defs>
</svg>
