<svg width="369" height="245" viewBox="0 0 369 245" fill="none" xmlns="http://www.w3.org/2000/svg">
<g opacity="0.818105">
<g filter="url(#filter0_f_0_522)">
<path fill-rule="evenodd" clip-rule="evenodd" d="M93.8814 52.3459L105.25 51.5493L264.94 51.5493L272.783 53.2961L275.802 56.4371L277.206 97.275C277.206 97.275 272.51 99.6309 270.767 99.9133C269.024 100.196 258.213 102.742 258.213 102.742H106.779C106.779 102.742 95.2422 101.711 92.5909 100.825C89.9395 99.9381 88.5317 96.2346 88.5317 96.2346V56.4371L93.8814 52.3459Z" fill="url(#paint0_linear_0_522)"/>
</g>
<path fill-rule="evenodd" clip-rule="evenodd" d="M88 54.1736C88 51.4122 90.2386 49.1736 93 49.1736H276.46C279.221 49.1736 281.46 51.4122 281.46 54.1736V87.1281C281.46 89.8896 279.221 92.1281 276.46 92.1281H93C90.2386 92.1281 88 89.8896 88 87.1281V54.1736Z" fill="white"/>
<path fill-rule="evenodd" clip-rule="evenodd" d="M105.853 75.7324C108.646 75.7324 110.911 73.4573 110.911 70.6509C110.911 67.8444 108.646 65.5694 105.853 65.5694C103.059 65.5694 100.794 67.8444 100.794 70.6509C100.794 73.4573 103.059 75.7324 105.853 75.7324Z" fill="url(#paint1_linear_0_522)"/>
<path fill-rule="evenodd" clip-rule="evenodd" d="M261.787 68.4366C261.787 67.8843 262.234 67.4366 262.787 67.4366H268.042C268.594 67.4366 269.042 67.8843 269.042 68.4366V73.6105C269.042 74.1628 268.594 74.6105 268.042 74.6105H262.787C262.234 74.6105 261.787 74.1628 261.787 73.6105V68.4366Z" fill="url(#paint2_linear_0_522)"/>
<path fill-rule="evenodd" clip-rule="evenodd" d="M113.73 66.3293C114.715 66.3293 115.515 65.5263 115.515 64.5358C115.515 63.5453 114.715 62.7423 113.73 62.7423C112.744 62.7423 111.944 63.5453 111.944 64.5358C111.944 65.5263 112.744 66.3293 113.73 66.3293Z" fill="url(#paint3_linear_0_522)"/>
<path fill-rule="evenodd" clip-rule="evenodd" d="M121.497 62.5524C121.497 62.0001 121.945 61.5524 122.497 61.5524H159.906C160.459 61.5524 160.906 62.0001 160.906 62.5524V63.4945C160.906 64.0468 160.459 64.4945 159.906 64.4945H122.497C121.945 64.4945 121.497 64.0468 121.497 63.4945V62.5524Z" fill="#C8D7E9"/>
<path fill-rule="evenodd" clip-rule="evenodd" d="M163.252 62.5524C163.252 62.0001 163.7 61.5524 164.252 61.5524H170.697C171.249 61.5524 171.697 62.0001 171.697 62.5524V63.4945C171.697 64.0468 171.249 64.4945 170.697 64.4945H164.252C163.7 64.4945 163.252 64.0468 163.252 63.4945V62.5524Z" fill="#C8D7E9"/>
<path opacity="0.615319" fill-rule="evenodd" clip-rule="evenodd" d="M121.497 69.4961C121.497 69.0086 121.893 68.6134 122.38 68.6134H208.346C208.834 68.6134 209.229 69.0086 209.229 69.4961C209.229 69.9835 208.834 70.3787 208.346 70.3787H122.38C121.893 70.3787 121.497 69.9835 121.497 69.4961Z" fill="#C8D7E9"/>
<path opacity="0.615319" fill-rule="evenodd" clip-rule="evenodd" d="M121.497 73.0266C121.497 72.5391 121.893 72.144 122.38 72.144H208.346C208.834 72.144 209.229 72.5391 209.229 73.0266C209.229 73.514 208.834 73.9092 208.346 73.9092H122.38C121.893 73.9092 121.497 73.514 121.497 73.0266Z" fill="#C8D7E9"/>
<rect opacity="0.615319" x="121.497" y="75.6745" width="65.6813" height="1.76525" rx="0.882627" fill="#C8D7E9"/>
<path opacity="0.615319" fill-rule="evenodd" clip-rule="evenodd" d="M121.497 80.0876C121.497 79.6001 121.893 79.205 122.38 79.205H169.876C170.363 79.205 170.758 79.6001 170.758 80.0876C170.758 80.575 170.363 80.9702 169.876 80.9702H122.38C121.893 80.9702 121.497 80.575 121.497 80.0876Z" fill="#C8D7E9"/>
</g>
<g filter="url(#filter1_f_0_522)">
<path fill-rule="evenodd" clip-rule="evenodd" d="M74.9944 28.3459L88.5116 27.5493H283.517L292.842 29.2961L296.431 32.4371L298.101 73.275C298.101 73.275 292.517 75.6309 290.445 75.9133C288.373 76.1958 275.52 78.7417 275.52 78.7417H90.3294C90.3294 78.7417 76.6123 77.7112 73.4601 76.8246C70.3078 75.9381 68.6339 72.2346 68.6339 72.2346V32.4371L74.9944 28.3459Z" fill="url(#paint4_linear_0_522)"/>
</g>
<path fill-rule="evenodd" clip-rule="evenodd" d="M73 28.1736C73 25.4122 75.2386 23.1736 78 23.1736H293C295.761 23.1736 298 25.4122 298 28.1736V61.1281C298 63.8896 295.761 66.1281 293 66.1281H78C75.2386 66.1281 73 63.8896 73 61.1281V28.1736Z" fill="white"/>
<path fill-rule="evenodd" clip-rule="evenodd" d="M73 30.1736C73 27.4122 75.2386 25.1736 78 25.1736H293C295.761 25.1736 298 27.4122 298 30.1736V63.1281C298 65.8896 295.761 68.1281 293 68.1281H78C75.2386 68.1281 73 65.8896 73 63.1281V30.1736Z" fill="url(#paint5_linear_0_522)"/>
<path fill-rule="evenodd" clip-rule="evenodd" d="M110.854 36.6146C110.854 36.0623 111.302 35.6146 111.854 35.6146H154.639C155.192 35.6146 155.639 36.0623 155.639 36.6146V37.5567C155.639 38.109 155.192 38.5567 154.639 38.5567H111.854C111.302 38.5567 110.854 38.109 110.854 37.5567V36.6146Z" fill="#C8D7E9"/>
<path fill-rule="evenodd" clip-rule="evenodd" d="M158.305 36.6146C158.305 36.0623 158.753 35.6146 159.305 35.6146H166.902C167.454 35.6146 167.902 36.0623 167.902 36.6146V37.5567C167.902 38.109 167.454 38.5567 166.902 38.5567H159.305C158.753 38.5567 158.305 38.109 158.305 37.5567V36.6146Z" fill="#C8D7E9"/>
<path opacity="0.615319" fill-rule="evenodd" clip-rule="evenodd" d="M110.854 46.6917C110.854 46.2043 111.249 45.8091 111.737 45.8091H209.672C210.16 45.8091 210.555 46.2043 210.555 46.6917C210.555 47.1792 210.16 47.5743 209.672 47.5743H111.737C111.249 47.5743 110.854 47.1792 110.854 46.6917Z" fill="#C8D7E9"/>
<path opacity="0.615319" fill-rule="evenodd" clip-rule="evenodd" d="M110.854 50.2222C110.854 49.7348 111.249 49.3396 111.737 49.3396H209.672C210.16 49.3396 210.555 49.7348 210.555 50.2222C210.555 50.7097 210.16 51.1048 209.672 51.1048H111.737C111.249 51.1048 110.854 50.7097 110.854 50.2222Z" fill="#C8D7E9"/>
<path opacity="0.615319" fill-rule="evenodd" clip-rule="evenodd" d="M110.854 53.7527C110.854 53.2653 111.249 52.8701 111.737 52.8701H184.614C185.101 52.8701 185.496 53.2653 185.496 53.7527C185.496 54.2402 185.101 54.6354 184.614 54.6354H111.737C111.249 54.6354 110.854 54.2402 110.854 53.7527Z" fill="#C8D7E9"/>
<path opacity="0.615319" fill-rule="evenodd" clip-rule="evenodd" d="M110.854 57.2832C110.854 56.7958 111.249 56.4006 111.737 56.4006H165.953C166.441 56.4006 166.836 56.7958 166.836 57.2832C166.836 57.7707 166.441 58.1659 165.953 58.1659H111.737C111.249 58.1659 110.854 57.7707 110.854 57.2832Z" fill="#C8D7E9"/>
<path fill-rule="evenodd" clip-rule="evenodd" d="M263.703 42.8903C263.703 42.338 264.15 41.8903 264.703 41.8903H272.226C272.779 41.8903 273.226 42.338 273.226 42.8903V50.4555C273.226 51.0078 272.779 51.4555 272.226 51.4555H264.703C264.15 51.4555 263.703 51.0078 263.703 50.4555V42.8903Z" fill="url(#paint6_linear_0_522)"/>
<path fill-rule="evenodd" clip-rule="evenodd" d="M93.8333 53.227C97.4495 53.227 100.381 50.2828 100.381 46.6509C100.381 43.019 97.4495 40.0748 93.8333 40.0748C90.2172 40.0748 87.2857 43.019 87.2857 46.6509C87.2857 50.2828 90.2172 53.227 93.8333 53.227Z" fill="url(#paint7_linear_0_522)"/>
<g opacity="0.5">
<path fill-rule="evenodd" clip-rule="evenodd" d="M244.662 174.419C246.162 173.553 246.634 171.565 245.718 169.978C244.802 168.391 242.843 167.806 241.344 168.671C239.844 169.537 239.372 171.525 240.288 173.113C241.204 174.7 243.163 175.285 244.662 174.419Z" fill="url(#paint8_linear_0_522)"/>
<path fill-rule="evenodd" clip-rule="evenodd" d="M210.221 134.722C210.228 134.667 210.237 134.613 210.251 134.559C210.43 133.822 211.956 128.143 216.905 125.307C222.2 122.273 227.844 124.464 227.85 124.467C227.851 124.467 227.85 124.467 227.851 124.467C235.767 127.542 238.605 138.547 246.393 145.355C251.264 149.613 255.769 151.721 258.46 152.702C259.331 153.019 259.507 154.353 258.705 154.816L220.599 176.817C219.753 177.305 218.566 176.33 218.776 175.376C219.411 172.485 219.952 167.578 218.788 160.901C216.83 149.669 209.247 142.532 210.221 134.722Z" fill="url(#paint9_linear_0_522)"/>
</g>
<g opacity="0.5">
<path fill-rule="evenodd" clip-rule="evenodd" d="M121.272 174.419C122.771 175.285 124.729 174.7 125.646 173.113C126.562 171.525 126.089 169.537 124.59 168.671C123.091 167.806 121.132 168.391 120.216 169.978C119.3 171.565 119.772 173.553 121.272 174.419Z" fill="url(#paint10_linear_0_522)"/>
<path fill-rule="evenodd" clip-rule="evenodd" d="M138.43 124.744C138.481 124.722 138.532 124.703 138.585 124.688C139.314 124.475 144.995 122.957 149.925 125.824C155.2 128.893 156.124 134.877 156.126 134.883C156.126 134.884 156.126 134.884 156.126 134.884C157.421 143.277 149.309 151.237 147.307 161.385C146.055 167.734 146.483 172.689 146.978 175.51C147.139 176.422 146.072 177.242 145.27 176.779L107.164 154.779C106.318 154.29 106.569 152.775 107.5 152.479C110.321 151.583 114.841 149.599 120.041 145.252C128.79 137.941 131.179 127.805 138.43 124.744Z" fill="url(#paint11_linear_0_522)"/>
</g>
<g filter="url(#filter2_f_0_522)">
<path fill-rule="evenodd" clip-rule="evenodd" d="M189.223 131.024C193.307 132.648 195.681 135.47 195.684 135.474L195.684 135.474C199.42 139.917 199.797 146.02 200.201 152.58C200.505 157.492 200.824 162.661 202.581 167.58C205.262 175.085 208.959 179.971 211.201 182.457C211.829 183.153 211.324 184.419 210.386 184.419H155.213C154.225 184.419 153.701 182.96 154.396 182.258C156.845 179.785 160.655 175.029 163.663 167.182C165.887 161.381 166.299 155.764 166.672 150.672C167.108 144.731 167.49 139.506 170.639 135.54C170.674 135.496 170.71 135.455 170.75 135.415C171.104 135.06 173.062 133.171 176.074 131.703C176.603 128.474 179.378 126.012 182.722 126.012C185.827 126.012 188.442 128.135 189.223 131.024ZM182.887 205C185.014 205 186.739 203.257 186.739 201.106C186.739 198.956 185.014 197.212 182.887 197.212C180.76 197.212 179.036 198.956 179.036 201.106C179.036 203.257 180.76 205 182.887 205Z" fill="url(#paint12_linear_0_522)"/>
</g>
<path fill-rule="evenodd" clip-rule="evenodd" d="M182.887 205C185.014 205 186.739 203.257 186.739 201.106C186.739 198.956 185.014 197.212 182.887 197.212C180.76 197.212 179.036 198.956 179.036 201.106C179.036 203.257 180.76 205 182.887 205Z" fill="url(#paint13_linear_0_522)"/>
<path fill-rule="evenodd" clip-rule="evenodd" d="M182.722 139.641C186.444 139.641 189.462 136.59 189.462 132.827C189.462 129.063 186.444 126.012 182.722 126.012C179 126.012 175.982 129.063 175.982 132.827C175.982 136.59 179 139.641 182.722 139.641Z" fill="url(#paint14_linear_0_522)"/>
<path fill-rule="evenodd" clip-rule="evenodd" d="M170.639 135.54C170.674 135.496 170.71 135.455 170.75 135.415C171.346 134.817 176.476 129.885 183.523 129.906C191.021 129.93 195.679 135.469 195.684 135.474C195.684 135.474 195.684 135.474 195.684 135.474C202.217 143.244 198.477 156.092 202.581 167.58C205.262 175.085 208.959 179.971 211.201 182.457C211.829 183.153 211.324 184.419 210.386 184.419H155.213C154.225 184.419 153.701 182.96 154.396 182.258C156.845 179.785 160.655 175.029 163.663 167.182C168.483 154.613 164.792 142.905 170.639 135.54Z" fill="url(#paint15_linear_0_522)"/>
<g opacity="0.2">
<path opacity="0.2" fill-rule="evenodd" clip-rule="evenodd" d="M107.447 172.155C108.369 171.907 108.919 170.969 108.675 170.059C108.432 169.149 107.486 168.612 106.564 168.859C105.642 169.106 105.092 170.044 105.336 170.954C105.58 171.864 106.525 172.402 107.447 172.155Z" fill="white"/>
<path fill-rule="evenodd" clip-rule="evenodd" d="M107.3 171.605C107.915 171.441 108.281 170.815 108.119 170.209C107.956 169.602 107.326 169.244 106.711 169.408C106.097 169.573 105.73 170.198 105.893 170.805C106.055 171.412 106.685 171.77 107.3 171.605Z" fill="white"/>
</g>
<g opacity="0.3">
<path opacity="0.2" fill-rule="evenodd" clip-rule="evenodd" d="M114.664 179.051C115.586 178.804 116.136 177.866 115.892 176.956C115.648 176.046 114.703 175.508 113.781 175.756C112.858 176.003 112.309 176.941 112.552 177.851C112.796 178.761 113.741 179.298 114.664 179.051Z" fill="white"/>
<path fill-rule="evenodd" clip-rule="evenodd" d="M114.516 178.502C115.131 178.337 115.498 177.712 115.335 177.105C115.173 176.498 114.542 176.14 113.928 176.305C113.313 176.469 112.946 177.095 113.109 177.701C113.272 178.308 113.902 178.666 114.516 178.502Z" fill="white"/>
</g>
<g opacity="0.4">
<path opacity="0.2" fill-rule="evenodd" clip-rule="evenodd" d="M121.995 184.151C122.917 183.903 123.467 182.965 123.223 182.055C122.979 181.145 122.034 180.608 121.112 180.855C120.19 181.102 119.64 182.04 119.884 182.95C120.128 183.86 121.073 184.398 121.995 184.151Z" fill="white"/>
<path fill-rule="evenodd" clip-rule="evenodd" d="M121.848 183.601C122.463 183.437 122.829 182.811 122.667 182.205C122.504 181.598 121.874 181.24 121.259 181.404C120.644 181.569 120.278 182.194 120.44 182.801C120.603 183.408 121.233 183.766 121.848 183.601Z" fill="white"/>
</g>
<g opacity="0.5">
<path opacity="0.2" fill-rule="evenodd" clip-rule="evenodd" d="M129.474 189.799C130.396 189.552 130.945 188.614 130.702 187.704C130.458 186.794 129.513 186.257 128.591 186.504C127.668 186.751 127.119 187.689 127.362 188.599C127.606 189.509 128.551 190.046 129.474 189.799Z" fill="white"/>
<path fill-rule="evenodd" clip-rule="evenodd" d="M129.326 189.25C129.941 189.085 130.308 188.46 130.145 187.853C129.983 187.247 129.352 186.888 128.738 187.053C128.123 187.218 127.756 187.843 127.919 188.45C128.081 189.057 128.712 189.415 129.326 189.25Z" fill="white"/>
</g>
<g opacity="0.6">
<path opacity="0.2" fill-rule="evenodd" clip-rule="evenodd" d="M138.737 193.204C139.659 192.957 140.209 192.019 139.965 191.109C139.721 190.199 138.776 189.661 137.854 189.909C136.932 190.156 136.382 191.094 136.626 192.004C136.869 192.914 137.815 193.451 138.737 193.204Z" fill="white"/>
<path fill-rule="evenodd" clip-rule="evenodd" d="M138.59 192.655C139.204 192.49 139.571 191.865 139.408 191.258C139.246 190.651 138.616 190.293 138.001 190.458C137.386 190.622 137.02 191.248 137.182 191.854C137.345 192.461 137.975 192.819 138.59 192.655Z" fill="white"/>
</g>
<g opacity="0.7">
<path opacity="0.2" fill-rule="evenodd" clip-rule="evenodd" d="M148 196.609C148.922 196.361 149.472 195.423 149.228 194.513C148.984 193.603 148.039 193.066 147.117 193.313C146.195 193.56 145.645 194.498 145.889 195.408C146.133 196.318 147.078 196.856 148 196.609Z" fill="white"/>
<path fill-rule="evenodd" clip-rule="evenodd" d="M147.853 196.059C148.467 195.895 148.834 195.269 148.671 194.663C148.509 194.056 147.879 193.698 147.264 193.862C146.649 194.027 146.283 194.652 146.445 195.259C146.608 195.866 147.238 196.224 147.853 196.059Z" fill="white"/>
</g>
<g opacity="0.9">
<path opacity="0.2" fill-rule="evenodd" clip-rule="evenodd" d="M158.082 198.616C159.004 198.369 159.554 197.431 159.31 196.521C159.066 195.611 158.121 195.074 157.199 195.321C156.277 195.568 155.727 196.506 155.971 197.416C156.215 198.326 157.16 198.864 158.082 198.616Z" fill="white"/>
<path fill-rule="evenodd" clip-rule="evenodd" d="M157.935 198.067C158.549 197.902 158.916 197.277 158.753 196.67C158.591 196.064 157.961 195.706 157.346 195.87C156.731 196.035 156.365 196.66 156.527 197.267C156.69 197.874 157.32 198.232 157.935 198.067Z" fill="white"/>
</g>
<g opacity="0.9">
<path opacity="0.2" fill-rule="evenodd" clip-rule="evenodd" d="M167.607 200.773C168.529 200.526 169.079 199.588 168.835 198.678C168.592 197.768 167.646 197.231 166.724 197.478C165.802 197.725 165.252 198.663 165.496 199.573C165.74 200.483 166.685 201.021 167.607 200.773Z" fill="white"/>
<path fill-rule="evenodd" clip-rule="evenodd" d="M167.46 200.224C168.075 200.06 168.441 199.434 168.279 198.828C168.116 198.221 167.486 197.863 166.871 198.027C166.257 198.192 165.89 198.817 166.053 199.424C166.215 200.031 166.845 200.389 167.46 200.224Z" fill="white"/>
</g>
<g opacity="0.2">
<path opacity="0.2" fill-rule="evenodd" clip-rule="evenodd" d="M256.813 171.969C255.883 171.755 255.301 170.836 255.513 169.919C255.725 169.001 256.651 168.43 257.581 168.645C258.511 168.86 259.093 169.778 258.881 170.696C258.669 171.614 257.744 172.184 256.813 171.969Z" fill="white"/>
<path fill-rule="evenodd" clip-rule="evenodd" d="M256.941 171.415C256.321 171.272 255.933 170.66 256.074 170.048C256.216 169.436 256.833 169.056 257.453 169.199C258.073 169.342 258.461 169.955 258.32 170.567C258.179 171.179 257.561 171.559 256.941 171.415Z" fill="white"/>
</g>
<g opacity="0.3">
<path opacity="0.2" fill-rule="evenodd" clip-rule="evenodd" d="M249.842 179.113C248.912 178.899 248.33 177.981 248.542 177.063C248.754 176.145 249.679 175.575 250.61 175.789C251.54 176.004 252.122 176.922 251.91 177.84C251.698 178.758 250.772 179.328 249.842 179.113Z" fill="white"/>
<path fill-rule="evenodd" clip-rule="evenodd" d="M249.97 178.559C249.35 178.416 248.962 177.804 249.103 177.192C249.244 176.58 249.862 176.2 250.482 176.343C251.102 176.486 251.49 177.099 251.349 177.711C251.207 178.323 250.59 178.703 249.97 178.559Z" fill="white"/>
</g>
<g opacity="0.4">
<path opacity="0.2" fill-rule="evenodd" clip-rule="evenodd" d="M242.693 184.466C241.763 184.251 241.181 183.333 241.393 182.415C241.605 181.497 242.53 180.927 243.461 181.142C244.391 181.356 244.973 182.275 244.761 183.193C244.549 184.111 243.623 184.681 242.693 184.466Z" fill="white"/>
<path fill-rule="evenodd" clip-rule="evenodd" d="M242.821 183.912C242.201 183.769 241.813 183.156 241.954 182.544C242.095 181.933 242.713 181.552 243.333 181.696C243.953 181.839 244.341 182.451 244.2 183.063C244.058 183.675 243.441 184.055 242.821 183.912Z" fill="white"/>
</g>
<g opacity="0.5">
<path opacity="0.2" fill-rule="evenodd" clip-rule="evenodd" d="M235.416 190.372C234.486 190.157 233.904 189.239 234.116 188.321C234.328 187.403 235.254 186.833 236.184 187.048C237.114 187.263 237.696 188.181 237.484 189.099C237.272 190.017 236.346 190.587 235.416 190.372Z" fill="white"/>
<path fill-rule="evenodd" clip-rule="evenodd" d="M235.544 189.818C234.924 189.675 234.536 189.063 234.677 188.451C234.819 187.839 235.436 187.459 236.056 187.602C236.676 187.745 237.064 188.357 236.923 188.969C236.782 189.581 236.164 189.961 235.544 189.818Z" fill="white"/>
</g>
<g opacity="0.6">
<path opacity="0.2" fill-rule="evenodd" clip-rule="evenodd" d="M226.278 194.098C225.347 193.883 224.765 192.965 224.977 192.047C225.189 191.129 226.115 190.559 227.045 190.774C227.975 190.989 228.557 191.907 228.346 192.825C228.134 193.743 227.208 194.313 226.278 194.098Z" fill="white"/>
<path fill-rule="evenodd" clip-rule="evenodd" d="M226.406 193.544C225.785 193.401 225.397 192.789 225.539 192.177C225.68 191.565 226.297 191.185 226.917 191.328C227.537 191.471 227.925 192.083 227.784 192.695C227.643 193.307 227.026 193.687 226.406 193.544Z" fill="white"/>
</g>
<g opacity="0.7">
<path opacity="0.2" fill-rule="evenodd" clip-rule="evenodd" d="M217.139 197.824C216.209 197.609 215.626 196.691 215.838 195.773C216.05 194.855 216.976 194.285 217.906 194.5C218.836 194.714 219.419 195.633 219.207 196.551C218.995 197.468 218.069 198.039 217.139 197.824Z" fill="white"/>
<path fill-rule="evenodd" clip-rule="evenodd" d="M217.267 197.27C216.647 197.127 216.258 196.514 216.4 195.902C216.541 195.291 217.158 194.91 217.778 195.054C218.399 195.197 218.787 195.809 218.645 196.421C218.504 197.033 217.887 197.413 217.267 197.27Z" fill="white"/>
</g>
<g opacity="0.9">
<path opacity="0.2" fill-rule="evenodd" clip-rule="evenodd" d="M207.133 200.182C206.203 199.968 205.621 199.049 205.833 198.131C206.045 197.213 206.97 196.643 207.901 196.858C208.831 197.073 209.413 197.991 209.201 198.909C208.989 199.827 208.063 200.397 207.133 200.182Z" fill="white"/>
<path fill-rule="evenodd" clip-rule="evenodd" d="M207.261 199.628C206.641 199.485 206.253 198.873 206.394 198.261C206.535 197.649 207.153 197.269 207.773 197.412C208.393 197.555 208.781 198.167 208.64 198.779C208.498 199.391 207.881 199.771 207.261 199.628Z" fill="white"/>
</g>
<g opacity="0.9">
<path opacity="0.2" fill-rule="evenodd" clip-rule="evenodd" d="M197.689 202.67C196.759 202.456 196.176 201.538 196.388 200.62C196.6 199.702 197.526 199.132 198.456 199.346C199.386 199.561 199.969 200.479 199.757 201.397C199.545 202.315 198.619 202.885 197.689 202.67Z" fill="white"/>
<path fill-rule="evenodd" clip-rule="evenodd" d="M197.817 202.116C197.197 201.973 196.808 201.361 196.95 200.749C197.091 200.137 197.708 199.757 198.328 199.9C198.948 200.043 199.337 200.656 199.195 201.268C199.054 201.88 198.437 202.26 197.817 202.116Z" fill="white"/>
</g>
<defs>
<filter id="filter0_f_0_522" x="61.3489" y="24.3665" width="243.04" height="105.558" filterUnits="userSpaceOnUse" color-interpolation-filters="sRGB">
<feFlood flood-opacity="0" result="BackgroundImageFix"/>
<feBlend mode="normal" in="SourceGraphic" in2="BackgroundImageFix" result="shape"/>
<feGaussianBlur stdDeviation="13.5914" result="effect1_foregroundBlur_0_522"/>
</filter>
<filter id="filter1_f_0_522" x="41.4511" y="0.366507" width="283.832" height="105.558" filterUnits="userSpaceOnUse" color-interpolation-filters="sRGB">
<feFlood flood-opacity="0" result="BackgroundImageFix"/>
<feBlend mode="normal" in="SourceGraphic" in2="BackgroundImageFix" result="shape"/>
<feGaussianBlur stdDeviation="13.5914" result="effect1_foregroundBlur_0_522"/>
</filter>
<filter id="filter2_f_0_522" x="126.896" y="98.8297" width="111.766" height="133.353" filterUnits="userSpaceOnUse" color-interpolation-filters="sRGB">
<feFlood flood-opacity="0" result="BackgroundImageFix"/>
<feBlend mode="normal" in="SourceGraphic" in2="BackgroundImageFix" result="shape"/>
<feGaussianBlur stdDeviation="13.5914" result="effect1_foregroundBlur_0_522"/>
</filter>
<linearGradient id="paint0_linear_0_522" x1="87.3535" y1="53.5602" x2="87.3535" y2="105.392" gradientUnits="userSpaceOnUse">
<stop stop-color="#480067" stop-opacity="0.222883"/>
<stop offset="0.826943" stop-color="#5A0065" stop-opacity="0.222883"/>
<stop offset="1" stop-color="#5F006C" stop-opacity="0.0996377"/>
</linearGradient>
<linearGradient id="paint1_linear_0_522" x1="100.163" y1="64.7227" x2="100.163" y2="74.458" gradientUnits="userSpaceOnUse">
<stop stop-color="#FFC5B1"/>
<stop offset="1" stop-color="#FF5782"/>
</linearGradient>
<linearGradient id="paint2_linear_0_522" x1="269.042" y1="74.6105" x2="269.042" y2="67.4366" gradientUnits="userSpaceOnUse">
<stop stop-color="#737BFF"/>
<stop offset="1" stop-color="#00B2F4"/>
</linearGradient>
<linearGradient id="paint3_linear_0_522" x1="111.721" y1="62.4435" x2="111.721" y2="65.8795" gradientUnits="userSpaceOnUse">
<stop stop-color="#FFC5B1"/>
<stop offset="1" stop-color="#FF5782"/>
</linearGradient>
<linearGradient id="paint4_linear_0_522" x1="67.201" y1="29.5602" x2="67.201" y2="81.392" gradientUnits="userSpaceOnUse">
<stop stop-color="#480067" stop-opacity="0.222883"/>
<stop offset="0.826943" stop-color="#5A0065" stop-opacity="0.222883"/>
<stop offset="1" stop-color="#5F006C" stop-opacity="0.0996377"/>
</linearGradient>
<linearGradient id="paint5_linear_0_522" x1="381.684" y1="67.1874" x2="381.684" y2="22.0742" gradientUnits="userSpaceOnUse">
<stop stop-color="white"/>
<stop offset="1" stop-color="#EBF2FA"/>
</linearGradient>
<linearGradient id="paint6_linear_0_522" x1="273.226" y1="51.4555" x2="273.226" y2="41.8903" gradientUnits="userSpaceOnUse">
<stop stop-color="#737BFF"/>
<stop offset="1" stop-color="#00B2F4"/>
</linearGradient>
<linearGradient id="paint7_linear_0_522" x1="86.4686" y1="38.9792" x2="86.4686" y2="51.5778" gradientUnits="userSpaceOnUse">
<stop stop-color="#FFC5B1"/>
<stop offset="1" stop-color="#FF5782"/>
</linearGradient>
<linearGradient id="paint8_linear_0_522" x1="238.629" y1="170.239" x2="241.947" y2="175.986" gradientUnits="userSpaceOnUse">
<stop stop-color="#00E2C8"/>
<stop offset="1" stop-color="#327FF6"/>
</linearGradient>
<linearGradient id="paint9_linear_0_522" x1="261.511" y1="151.629" x2="235.946" y2="112.744" gradientUnits="userSpaceOnUse">
<stop stop-color="#00E2C8"/>
<stop offset="1" stop-color="#327FF6" stop-opacity="0.01"/>
</linearGradient>
<linearGradient id="paint10_linear_0_522" x1="121.875" y1="167.104" x2="118.557" y2="172.851" gradientUnits="userSpaceOnUse">
<stop stop-color="#00E2C8"/>
<stop offset="1" stop-color="#327FF6"/>
</linearGradient>
<linearGradient id="paint11_linear_0_522" x1="149.433" y1="177.615" x2="170.326" y2="136.033" gradientUnits="userSpaceOnUse">
<stop stop-color="#00E2C8"/>
<stop offset="1" stop-color="#327FF6" stop-opacity="0.01"/>
</linearGradient>
<linearGradient id="paint12_linear_0_522" x1="153.454" y1="129.115" x2="153.454" y2="209.089" gradientUnits="userSpaceOnUse">
<stop stop-color="#480067" stop-opacity="0.222883"/>
<stop offset="0.826943" stop-color="#5A0065" stop-opacity="0.222883"/>
<stop offset="1" stop-color="#5F006C" stop-opacity="0.0996377"/>
</linearGradient>
<linearGradient id="paint13_linear_0_522" x1="177.69" y1="197.212" x2="177.69" y2="207.723" gradientUnits="userSpaceOnUse">
<stop stop-color="#00E2C8"/>
<stop offset="1" stop-color="#327FF6"/>
</linearGradient>
<linearGradient id="paint14_linear_0_522" x1="173.626" y1="126.012" x2="173.626" y2="144.406" gradientUnits="userSpaceOnUse">
<stop stop-color="#00E2C8"/>
<stop offset="1" stop-color="#327FF6"/>
</linearGradient>
<linearGradient id="paint15_linear_0_522" x1="143.946" y1="129.906" x2="143.946" y2="203.48" gradientUnits="userSpaceOnUse">
<stop stop-color="#00E2C8"/>
<stop offset="1" stop-color="#327FF6"/>
</linearGradient>
</defs>
</svg>
