<svg width="210" height="279" viewBox="0 0 210 279" fill="none" xmlns="http://www.w3.org/2000/svg">
<path fill-rule="evenodd" clip-rule="evenodd" d="M9.34467 17.6133C9.34467 12.0904 13.8218 7.61328 19.3447 7.61328H194.454C199.977 7.61328 204.454 12.0904 204.454 17.6133V77.6133C204.454 83.1361 199.977 87.6133 194.454 87.6133H19.3447C13.8218 87.6133 9.34467 83.1361 9.34467 77.6133V17.6133Z" fill="url(#paint0_linear_0_389)"/>
<path fill-rule="evenodd" clip-rule="evenodd" d="M9.34467 19.6133C9.34467 14.0904 13.8218 9.61328 19.3447 9.61328H194.454C199.977 9.61328 204.454 14.0904 204.454 19.6133V214.486C204.454 220.009 199.977 224.486 194.454 224.486H19.3447C13.8218 224.486 9.34467 220.009 9.34467 214.486V19.6133Z" fill="url(#paint1_linear_0_389)"/>
<g filter="url(#filter0_f_0_389)">
<path fill-rule="evenodd" clip-rule="evenodd" d="M31.6834 28.4898L40.8246 27.9296H172.7L179.006 29.1582L181.433 31.3675L182.562 60.0918C182.562 60.0918 178.787 61.7488 177.385 61.9474C175.984 62.1461 167.292 63.9368 167.292 63.9368H42.0539C42.0539 63.9368 32.7776 63.212 30.6458 62.5884C28.514 61.9649 27.382 59.3599 27.382 59.3599V31.3675L31.6834 28.4898Z" fill="url(#paint2_linear_0_389)"/>
</g>
<path fill-rule="evenodd" clip-rule="evenodd" d="M27.0054 31.274C27.0054 28.5126 29.244 26.274 32.0054 26.274H180.952C183.714 26.274 185.952 28.5126 185.952 31.274V51.487C185.952 54.2485 183.714 56.487 180.952 56.487H32.0054C29.244 56.487 27.0054 54.2485 27.0054 51.487V31.274Z" fill="white"/>
<path fill-rule="evenodd" clip-rule="evenodd" d="M27.0054 32.274C27.0054 29.5126 29.244 27.274 32.0054 27.274H180.952C183.714 27.274 185.952 29.5126 185.952 32.274V52.487C185.952 55.2485 183.714 57.487 180.952 57.487H32.0054C29.244 57.487 27.0054 55.2485 27.0054 52.487V32.274Z" fill="url(#paint3_linear_0_389)"/>
<path fill-rule="evenodd" clip-rule="evenodd" d="M39.6202 37.684C39.6202 36.5794 40.5157 35.684 41.6202 35.684H50.3402C51.4448 35.684 52.3402 36.5794 52.3402 37.684V47.1398C52.3402 48.2443 51.4448 49.1398 50.3402 49.1398H41.6202C40.5157 49.1398 39.6202 48.2443 39.6202 47.1398V37.684Z" fill="url(#paint4_linear_0_389)"/>
<path fill-rule="evenodd" clip-rule="evenodd" d="M54.175 35.6371C55.1039 35.6371 55.857 34.8841 55.857 33.9552C55.857 33.0262 55.1039 32.2732 54.175 32.2732C53.2461 32.2732 52.493 33.0262 52.493 33.9552C52.493 34.8841 53.2461 35.6371 54.175 35.6371Z" fill="url(#paint5_linear_0_389)"/>
<path fill-rule="evenodd" clip-rule="evenodd" d="M160.882 40.0166C160.882 39.4643 161.33 39.0166 161.882 39.0166H166.61C167.163 39.0166 167.61 39.4643 167.61 40.0166V44.7445C167.61 45.2968 167.163 45.7445 166.61 45.7445H161.882C161.33 45.7445 160.882 45.2968 160.882 44.7445V40.0166Z" fill="url(#paint6_linear_0_389)"/>
<path fill-rule="evenodd" clip-rule="evenodd" d="M69.7256 35.6025C69.7256 35.0502 70.1733 34.6025 70.7256 34.6025H100.363C100.915 34.6025 101.363 35.0502 101.363 35.6025V35.6719C101.363 36.2241 100.915 36.6719 100.363 36.6719H70.7256C70.1733 36.6719 69.7256 36.2241 69.7256 35.6719V35.6025Z" fill="#C8D7E9"/>
<path fill-rule="evenodd" clip-rule="evenodd" d="M103.246 35.6025C103.246 35.0502 103.694 34.6025 104.246 34.6025H104.769C105.322 34.6025 105.769 35.0502 105.769 35.6025V36.1254C105.769 36.6777 105.322 37.1254 104.769 37.1254H104.246C103.694 37.1254 103.246 36.6777 103.246 36.1254V35.6025Z" fill="#C8D7E9"/>
<path opacity="0.615319" fill-rule="evenodd" clip-rule="evenodd" d="M69.7256 42.3938C69.7256 42.051 70.0035 41.773 70.3464 41.773H139.536C139.879 41.773 140.157 42.051 140.157 42.3938C140.157 42.7367 139.879 43.0146 139.536 43.0146H70.3464C70.0035 43.0146 69.7256 42.7367 69.7256 42.3938Z" fill="#C8D7E9"/>
<path opacity="0.615319" fill-rule="evenodd" clip-rule="evenodd" d="M69.7256 44.877C69.7256 44.5342 70.0035 44.2562 70.3464 44.2562H139.536C139.879 44.2562 140.157 44.5342 140.157 44.877C140.157 45.2199 139.879 45.4979 139.536 45.4979H70.3464C70.0035 45.4979 69.7256 45.2199 69.7256 44.877Z" fill="#C8D7E9"/>
<path opacity="0.615319" fill-rule="evenodd" clip-rule="evenodd" d="M69.7256 47.3603C69.7256 47.0175 70.0035 46.7395 70.3464 46.7395H121.834C122.177 46.7395 122.455 47.0175 122.455 47.3603C122.455 47.7032 122.177 47.9811 121.834 47.9811H70.3464C70.0035 47.9811 69.7256 47.7032 69.7256 47.3603Z" fill="#C8D7E9"/>
<path opacity="0.615319" fill-rule="evenodd" clip-rule="evenodd" d="M69.7256 49.8436C69.7256 49.5007 70.0035 49.2228 70.3464 49.2228H108.652C108.995 49.2228 109.273 49.5007 109.273 49.8436C109.273 50.1865 108.995 50.4644 108.652 50.4644H70.3464C70.0035 50.4644 69.7256 50.1865 69.7256 49.8436Z" fill="#C8D7E9"/>
<g filter="url(#filter1_f_0_389)">
<path fill-rule="evenodd" clip-rule="evenodd" d="M31.6834 80.6311L40.8246 80.0708H172.7L179.006 81.2994L181.433 83.5087L182.562 112.233C182.562 112.233 178.787 113.89 177.385 114.089C175.984 114.287 167.292 116.078 167.292 116.078H42.0539C42.0539 116.078 32.7776 115.353 30.6458 114.73C28.514 114.106 27.382 111.501 27.382 111.501V83.5087L31.6834 80.6311Z" fill="url(#paint7_linear_0_389)"/>
</g>
<path fill-rule="evenodd" clip-rule="evenodd" d="M27.0054 83.4153C27.0054 80.6539 29.244 78.4153 32.0054 78.4153H180.952C183.714 78.4153 185.952 80.6539 185.952 83.4153V103.628C185.952 106.39 183.714 108.628 180.952 108.628H32.0054C29.244 108.628 27.0054 106.39 27.0054 103.628V83.4153Z" fill="white"/>
<path fill-rule="evenodd" clip-rule="evenodd" d="M27.0054 84.4153C27.0054 81.6539 29.244 79.4153 32.0054 79.4153H180.952C183.714 79.4153 185.952 81.6539 185.952 84.4153V104.628C185.952 107.39 183.714 109.628 180.952 109.628H32.0054C29.244 109.628 27.0054 107.39 27.0054 104.628V84.4153Z" fill="url(#paint8_linear_0_389)"/>
<path fill-rule="evenodd" clip-rule="evenodd" d="M39.6202 89.8252C39.6202 88.7206 40.5157 87.8252 41.6202 87.8252H50.3402C51.4448 87.8252 52.3402 88.7206 52.3402 89.8252V99.281C52.3402 100.386 51.4448 101.281 50.3402 101.281H41.6202C40.5157 101.281 39.6202 100.386 39.6202 99.281V89.8252Z" fill="url(#paint9_linear_0_389)"/>
<path fill-rule="evenodd" clip-rule="evenodd" d="M54.175 87.7784C55.1039 87.7784 55.857 87.0253 55.857 86.0964C55.857 85.1675 55.1039 84.4144 54.175 84.4144C53.2461 84.4144 52.493 85.1675 52.493 86.0964C52.493 87.0253 53.2461 87.7784 54.175 87.7784Z" fill="url(#paint10_linear_0_389)"/>
<path fill-rule="evenodd" clip-rule="evenodd" d="M160.882 92.1578C160.882 91.6056 161.33 91.1578 161.882 91.1578H166.61C167.163 91.1578 167.61 91.6056 167.61 92.1578V96.8857C167.61 97.438 167.163 97.8857 166.61 97.8857H161.882C161.33 97.8857 160.882 97.438 160.882 96.8857V92.1578Z" fill="url(#paint11_linear_0_389)"/>
<path fill-rule="evenodd" clip-rule="evenodd" d="M69.7256 87.7437C69.7256 87.1914 70.1733 86.7437 70.7256 86.7437H100.363C100.915 86.7437 101.363 87.1914 101.363 87.7437V87.8131C101.363 88.3654 100.915 88.8131 100.363 88.8131H70.7256C70.1733 88.8131 69.7256 88.3654 69.7256 87.8131V87.7437Z" fill="#C8D7E9"/>
<path fill-rule="evenodd" clip-rule="evenodd" d="M103.246 87.7437C103.246 87.1914 103.694 86.7437 104.246 86.7437H104.769C105.322 86.7437 105.769 87.1914 105.769 87.7437V88.2667C105.769 88.819 105.322 89.2667 104.769 89.2667H104.246C103.694 89.2667 103.246 88.819 103.246 88.2667V87.7437Z" fill="#C8D7E9"/>
<path opacity="0.615319" fill-rule="evenodd" clip-rule="evenodd" d="M69.7256 94.5351C69.7256 94.1922 70.0035 93.9142 70.3464 93.9142H139.536C139.879 93.9142 140.157 94.1922 140.157 94.5351C140.157 94.8779 139.879 95.1559 139.536 95.1559H70.3464C70.0035 95.1559 69.7256 94.8779 69.7256 94.5351Z" fill="#C8D7E9"/>
<path opacity="0.615319" fill-rule="evenodd" clip-rule="evenodd" d="M69.7256 97.0183C69.7256 96.6754 70.0035 96.3975 70.3464 96.3975H139.536C139.879 96.3975 140.157 96.6754 140.157 97.0183C140.157 97.3611 139.879 97.6391 139.536 97.6391H70.3464C70.0035 97.6391 69.7256 97.3611 69.7256 97.0183Z" fill="#C8D7E9"/>
<path opacity="0.615319" fill-rule="evenodd" clip-rule="evenodd" d="M69.7256 99.5016C69.7256 99.1587 70.0035 98.8807 70.3464 98.8807H121.834C122.177 98.8807 122.455 99.1587 122.455 99.5016C122.455 99.8444 122.177 100.122 121.834 100.122H70.3464C70.0035 100.122 69.7256 99.8444 69.7256 99.5016Z" fill="#C8D7E9"/>
<path opacity="0.615319" fill-rule="evenodd" clip-rule="evenodd" d="M69.7256 101.985C69.7256 101.642 70.0035 101.364 70.3464 101.364H108.652C108.995 101.364 109.273 101.642 109.273 101.985C109.273 102.328 108.995 102.606 108.652 102.606H70.3464C70.0035 102.606 69.7256 102.328 69.7256 101.985Z" fill="#C8D7E9"/>
<g filter="url(#filter2_f_0_389)">
<path fill-rule="evenodd" clip-rule="evenodd" d="M31.6834 132.772L40.8246 132.212H172.7L179.006 133.441L181.433 135.65L182.562 164.374C182.562 164.374 178.787 166.031 177.385 166.23C175.984 166.429 167.292 168.219 167.292 168.219H42.0539C42.0539 168.219 32.7776 167.494 30.6458 166.871C28.514 166.247 27.382 163.642 27.382 163.642V135.65L31.6834 132.772Z" fill="url(#paint12_linear_0_389)"/>
</g>
<path fill-rule="evenodd" clip-rule="evenodd" d="M27.0054 135.557C27.0054 132.795 29.244 130.557 32.0054 130.557H180.952C183.714 130.557 185.952 132.795 185.952 135.557V155.77C185.952 158.531 183.714 160.77 180.952 160.77H32.0054C29.244 160.77 27.0054 158.531 27.0054 155.77V135.557Z" fill="white"/>
<path fill-rule="evenodd" clip-rule="evenodd" d="M27.0054 136.557C27.0054 133.795 29.244 131.557 32.0054 131.557H180.952C183.714 131.557 185.952 133.795 185.952 136.557V156.77C185.952 159.531 183.714 161.77 180.952 161.77H32.0054C29.244 161.77 27.0054 159.531 27.0054 156.77V136.557Z" fill="url(#paint13_linear_0_389)"/>
<path fill-rule="evenodd" clip-rule="evenodd" d="M39.6202 141.966C39.6202 140.862 40.5157 139.966 41.6202 139.966H50.3402C51.4448 139.966 52.3402 140.862 52.3402 141.966V151.422C52.3402 152.527 51.4448 153.422 50.3402 153.422H41.6202C40.5157 153.422 39.6202 152.527 39.6202 151.422V141.966Z" fill="url(#paint14_linear_0_389)"/>
<path fill-rule="evenodd" clip-rule="evenodd" d="M54.175 139.92C55.1039 139.92 55.857 139.167 55.857 138.238C55.857 137.309 55.1039 136.556 54.175 136.556C53.2461 136.556 52.493 137.309 52.493 138.238C52.493 139.167 53.2461 139.92 54.175 139.92Z" fill="url(#paint15_linear_0_389)"/>
<path fill-rule="evenodd" clip-rule="evenodd" d="M160.882 144.299C160.882 143.747 161.33 143.299 161.882 143.299H166.61C167.163 143.299 167.61 143.747 167.61 144.299V149.027C167.61 149.579 167.163 150.027 166.61 150.027H161.882C161.33 150.027 160.882 149.579 160.882 149.027V144.299Z" fill="url(#paint16_linear_0_389)"/>
<path fill-rule="evenodd" clip-rule="evenodd" d="M69.7256 139.885C69.7256 139.333 70.1733 138.885 70.7256 138.885H100.363C100.915 138.885 101.363 139.333 101.363 139.885V139.954C101.363 140.507 100.915 140.954 100.363 140.954H70.7256C70.1733 140.954 69.7256 140.507 69.7256 139.954V139.885Z" fill="#C8D7E9"/>
<path fill-rule="evenodd" clip-rule="evenodd" d="M103.246 139.885C103.246 139.333 103.694 138.885 104.246 138.885H104.769C105.322 138.885 105.769 139.333 105.769 139.885V140.408C105.769 140.96 105.322 141.408 104.769 141.408H104.246C103.694 141.408 103.246 140.96 103.246 140.408V139.885Z" fill="#C8D7E9"/>
<path opacity="0.615319" fill-rule="evenodd" clip-rule="evenodd" d="M69.7256 146.676C69.7256 146.333 70.0035 146.055 70.3464 146.055H139.536C139.879 146.055 140.157 146.333 140.157 146.676C140.157 147.019 139.879 147.297 139.536 147.297H70.3464C70.0035 147.297 69.7256 147.019 69.7256 146.676Z" fill="#C8D7E9"/>
<path opacity="0.615319" fill-rule="evenodd" clip-rule="evenodd" d="M69.7256 149.16C69.7256 148.817 70.0035 148.539 70.3464 148.539H139.536C139.879 148.539 140.157 148.817 140.157 149.16C140.157 149.502 139.879 149.78 139.536 149.78H70.3464C70.0035 149.78 69.7256 149.502 69.7256 149.16Z" fill="#C8D7E9"/>
<path opacity="0.615319" fill-rule="evenodd" clip-rule="evenodd" d="M69.7256 151.643C69.7256 151.3 70.0035 151.022 70.3464 151.022H121.834C122.177 151.022 122.455 151.3 122.455 151.643C122.455 151.986 122.177 152.264 121.834 152.264H70.3464C70.0035 152.264 69.7256 151.986 69.7256 151.643Z" fill="#C8D7E9"/>
<path opacity="0.615319" fill-rule="evenodd" clip-rule="evenodd" d="M69.7256 154.126C69.7256 153.783 70.0035 153.505 70.3464 153.505H108.652C108.995 153.505 109.273 153.783 109.273 154.126C109.273 154.469 108.995 154.747 108.652 154.747H70.3464C70.0035 154.747 69.7256 154.469 69.7256 154.126Z" fill="#C8D7E9"/>
<g opacity="0.522135" filter="url(#filter3_f_0_389)">
<path fill-rule="evenodd" clip-rule="evenodd" d="M83.5955 206.332L85.9011 205.624H125.526L127.117 207.177L127.729 209.969L128.014 246.268C128.014 246.268 127.061 248.362 126.708 248.613C126.354 248.865 124.162 251.127 124.162 251.127H86.2112C86.2112 251.127 83.8715 250.211 83.3338 249.423C82.7961 248.635 82.5106 245.344 82.5106 245.344V209.969L83.5955 206.332Z" fill="url(#paint17_linear_0_389)"/>
</g>
<g filter="url(#filter4_f_0_389)">
<path fill-rule="evenodd" clip-rule="evenodd" d="M106.479 251.818C121.574 251.818 133.811 239.581 133.811 224.486C133.811 209.391 121.574 197.154 106.479 197.154C91.3837 197.154 79.1467 209.391 79.1467 224.486C79.1467 239.581 91.3837 251.818 106.479 251.818Z" fill="url(#paint18_linear_0_389)"/>
</g>
<path opacity="0.309726" fill-rule="evenodd" clip-rule="evenodd" d="M106.479 251.818C121.574 251.818 133.811 239.581 133.811 224.486C133.811 209.391 121.574 197.154 106.479 197.154C91.3837 197.154 79.1467 209.391 79.1467 224.486C79.1467 239.581 91.3837 251.818 106.479 251.818Z" fill="white"/>
<path fill-rule="evenodd" clip-rule="evenodd" d="M106.479 247.237C119.044 247.237 129.23 237.051 129.23 224.486C129.23 211.92 119.044 201.734 106.479 201.734C93.9135 201.734 83.7273 211.92 83.7273 224.486C83.7273 237.051 93.9135 247.237 106.479 247.237Z" fill="white"/>
<g opacity="0.6">
<path opacity="0.2" fill-rule="evenodd" clip-rule="evenodd" d="M74.0696 224.485C74.9813 224.485 75.7204 223.72 75.7204 222.777C75.7204 221.834 74.9813 221.069 74.0696 221.069C73.1579 221.069 72.4188 221.834 72.4188 222.777C72.4188 223.72 73.1579 224.485 74.0696 224.485Z" fill="white"/>
<path fill-rule="evenodd" clip-rule="evenodd" d="M74.0696 223.916C74.6774 223.916 75.1701 223.406 75.1701 222.777C75.1701 222.148 74.6774 221.639 74.0696 221.639C73.4618 221.639 72.969 222.148 72.969 222.777C72.969 223.406 73.4618 223.916 74.0696 223.916Z" fill="white"/>
</g>
<g opacity="0.9">
<path opacity="0.2" fill-rule="evenodd" clip-rule="evenodd" d="M92.1508 255.26C93.0625 255.26 93.8016 254.495 93.8016 253.552C93.8016 252.609 93.0625 251.844 92.1508 251.844C91.2391 251.844 90.5 252.609 90.5 253.552C90.5 254.495 91.2391 255.26 92.1508 255.26Z" fill="white"/>
<path fill-rule="evenodd" clip-rule="evenodd" d="M92.1508 254.691C92.7586 254.691 93.2513 254.181 93.2513 253.552C93.2513 252.923 92.7586 252.413 92.1508 252.413C91.543 252.413 91.0503 252.923 91.0503 253.552C91.0503 254.181 91.543 254.691 92.1508 254.691Z" fill="white"/>
</g>
<g opacity="0.5">
<path opacity="0.2" fill-rule="evenodd" clip-rule="evenodd" d="M77.2604 212.159C78.1721 212.159 78.9112 211.395 78.9112 210.451C78.9112 209.508 78.1721 208.743 77.2604 208.743C76.3486 208.743 75.6096 209.508 75.6096 210.451C75.6096 211.395 76.3486 212.159 77.2604 212.159Z" fill="white"/>
<path fill-rule="evenodd" clip-rule="evenodd" d="M77.2604 211.59C77.8682 211.59 78.3609 211.08 78.3609 210.451C78.3609 209.823 77.8682 209.313 77.2604 209.313C76.6525 209.313 76.1598 209.823 76.1598 210.451C76.1598 211.08 76.6525 211.59 77.2604 211.59Z" fill="white"/>
</g>
<g opacity="0.8">
<path opacity="0.2" fill-rule="evenodd" clip-rule="evenodd" d="M81.5148 247.717C82.4265 247.717 83.1656 246.953 83.1656 246.009C83.1656 245.066 82.4265 244.302 81.5148 244.302C80.6031 244.302 79.864 245.066 79.864 246.009C79.864 246.953 80.6031 247.717 81.5148 247.717Z" fill="white"/>
<path fill-rule="evenodd" clip-rule="evenodd" d="M81.5148 247.148C82.1226 247.148 82.6153 246.638 82.6153 246.009C82.6153 245.381 82.1226 244.871 81.5148 244.871C80.907 244.871 80.4142 245.381 80.4142 246.009C80.4142 246.638 80.907 247.148 81.5148 247.148Z" fill="white"/>
</g>
<g opacity="0.3">
<path opacity="0.2" fill-rule="evenodd" clip-rule="evenodd" d="M93.2144 195.997C94.1261 195.997 94.8652 195.232 94.8652 194.289C94.8652 193.345 94.1261 192.581 93.2144 192.581C92.3027 192.581 91.5636 193.345 91.5636 194.289C91.5636 195.232 92.3027 195.997 93.2144 195.997Z" fill="white"/>
<path fill-rule="evenodd" clip-rule="evenodd" d="M93.2144 195.427C93.8222 195.427 94.3149 194.918 94.3149 194.289C94.3149 193.66 93.8222 193.15 93.2144 193.15C92.6066 193.15 92.1139 193.66 92.1139 194.289C92.1139 194.918 92.6066 195.427 93.2144 195.427Z" fill="white"/>
</g>
<path opacity="0.2" fill-rule="evenodd" clip-rule="evenodd" d="M105.978 193.842C106.889 193.842 107.628 193.077 107.628 192.134C107.628 191.19 106.889 190.426 105.978 190.426C105.066 190.426 104.327 191.19 104.327 192.134C104.327 193.077 105.066 193.842 105.978 193.842Z" fill="white"/>
<path fill-rule="evenodd" clip-rule="evenodd" d="M105.978 193.272C106.585 193.272 107.078 192.763 107.078 192.134C107.078 191.505 106.585 190.995 105.978 190.995C105.37 190.995 104.877 191.505 104.877 192.134C104.877 192.763 105.37 193.272 105.978 193.272Z" fill="white"/>
<path opacity="0.2" fill-rule="evenodd" clip-rule="evenodd" d="M105.978 258.493C106.889 258.493 107.628 257.728 107.628 256.785C107.628 255.841 106.889 255.077 105.978 255.077C105.066 255.077 104.327 255.841 104.327 256.785C104.327 257.728 105.066 258.493 105.978 258.493Z" fill="white"/>
<path fill-rule="evenodd" clip-rule="evenodd" d="M105.978 257.923C106.585 257.923 107.078 257.414 107.078 256.785C107.078 256.156 106.585 255.646 105.978 255.646C105.37 255.646 104.877 256.156 104.877 256.785C104.877 257.414 105.37 257.923 105.978 257.923Z" fill="white"/>
<g opacity="0.4">
<path opacity="0.2" fill-rule="evenodd" clip-rule="evenodd" d="M83.642 203.539C84.5537 203.539 85.2928 202.775 85.2928 201.831C85.2928 200.888 84.5537 200.123 83.642 200.123C82.7303 200.123 81.9912 200.888 81.9912 201.831C81.9912 202.775 82.7303 203.539 83.642 203.539Z" fill="white"/>
<path fill-rule="evenodd" clip-rule="evenodd" d="M83.642 202.97C84.2498 202.97 84.7425 202.46 84.7425 201.831C84.7425 201.202 84.2498 200.693 83.642 200.693C83.0342 200.693 82.5414 201.202 82.5414 201.831C82.5414 202.46 83.0342 202.97 83.642 202.97Z" fill="white"/>
</g>
<g opacity="0.7">
<path opacity="0.2" fill-rule="evenodd" clip-rule="evenodd" d="M76.1968 236.942C77.1085 236.942 77.8476 236.178 77.8476 235.234C77.8476 234.291 77.1085 233.526 76.1968 233.526C75.285 233.526 74.546 234.291 74.546 235.234C74.546 236.178 75.285 236.942 76.1968 236.942Z" fill="white"/>
<path fill-rule="evenodd" clip-rule="evenodd" d="M76.1968 236.373C76.8046 236.373 77.2973 235.863 77.2973 235.234C77.2973 234.605 76.8046 234.096 76.1968 234.096C75.5889 234.096 75.0962 234.605 75.0962 235.234C75.0962 235.863 75.5889 236.373 76.1968 236.373Z" fill="white"/>
</g>
<g opacity="0.7">
<path opacity="0.2" fill-rule="evenodd" clip-rule="evenodd" d="M138.878 224.589C137.96 224.589 137.216 223.831 137.216 222.895C137.216 221.959 137.96 221.2 138.878 221.2C139.795 221.2 140.539 221.959 140.539 222.895C140.539 223.831 139.795 224.589 138.878 224.589Z" fill="white"/>
<path fill-rule="evenodd" clip-rule="evenodd" d="M138.878 224.024C138.266 224.024 137.77 223.519 137.77 222.895C137.77 222.271 138.266 221.765 138.878 221.765C139.489 221.765 139.985 222.271 139.985 222.895C139.985 223.519 139.489 224.024 138.878 224.024Z" fill="white"/>
</g>
<g opacity="0.295233">
<path opacity="0.2" fill-rule="evenodd" clip-rule="evenodd" d="M120.682 255.136C119.764 255.136 119.02 254.377 119.02 253.441C119.02 252.505 119.764 251.747 120.682 251.747C121.599 251.747 122.343 252.505 122.343 253.441C122.343 254.377 121.599 255.136 120.682 255.136Z" fill="white"/>
<path fill-rule="evenodd" clip-rule="evenodd" d="M120.682 254.571C120.07 254.571 119.574 254.065 119.574 253.441C119.574 252.817 120.07 252.311 120.682 252.311C121.293 252.311 121.789 252.817 121.789 253.441C121.789 254.065 121.293 254.571 120.682 254.571Z" fill="white"/>
</g>
<g opacity="0.9">
<path opacity="0.2" fill-rule="evenodd" clip-rule="evenodd" d="M135.666 212.374C134.749 212.374 134.005 211.615 134.005 210.679C134.005 209.743 134.749 208.984 135.666 208.984C136.584 208.984 137.328 209.743 137.328 210.679C137.328 211.615 136.584 212.374 135.666 212.374Z" fill="white"/>
<path fill-rule="evenodd" clip-rule="evenodd" d="M135.666 211.809C135.055 211.809 134.559 211.303 134.559 210.679C134.559 210.055 135.055 209.549 135.666 209.549C136.278 209.549 136.774 210.055 136.774 210.679C136.774 211.303 136.278 211.809 135.666 211.809Z" fill="white"/>
</g>
<g opacity="0.4">
<path opacity="0.2" fill-rule="evenodd" clip-rule="evenodd" d="M131.385 247.652C130.468 247.652 129.724 246.894 129.724 245.958C129.724 245.022 130.468 244.263 131.385 244.263C132.303 244.263 133.046 245.022 133.046 245.958C133.046 246.894 132.303 247.652 131.385 247.652Z" fill="white"/>
<path fill-rule="evenodd" clip-rule="evenodd" d="M131.385 247.087C130.773 247.087 130.278 246.582 130.278 245.958C130.278 245.334 130.773 244.828 131.385 244.828C131.997 244.828 132.493 245.334 132.493 245.958C132.493 246.582 131.997 247.087 131.385 247.087Z" fill="white"/>
</g>
<path opacity="0.2" fill-rule="evenodd" clip-rule="evenodd" d="M119.611 196.338C118.694 196.338 117.95 195.579 117.95 194.643C117.95 193.707 118.694 192.949 119.611 192.949C120.529 192.949 121.273 193.707 121.273 194.643C121.273 195.579 120.529 196.338 119.611 196.338Z" fill="white"/>
<path fill-rule="evenodd" clip-rule="evenodd" d="M119.611 195.773C119 195.773 118.504 195.267 118.504 194.643C118.504 194.019 119 193.514 119.611 193.514C120.223 193.514 120.719 194.019 120.719 194.643C120.719 195.267 120.223 195.773 119.611 195.773Z" fill="white"/>
<g opacity="0.9">
<path opacity="0.2" fill-rule="evenodd" clip-rule="evenodd" d="M129.244 203.821C128.327 203.821 127.583 203.062 127.583 202.127C127.583 201.191 128.327 200.432 129.244 200.432C130.162 200.432 130.906 201.191 130.906 202.127C130.906 203.062 130.162 203.821 129.244 203.821Z" fill="white"/>
<path fill-rule="evenodd" clip-rule="evenodd" d="M129.244 203.256C128.633 203.256 128.137 202.751 128.137 202.127C128.137 201.503 128.633 200.997 129.244 200.997C129.856 200.997 130.352 201.503 130.352 202.127C130.352 202.751 129.856 203.256 129.244 203.256Z" fill="white"/>
</g>
<g opacity="0.5">
<path opacity="0.2" fill-rule="evenodd" clip-rule="evenodd" d="M136.737 236.962C135.819 236.962 135.076 236.203 135.076 235.267C135.076 234.331 135.819 233.573 136.737 233.573C137.654 233.573 138.398 234.331 138.398 235.267C138.398 236.203 137.654 236.962 136.737 236.962Z" fill="white"/>
<path fill-rule="evenodd" clip-rule="evenodd" d="M136.737 236.397C136.125 236.397 135.629 235.891 135.629 235.267C135.629 234.643 136.125 234.138 136.737 234.138C137.349 234.138 137.844 234.643 137.844 235.267C137.844 235.891 137.349 236.397 136.737 236.397Z" fill="white"/>
</g>
<path fill-rule="evenodd" clip-rule="evenodd" d="M95.3969 221.148C95.7874 220.757 96.4206 220.757 96.8111 221.148L106.457 230.794C106.848 231.185 106.848 231.818 106.457 232.208L105.86 232.805C105.47 233.196 104.837 233.196 104.446 232.805L94.8001 223.159C94.4096 222.768 94.4096 222.135 94.8001 221.745L95.3969 221.148Z" fill="url(#paint19_linear_0_389)"/>
<path fill-rule="evenodd" clip-rule="evenodd" d="M119.441 214.594C119.022 214.242 118.397 214.293 118.04 214.708L103.926 231.112C103.573 231.523 103.611 232.14 104.011 232.504L104.668 233.102C105.085 233.482 105.734 233.442 106.101 233.013L120.205 216.555C120.567 216.132 120.515 215.496 120.089 215.138L119.441 214.594Z" fill="url(#paint20_linear_0_389)"/>
<defs>
<filter id="filter0_f_0_389" x="0.199232" y="0.746748" width="209.546" height="90.3729" filterUnits="userSpaceOnUse" color-interpolation-filters="sRGB">
<feFlood flood-opacity="0" result="BackgroundImageFix"/>
<feBlend mode="normal" in="SourceGraphic" in2="BackgroundImageFix" result="shape"/>
<feGaussianBlur stdDeviation="13.5914" result="effect1_foregroundBlur_0_389"/>
</filter>
<filter id="filter1_f_0_389" x="0.199232" y="52.888" width="209.546" height="90.3729" filterUnits="userSpaceOnUse" color-interpolation-filters="sRGB">
<feFlood flood-opacity="0" result="BackgroundImageFix"/>
<feBlend mode="normal" in="SourceGraphic" in2="BackgroundImageFix" result="shape"/>
<feGaussianBlur stdDeviation="13.5914" result="effect1_foregroundBlur_0_389"/>
</filter>
<filter id="filter2_f_0_389" x="0.199232" y="105.029" width="209.546" height="90.3729" filterUnits="userSpaceOnUse" color-interpolation-filters="sRGB">
<feFlood flood-opacity="0" result="BackgroundImageFix"/>
<feBlend mode="normal" in="SourceGraphic" in2="BackgroundImageFix" result="shape"/>
<feGaussianBlur stdDeviation="13.5914" result="effect1_foregroundBlur_0_389"/>
</filter>
<filter id="filter3_f_0_389" x="55.3278" y="178.442" width="99.8687" height="99.8686" filterUnits="userSpaceOnUse" color-interpolation-filters="sRGB">
<feFlood flood-opacity="0" result="BackgroundImageFix"/>
<feBlend mode="normal" in="SourceGraphic" in2="BackgroundImageFix" result="shape"/>
<feGaussianBlur stdDeviation="13.5914" result="effect1_foregroundBlur_0_389"/>
</filter>
<filter id="filter4_f_0_389" x="51.9639" y="169.971" width="109.03" height="109.03" filterUnits="userSpaceOnUse" color-interpolation-filters="sRGB">
<feFlood flood-opacity="0" result="BackgroundImageFix"/>
<feBlend mode="normal" in="SourceGraphic" in2="BackgroundImageFix" result="shape"/>
<feGaussianBlur stdDeviation="13.5914" result="effect1_foregroundBlur_0_389"/>
</filter>
<linearGradient id="paint0_linear_0_389" x1="-6.93629" y1="7.61328" x2="-6.93629" y2="87.6133" gradientUnits="userSpaceOnUse">
<stop stop-color="#FFD0C0"/>
<stop offset="0.808684" stop-color="#FF5882" stop-opacity="0.231035"/>
<stop offset="1" stop-color="#FF5782" stop-opacity="0.01"/>
</linearGradient>
<linearGradient id="paint1_linear_0_389" x1="-15.0629" y1="-8.28634" x2="-15.0629" y2="224.486" gradientUnits="userSpaceOnUse">
<stop stop-color="#FFC5B1"/>
<stop offset="0.451809" stop-color="#FF5C84"/>
<stop offset="0.808684" stop-color="#FF5882" stop-opacity="0.231035"/>
<stop offset="1" stop-color="#FF5782" stop-opacity="0.01"/>
</linearGradient>
<linearGradient id="paint2_linear_0_389" x1="26.413" y1="29.344" x2="26.413" y2="65.8009" gradientUnits="userSpaceOnUse">
<stop stop-color="#480067" stop-opacity="0.222883"/>
<stop offset="0.826943" stop-color="#5A0065" stop-opacity="0.222883"/>
<stop offset="1" stop-color="#5F006C" stop-opacity="0.0996377"/>
</linearGradient>
<linearGradient id="paint3_linear_0_389" x1="245.069" y1="56.8254" x2="245.069" y2="25.094" gradientUnits="userSpaceOnUse">
<stop stop-color="white"/>
<stop offset="1" stop-color="#EBF2FA"/>
</linearGradient>
<linearGradient id="paint4_linear_0_389" x1="52.3402" y1="49.1398" x2="52.3402" y2="35.684" gradientUnits="userSpaceOnUse">
<stop stop-color="#737BFF"/>
<stop offset="1" stop-color="#00B2F4"/>
</linearGradient>
<linearGradient id="paint5_linear_0_389" x1="52.2831" y1="31.993" x2="52.2831" y2="35.2153" gradientUnits="userSpaceOnUse">
<stop stop-color="#FFC5B1"/>
<stop offset="1" stop-color="#FF5782"/>
</linearGradient>
<linearGradient id="paint6_linear_0_389" x1="159.706" y1="39.0166" x2="159.706" y2="48.097" gradientUnits="userSpaceOnUse">
<stop stop-color="#00E2C8"/>
<stop offset="1" stop-color="#327FF6"/>
</linearGradient>
<linearGradient id="paint7_linear_0_389" x1="26.413" y1="81.4852" x2="26.413" y2="117.942" gradientUnits="userSpaceOnUse">
<stop stop-color="#480067" stop-opacity="0.222883"/>
<stop offset="0.826943" stop-color="#5A0065" stop-opacity="0.222883"/>
<stop offset="1" stop-color="#5F006C" stop-opacity="0.0996377"/>
</linearGradient>
<linearGradient id="paint8_linear_0_389" x1="245.069" y1="108.967" x2="245.069" y2="77.2352" gradientUnits="userSpaceOnUse">
<stop stop-color="white"/>
<stop offset="1" stop-color="#EBF2FA"/>
</linearGradient>
<linearGradient id="paint9_linear_0_389" x1="52.3402" y1="101.281" x2="52.3402" y2="87.8252" gradientUnits="userSpaceOnUse">
<stop stop-color="#737BFF"/>
<stop offset="1" stop-color="#00B2F4"/>
</linearGradient>
<linearGradient id="paint10_linear_0_389" x1="52.2831" y1="84.1342" x2="52.2831" y2="87.3566" gradientUnits="userSpaceOnUse">
<stop stop-color="#FFC5B1"/>
<stop offset="1" stop-color="#FF5782"/>
</linearGradient>
<linearGradient id="paint11_linear_0_389" x1="159.706" y1="91.1578" x2="159.706" y2="100.238" gradientUnits="userSpaceOnUse">
<stop stop-color="#00E2C8"/>
<stop offset="1" stop-color="#327FF6"/>
</linearGradient>
<linearGradient id="paint12_linear_0_389" x1="26.413" y1="133.626" x2="26.413" y2="170.083" gradientUnits="userSpaceOnUse">
<stop stop-color="#480067" stop-opacity="0.222883"/>
<stop offset="0.826943" stop-color="#5A0065" stop-opacity="0.222883"/>
<stop offset="1" stop-color="#5F006C" stop-opacity="0.0996377"/>
</linearGradient>
<linearGradient id="paint13_linear_0_389" x1="245.069" y1="161.108" x2="245.069" y2="129.376" gradientUnits="userSpaceOnUse">
<stop stop-color="white"/>
<stop offset="1" stop-color="#EBF2FA"/>
</linearGradient>
<linearGradient id="paint14_linear_0_389" x1="52.3402" y1="153.422" x2="52.3402" y2="139.966" gradientUnits="userSpaceOnUse">
<stop stop-color="#737BFF"/>
<stop offset="1" stop-color="#00B2F4"/>
</linearGradient>
<linearGradient id="paint15_linear_0_389" x1="52.2831" y1="136.275" x2="52.2831" y2="139.498" gradientUnits="userSpaceOnUse">
<stop stop-color="#FFC5B1"/>
<stop offset="1" stop-color="#FF5782"/>
</linearGradient>
<linearGradient id="paint16_linear_0_389" x1="159.706" y1="143.299" x2="159.706" y2="152.379" gradientUnits="userSpaceOnUse">
<stop stop-color="#00E2C8"/>
<stop offset="1" stop-color="#327FF6"/>
</linearGradient>
<linearGradient id="paint17_linear_0_389" x1="81.14" y1="205.624" x2="81.14" y2="253.869" gradientUnits="userSpaceOnUse">
<stop stop-color="#481D70" stop-opacity="0.222883"/>
<stop offset="0.826943" stop-color="#481D70" stop-opacity="0.222883"/>
<stop offset="1" stop-color="#481D70" stop-opacity="0.0996377"/>
</linearGradient>
<linearGradient id="paint18_linear_0_389" x1="78.8053" y1="199.301" x2="78.8053" y2="254.648" gradientUnits="userSpaceOnUse">
<stop stop-color="#480067" stop-opacity="0.222883"/>
<stop offset="0.826943" stop-color="#5A0065" stop-opacity="0.222883"/>
<stop offset="1" stop-color="#5F006C" stop-opacity="0.0996377"/>
</linearGradient>
<linearGradient id="paint19_linear_0_389" x1="94.093" y1="222.452" x2="105.153" y2="233.512" gradientUnits="userSpaceOnUse">
<stop stop-color="#9CE9CA"/>
<stop offset="1" stop-color="#00CED9"/>
</linearGradient>
<linearGradient id="paint20_linear_0_389" x1="120.855" y1="215.781" x2="105.637" y2="233.916" gradientUnits="userSpaceOnUse">
<stop stop-color="#9CE9CA"/>
<stop offset="1" stop-color="#00CED9"/>
</linearGradient>
</defs>
</svg>
