<svg width="864" height="452" viewBox="0 0 864 452" fill="none" xmlns="http://www.w3.org/2000/svg">
<g opacity="0.522135" filter="url(#filter0_f_0_1082)">
<path fill-rule="evenodd" clip-rule="evenodd" d="M259.162 30.8876L289.259 24.6323H806.522L827.285 38.3495L835.278 63.0144L838.995 383.704C838.995 383.704 826.563 402.204 821.949 404.422C817.335 406.64 788.716 426.632 788.716 426.632H293.307C293.307 426.632 262.765 418.54 255.746 411.578C248.727 404.617 245 375.534 245 375.534V63.0144L259.162 30.8876Z" fill="url(#paint0_linear_0_1082)"/>
</g>
<path fill-rule="evenodd" clip-rule="evenodd" d="M245 46.6323C245 31.7206 257.088 19.6323 272 19.6323H813C827.912 19.6323 840 31.7206 840 46.6323V394.659C840 409.571 827.912 421.659 813 421.659H272C257.088 421.659 245 409.571 245 394.659V46.6323Z" fill="url(#paint1_linear_0_1082)"/>
<path d="M245.45 46.6323C245.45 31.9691 257.337 20.0823 272 20.0823H813C827.663 20.0823 839.55 31.9692 839.55 46.6323V394.659C839.55 409.323 827.663 421.209 813 421.209H272C257.337 421.209 245.45 409.323 245.45 394.659V46.6323Z" stroke="#F0F1F6" stroke-opacity="0.233894" stroke-width="0.9"/>
<path fill-rule="evenodd" clip-rule="evenodd" d="M287 37.3323C287 35.8412 288.209 34.6323 289.7 34.6323H794.3C795.791 34.6323 797 35.8412 797 37.3323V403.932C797 405.423 795.791 406.632 794.3 406.632H289.7C288.209 406.632 287 405.423 287 403.932V37.3323Z" fill="url(#paint2_linear_0_1082)"/>
<g opacity="0.3" filter="url(#filter1_f_0_1082)">
<rect x="331" y="113.632" width="451" height="34" fill="url(#paint3_linear_0_1082)"/>
</g>
<rect x="331" y="110.632" width="451" height="34" rx="5" fill="white"/>
<path opacity="0.615319" fill-rule="evenodd" clip-rule="evenodd" d="M699 128.132C699 125.095 701.462 122.632 704.5 122.632H745.5C748.538 122.632 751 125.095 751 128.132C751 131.17 748.538 133.632 745.5 133.632H704.5C701.462 133.632 699 131.17 699 128.132Z" fill="#C8D7E9"/>
<path fill-rule="evenodd" clip-rule="evenodd" d="M594 131.632C596.209 131.632 598 129.841 598 127.632C598 125.423 596.209 123.632 594 123.632C591.791 123.632 590 125.423 590 127.632C590 129.841 591.791 131.632 594 131.632Z" fill="url(#paint4_linear_0_1082)"/>
<path opacity="0.615319" fill-rule="evenodd" clip-rule="evenodd" d="M608 126.132C608 125.856 608.224 125.632 608.5 125.632H652.5C652.776 125.632 653 125.856 653 126.132V129.132C653 129.408 652.776 129.632 652.5 129.632H608.5C608.224 129.632 608 129.408 608 129.132V126.132Z" fill="#C8D7E9"/>
<path opacity="0.615319" fill-rule="evenodd" clip-rule="evenodd" d="M351.5 137.632C357.299 137.632 362 132.931 362 127.132C362 121.333 357.299 116.632 351.5 116.632C345.701 116.632 341 121.333 341 127.132C341 132.931 345.701 137.632 351.5 137.632Z" fill="#C8D7E9"/>
<path opacity="0.615319" fill-rule="evenodd" clip-rule="evenodd" d="M372 126.132C372 125.856 372.224 125.632 372.5 125.632H411.5C411.776 125.632 412 125.856 412 126.132V129.132C412 129.408 411.776 129.632 411.5 129.632H372.5C372.224 129.632 372 129.408 372 129.132V126.132Z" fill="#C8D7E9"/>
<path opacity="0.615319" fill-rule="evenodd" clip-rule="evenodd" d="M494 126.132C494 125.856 494.224 125.632 494.5 125.632H543.5C543.776 125.632 544 125.856 544 126.132V129.132C544 129.408 543.776 129.632 543.5 129.632H494.5C494.224 129.632 494 129.408 494 129.132V126.132Z" fill="#C8D7E9"/>
<g opacity="0.3" filter="url(#filter2_f_0_1082)">
<rect x="331" y="160.632" width="451" height="34" fill="url(#paint5_linear_0_1082)"/>
</g>
<rect x="331" y="157.632" width="451" height="34" rx="5" fill="white"/>
<path opacity="0.615319" fill-rule="evenodd" clip-rule="evenodd" d="M699 175.132C699 172.095 701.462 169.632 704.5 169.632H745.5C748.538 169.632 751 172.095 751 175.132C751 178.17 748.538 180.632 745.5 180.632H704.5C701.462 180.632 699 178.17 699 175.132Z" fill="#C8D7E9"/>
<path fill-rule="evenodd" clip-rule="evenodd" d="M594 178.632C596.209 178.632 598 176.841 598 174.632C598 172.423 596.209 170.632 594 170.632C591.791 170.632 590 172.423 590 174.632C590 176.841 591.791 178.632 594 178.632Z" fill="url(#paint6_linear_0_1082)"/>
<path opacity="0.615319" fill-rule="evenodd" clip-rule="evenodd" d="M608 173.132C608 172.856 608.224 172.632 608.5 172.632H652.5C652.776 172.632 653 172.856 653 173.132V176.132C653 176.408 652.776 176.632 652.5 176.632H608.5C608.224 176.632 608 176.408 608 176.132V173.132Z" fill="#C8D7E9"/>
<path opacity="0.615319" fill-rule="evenodd" clip-rule="evenodd" d="M351.5 184.632C357.299 184.632 362 179.931 362 174.132C362 168.333 357.299 163.632 351.5 163.632C345.701 163.632 341 168.333 341 174.132C341 179.931 345.701 184.632 351.5 184.632Z" fill="#C8D7E9"/>
<path opacity="0.615319" fill-rule="evenodd" clip-rule="evenodd" d="M372 173.132C372 172.856 372.224 172.632 372.5 172.632H411.5C411.776 172.632 412 172.856 412 173.132V176.132C412 176.408 411.776 176.632 411.5 176.632H372.5C372.224 176.632 372 176.408 372 176.132V173.132Z" fill="#C8D7E9"/>
<path opacity="0.615319" fill-rule="evenodd" clip-rule="evenodd" d="M494 173.132C494 172.856 494.224 172.632 494.5 172.632H543.5C543.776 172.632 544 172.856 544 173.132V176.132C544 176.408 543.776 176.632 543.5 176.632H494.5C494.224 176.632 494 176.408 494 176.132V173.132Z" fill="#C8D7E9"/>
<g opacity="0.3" filter="url(#filter3_f_0_1082)">
<rect x="331" y="207.632" width="451" height="34" fill="url(#paint7_linear_0_1082)"/>
</g>
<rect x="331" y="204.632" width="451" height="34" rx="5" fill="white"/>
<path opacity="0.615319" fill-rule="evenodd" clip-rule="evenodd" d="M699 222.132C699 219.095 701.462 216.632 704.5 216.632H745.5C748.538 216.632 751 219.095 751 222.132C751 225.17 748.538 227.632 745.5 227.632H704.5C701.462 227.632 699 225.17 699 222.132Z" fill="url(#paint8_linear_0_1082)"/>
<path fill-rule="evenodd" clip-rule="evenodd" d="M594 225.632C596.209 225.632 598 223.841 598 221.632C598 219.423 596.209 217.632 594 217.632C591.791 217.632 590 219.423 590 221.632C590 223.841 591.791 225.632 594 225.632Z" fill="url(#paint9_linear_0_1082)"/>
<path opacity="0.615319" fill-rule="evenodd" clip-rule="evenodd" d="M608 220.132C608 219.856 608.224 219.632 608.5 219.632H652.5C652.776 219.632 653 219.856 653 220.132V223.132C653 223.408 652.776 223.632 652.5 223.632H608.5C608.224 223.632 608 223.408 608 223.132V220.132Z" fill="#C8D7E9"/>
<path fill-rule="evenodd" clip-rule="evenodd" d="M351.5 231.632C357.299 231.632 362 226.931 362 221.132C362 215.333 357.299 210.632 351.5 210.632C345.701 210.632 341 215.333 341 221.132C341 226.931 345.701 231.632 351.5 231.632Z" fill="url(#paint10_linear_0_1082)"/>
<path opacity="0.615319" fill-rule="evenodd" clip-rule="evenodd" d="M372 220.132C372 219.856 372.224 219.632 372.5 219.632H411.5C411.776 219.632 412 219.856 412 220.132V223.132C412 223.408 411.776 223.632 411.5 223.632H372.5C372.224 223.632 372 223.408 372 223.132V220.132Z" fill="#C8D7E9"/>
<path opacity="0.615319" fill-rule="evenodd" clip-rule="evenodd" d="M494 220.132C494 219.856 494.224 219.632 494.5 219.632H543.5C543.776 219.632 544 219.856 544 220.132V223.132C544 223.408 543.776 223.632 543.5 223.632H494.5C494.224 223.632 494 223.408 494 223.132V220.132Z" fill="#C8D7E9"/>
<g opacity="0.3" filter="url(#filter4_f_0_1082)">
<rect x="331" y="254.632" width="451" height="34" fill="url(#paint11_linear_0_1082)"/>
</g>
<rect x="331" y="251.632" width="451" height="34" rx="5" fill="white"/>
<path opacity="0.615319" fill-rule="evenodd" clip-rule="evenodd" d="M699 269.132C699 266.095 701.462 263.632 704.5 263.632H745.5C748.538 263.632 751 266.095 751 269.132C751 272.17 748.538 274.632 745.5 274.632H704.5C701.462 274.632 699 272.17 699 269.132Z" fill="#C8D7E9"/>
<path opacity="0.615319" fill-rule="evenodd" clip-rule="evenodd" d="M594 272.632C596.209 272.632 598 270.841 598 268.632C598 266.423 596.209 264.632 594 264.632C591.791 264.632 590 266.423 590 268.632C590 270.841 591.791 272.632 594 272.632Z" fill="#C8D7E9"/>
<path opacity="0.615319" fill-rule="evenodd" clip-rule="evenodd" d="M608 267.132C608 266.856 608.224 266.632 608.5 266.632H652.5C652.776 266.632 653 266.856 653 267.132V270.132C653 270.408 652.776 270.632 652.5 270.632H608.5C608.224 270.632 608 270.408 608 270.132V267.132Z" fill="#C8D7E9"/>
<path opacity="0.615319" fill-rule="evenodd" clip-rule="evenodd" d="M351.5 278.632C357.299 278.632 362 273.931 362 268.132C362 262.333 357.299 257.632 351.5 257.632C345.701 257.632 341 262.333 341 268.132C341 273.931 345.701 278.632 351.5 278.632Z" fill="#C8D7E9"/>
<path opacity="0.615319" fill-rule="evenodd" clip-rule="evenodd" d="M372 267.132C372 266.856 372.224 266.632 372.5 266.632H411.5C411.776 266.632 412 266.856 412 267.132V270.132C412 270.408 411.776 270.632 411.5 270.632H372.5C372.224 270.632 372 270.408 372 270.132V267.132Z" fill="#C8D7E9"/>
<path opacity="0.615319" fill-rule="evenodd" clip-rule="evenodd" d="M494 267.132C494 266.856 494.224 266.632 494.5 266.632H543.5C543.776 266.632 544 266.856 544 267.132V270.132C544 270.408 543.776 270.632 543.5 270.632H494.5C494.224 270.632 494 270.408 494 270.132V267.132Z" fill="#C8D7E9"/>
<g opacity="0.3" filter="url(#filter5_f_0_1082)">
<rect x="331" y="301.632" width="451" height="34" fill="url(#paint12_linear_0_1082)"/>
</g>
<rect x="331" y="298.632" width="451" height="34" rx="5" fill="white"/>
<path opacity="0.615319" fill-rule="evenodd" clip-rule="evenodd" d="M699 316.132C699 313.095 701.462 310.632 704.5 310.632H745.5C748.538 310.632 751 313.095 751 316.132C751 319.17 748.538 321.632 745.5 321.632H704.5C701.462 321.632 699 319.17 699 316.132Z" fill="#C8D7E9"/>
<path opacity="0.615319" fill-rule="evenodd" clip-rule="evenodd" d="M594 319.632C596.209 319.632 598 317.841 598 315.632C598 313.423 596.209 311.632 594 311.632C591.791 311.632 590 313.423 590 315.632C590 317.841 591.791 319.632 594 319.632Z" fill="#C8D7E9"/>
<path opacity="0.615319" fill-rule="evenodd" clip-rule="evenodd" d="M608 314.132C608 313.856 608.224 313.632 608.5 313.632H652.5C652.776 313.632 653 313.856 653 314.132V317.132C653 317.408 652.776 317.632 652.5 317.632H608.5C608.224 317.632 608 317.408 608 317.132V314.132Z" fill="#C8D7E9"/>
<path opacity="0.615319" fill-rule="evenodd" clip-rule="evenodd" d="M351.5 325.632C357.299 325.632 362 320.931 362 315.132C362 309.333 357.299 304.632 351.5 304.632C345.701 304.632 341 309.333 341 315.132C341 320.931 345.701 325.632 351.5 325.632Z" fill="#C8D7E9"/>
<path opacity="0.615319" fill-rule="evenodd" clip-rule="evenodd" d="M372 314.132C372 313.856 372.224 313.632 372.5 313.632H411.5C411.776 313.632 412 313.856 412 314.132V317.132C412 317.408 411.776 317.632 411.5 317.632H372.5C372.224 317.632 372 317.408 372 317.132V314.132Z" fill="#C8D7E9"/>
<path opacity="0.615319" fill-rule="evenodd" clip-rule="evenodd" d="M494 314.132C494 313.856 494.224 313.632 494.5 313.632H543.5C543.776 313.632 544 313.856 544 314.132V317.132C544 317.408 543.776 317.632 543.5 317.632H494.5C494.224 317.632 494 317.408 494 317.132V314.132Z" fill="#C8D7E9"/>
<g opacity="0.3" filter="url(#filter6_f_0_1082)">
<rect x="331" y="348.632" width="451" height="34" fill="url(#paint13_linear_0_1082)"/>
</g>
<rect x="331" y="345.632" width="451" height="34" rx="5" fill="white"/>
<path opacity="0.615319" fill-rule="evenodd" clip-rule="evenodd" d="M699 363.132C699 360.095 701.462 357.632 704.5 357.632H745.5C748.538 357.632 751 360.095 751 363.132C751 366.17 748.538 368.632 745.5 368.632H704.5C701.462 368.632 699 366.17 699 363.132Z" fill="#C8D7E9"/>
<path opacity="0.615319" fill-rule="evenodd" clip-rule="evenodd" d="M594 366.632C596.209 366.632 598 364.841 598 362.632C598 360.423 596.209 358.632 594 358.632C591.791 358.632 590 360.423 590 362.632C590 364.841 591.791 366.632 594 366.632Z" fill="#C8D7E9"/>
<path opacity="0.615319" fill-rule="evenodd" clip-rule="evenodd" d="M608 361.132C608 360.856 608.224 360.632 608.5 360.632H652.5C652.776 360.632 653 360.856 653 361.132V364.132C653 364.408 652.776 364.632 652.5 364.632H608.5C608.224 364.632 608 364.408 608 364.132V361.132Z" fill="#C8D7E9"/>
<path opacity="0.615319" fill-rule="evenodd" clip-rule="evenodd" d="M351.5 372.632C357.299 372.632 362 367.931 362 362.132C362 356.333 357.299 351.632 351.5 351.632C345.701 351.632 341 356.333 341 362.132C341 367.931 345.701 372.632 351.5 372.632Z" fill="#C8D7E9"/>
<path opacity="0.615319" fill-rule="evenodd" clip-rule="evenodd" d="M372 361.132C372 360.856 372.224 360.632 372.5 360.632H411.5C411.776 360.632 412 360.856 412 361.132V364.132C412 364.408 411.776 364.632 411.5 364.632H372.5C372.224 364.632 372 364.408 372 364.132V361.132Z" fill="#C8D7E9"/>
<path opacity="0.615319" fill-rule="evenodd" clip-rule="evenodd" d="M494 361.132C494 360.856 494.224 360.632 494.5 360.632H543.5C543.776 360.632 544 360.856 544 361.132V364.132C544 364.408 543.776 364.632 543.5 364.632H494.5C494.224 364.632 494 364.408 494 364.132V361.132Z" fill="#C8D7E9"/>
<path d="M316 35.6323H794.2C795.194 35.6323 796 36.4382 796 37.4323V70.6323H316V35.6323Z" fill="url(#paint14_linear_0_1082)"/>
<path fill-rule="evenodd" clip-rule="evenodd" d="M773.5 60.6323C777.642 60.6323 781 57.2745 781 53.1323C781 48.9902 777.642 45.6323 773.5 45.6323C769.358 45.6323 766 48.9902 766 53.1323C766 57.2745 769.358 60.6323 773.5 60.6323Z" fill="white"/>
<mask id="mask0_0_1082" style="mask-type:alpha" maskUnits="userSpaceOnUse" x="766" y="45" width="15" height="16">
<path fill-rule="evenodd" clip-rule="evenodd" d="M773.5 60.6323C777.642 60.6323 781 57.2745 781 53.1323C781 48.9902 777.642 45.6323 773.5 45.6323C769.358 45.6323 766 48.9902 766 53.1323C766 57.2745 769.358 60.6323 773.5 60.6323Z" fill="white"/>
</mask>
<g mask="url(#mask0_0_1082)">
<path fill-rule="evenodd" clip-rule="evenodd" d="M766.59 60.5318C766.59 56.9371 769.504 54.0229 773.099 54.0229H774.416C778.011 54.0229 780.925 56.9371 780.925 60.5318H766.59Z" fill="url(#paint15_linear_0_1082)"/>
<path fill-rule="evenodd" clip-rule="evenodd" d="M771.148 49.9476C770.798 48.2748 772.075 46.7037 773.784 46.7037C775.493 46.7037 776.77 48.2748 776.42 49.9476L776.138 51.2995C775.905 52.4141 774.922 53.2126 773.784 53.2126C772.645 53.2126 771.663 52.4141 771.43 51.2995L771.148 49.9476Z" fill="#C8D7E9"/>
<mask id="mask1_0_1082" style="mask-type:alpha" maskUnits="userSpaceOnUse" x="771" y="46" width="6" height="8">
<path fill-rule="evenodd" clip-rule="evenodd" d="M771.148 49.9476C770.798 48.2748 772.075 46.7037 773.784 46.7037C775.493 46.7037 776.77 48.2748 776.42 49.9476L776.138 51.2995C775.905 52.4141 774.922 53.2126 773.784 53.2126C772.645 53.2126 771.663 52.4141 771.43 51.2995L771.148 49.9476Z" fill="white"/>
</mask>
<g mask="url(#mask1_0_1082)">
<path fill-rule="evenodd" clip-rule="evenodd" d="M772.298 50.5108C770.605 50.5108 769.34 48.9542 769.686 47.2969L769.975 45.915C770.208 44.8005 771.19 44.002 772.329 44.002C773.467 44.002 774.45 44.8005 774.683 45.915L774.753 46.253L774.824 45.915C775.057 44.8005 776.039 44.002 777.178 44.002C778.316 44.002 779.299 44.8005 779.532 45.915L779.814 47.2669C780.164 48.9397 778.887 50.5108 777.178 50.5108C776.088 50.5108 775.175 49.8724 774.746 48.9761C774.31 49.8732 773.392 50.5108 772.298 50.5108Z" fill="url(#paint16_linear_0_1082)"/>
</g>
</g>
<path fill-rule="evenodd" clip-rule="evenodd" d="M699 53.1323C699 50.0948 701.462 47.6323 704.5 47.6323H745.5C748.538 47.6323 751 50.0948 751 53.1323C751 56.1699 748.538 58.6323 745.5 58.6323H704.5C701.462 58.6323 699 56.1699 699 53.1323Z" fill="white"/>
<path fill-rule="evenodd" clip-rule="evenodd" d="M331 51.6323C331 51.08 331.448 50.6323 332 50.6323H411C411.552 50.6323 412 51.08 412 51.6323V54.6323C412 55.1846 411.552 55.6323 411 55.6323H332C331.448 55.6323 331 55.1846 331 54.6323V51.6323Z" fill="#C8D7E9"/>
<path fill-rule="evenodd" clip-rule="evenodd" d="M316 70.6323H796V95.6323H316V70.6323Z" fill="url(#paint17_linear_0_1082)"/>
<path fill-rule="evenodd" clip-rule="evenodd" d="M699 81.6323C699 81.08 699.448 80.6323 700 80.6323H728C728.552 80.6323 729 81.08 729 81.6323V84.6323C729 85.1846 728.552 85.6323 728 85.6323H700C699.448 85.6323 699 85.1846 699 84.6323V81.6323Z" fill="#C8D7E9"/>
<path fill-rule="evenodd" clip-rule="evenodd" d="M590 81.6323C590 81.08 590.448 80.6323 591 80.6323H614C614.552 80.6323 615 81.08 615 81.6323V84.6323C615 85.1846 614.552 85.6323 614 85.6323H591C590.448 85.6323 590 85.1846 590 84.6323V81.6323Z" fill="#C8D7E9"/>
<path fill-rule="evenodd" clip-rule="evenodd" d="M494 81.6323C494 81.08 494.448 80.6323 495 80.6323H533C533.552 80.6323 534 81.08 534 81.6323V84.6323C534 85.1846 533.552 85.6323 533 85.6323H495C494.448 85.6323 494 85.1846 494 84.6323V81.6323Z" fill="#C8D7E9"/>
<path fill-rule="evenodd" clip-rule="evenodd" d="M331 81.6323C331 81.08 331.448 80.6323 332 80.6323H350C350.552 80.6323 351 81.08 351 81.6323V84.6323C351 85.1846 350.552 85.6323 350 85.6323H332C331.448 85.6323 331 85.1846 331 84.6323V81.6323Z" fill="#C8D7E9"/>
<path fill-rule="evenodd" clip-rule="evenodd" d="M366 81.6323C366 81.08 366.448 80.6323 367 80.6323H380C380.552 80.6323 381 81.08 381 81.6323V84.6323C381 85.1846 380.552 85.6323 380 85.6323H367C366.448 85.6323 366 85.1846 366 84.6323V81.6323Z" fill="#C8D7E9"/>
<path fill-rule="evenodd" clip-rule="evenodd" d="M287 36.4323C287 35.4382 287.806 34.6323 288.8 34.6323H316V407.512H288.8C287.806 407.512 287 406.707 287 405.712V36.4323Z" fill="url(#paint18_linear_0_1082)"/>
<path opacity="0.5" fill-rule="evenodd" clip-rule="evenodd" d="M302 61.6323C305.866 61.6323 309 58.4983 309 54.6323C309 50.7663 305.866 47.6323 302 47.6323C298.134 47.6323 295 50.7663 295 54.6323C295 58.4983 298.134 61.6323 302 61.6323Z" fill="white"/>
<path opacity="0.5" fill-rule="evenodd" clip-rule="evenodd" d="M302 200.632C304.209 200.632 306 198.841 306 196.632C306 194.423 304.209 192.632 302 192.632C299.791 192.632 298 194.423 298 196.632C298 198.841 299.791 200.632 302 200.632Z" fill="white"/>
<path opacity="0.5" fill-rule="evenodd" clip-rule="evenodd" d="M302 219.632C304.209 219.632 306 217.841 306 215.632C306 213.423 304.209 211.632 302 211.632C299.791 211.632 298 213.423 298 215.632C298 217.841 299.791 219.632 302 219.632Z" fill="white"/>
<path opacity="0.5" fill-rule="evenodd" clip-rule="evenodd" d="M302 237.632C304.209 237.632 306 235.841 306 233.632C306 231.423 304.209 229.632 302 229.632C299.791 229.632 298 231.423 298 233.632C298 235.841 299.791 237.632 302 237.632Z" fill="white"/>
<path opacity="0.5" fill-rule="evenodd" clip-rule="evenodd" d="M302 108.632C304.209 108.632 306 106.841 306 104.632C306 102.423 304.209 100.632 302 100.632C299.791 100.632 298 102.423 298 104.632C298 106.841 299.791 108.632 302 108.632Z" fill="white"/>
<path opacity="0.5" fill-rule="evenodd" clip-rule="evenodd" d="M302 127.632C304.209 127.632 306 125.841 306 123.632C306 121.423 304.209 119.632 302 119.632C299.791 119.632 298 121.423 298 123.632C298 125.841 299.791 127.632 302 127.632Z" fill="white"/>
<path opacity="0.5" fill-rule="evenodd" clip-rule="evenodd" d="M302 146.632C304.209 146.632 306 144.841 306 142.632C306 140.423 304.209 138.632 302 138.632C299.791 138.632 298 140.423 298 142.632C298 144.841 299.791 146.632 302 146.632Z" fill="white"/>
<path opacity="0.5" fill-rule="evenodd" clip-rule="evenodd" d="M302 165.632C304.209 165.632 306 163.841 306 161.632C306 159.423 304.209 157.632 302 157.632C299.791 157.632 298 159.423 298 161.632C298 163.841 299.791 165.632 302 165.632Z" fill="white"/>
<path opacity="0.5" fill-rule="evenodd" clip-rule="evenodd" d="M302 183.632C304.209 183.632 306 181.841 306 179.632C306 177.423 304.209 175.632 302 175.632C299.791 175.632 298 177.423 298 179.632C298 181.841 299.791 183.632 302 183.632Z" fill="white"/>
<g opacity="0.522135" filter="url(#filter7_f_0_1082)">
<path fill-rule="evenodd" clip-rule="evenodd" d="M23.4376 34.1981L36.4518 24.6323L196.286 25.8172L209.811 34.1981V62.1049L211 383.597C211 383.597 207.023 402.143 205.548 404.366C204.072 406.59 194.918 426.632 194.918 426.632H36.4518C36.4518 426.632 26.6823 418.52 24.4372 411.541C22.1921 404.562 21 375.406 21 375.406V60.9241L23.4376 34.1981Z" fill="url(#paint19_linear_0_1082)"/>
</g>
<path fill-rule="evenodd" clip-rule="evenodd" d="M18 41.9695C18 29.633 28.0007 19.6323 40.3371 19.6323H195.663C207.999 19.6323 218 29.633 218 41.9695V399.295C218 411.632 207.999 421.632 195.663 421.632H40.3371C28.0007 421.632 18 411.632 18 399.295V41.9695Z" fill="url(#paint20_linear_0_1082)"/>
<path d="M18.2717 41.9695C18.2717 29.783 28.1507 19.904 40.3371 19.904H195.663C207.849 19.904 217.728 29.783 217.728 41.9695V399.295C217.728 411.482 207.849 421.361 195.663 421.361H40.3371C28.1507 421.361 18.2717 411.482 18.2717 399.295V41.9695Z" stroke="#F0F1F6" stroke-opacity="0.233894" stroke-width="0.543335"/>
<g filter="url(#filter8_i_0_1082)">
<rect x="104" y="42.6323" width="28" height="4" rx="1.81112" fill="url(#paint21_linear_0_1082)"/>
</g>
<rect opacity="0.386436" x="104" y="42.6323" width="28" height="4" rx="1.81112" fill="url(#paint22_linear_0_1082)"/>
<g filter="url(#filter9_i_0_1082)">
<path fill-rule="evenodd" clip-rule="evenodd" d="M118 409.632C125.732 409.632 132 403.364 132 395.632C132 387.9 125.732 381.632 118 381.632C110.268 381.632 104 387.9 104 395.632C104 403.364 110.268 409.632 118 409.632Z" fill="url(#paint23_linear_0_1082)"/>
</g>
<path opacity="0.386436" fill-rule="evenodd" clip-rule="evenodd" d="M118 409.632C125.732 409.632 132 403.364 132 395.632C132 387.9 125.732 381.632 118 381.632C110.268 381.632 104 387.9 104 395.632C104 403.364 110.268 409.632 118 409.632Z" fill="url(#paint24_linear_0_1082)"/>
<path d="M31 65.6323C31 64.5278 31.8954 63.6323 33 63.6323H203C204.105 63.6323 205 64.5278 205 65.6323V371.029C205 371.362 204.73 371.632 204.396 371.632H31.6037C31.2703 371.632 31 371.362 31 371.029V65.6323Z" fill="url(#paint25_linear_0_1082)"/>
<mask id="mask2_0_1082" style="mask-type:alpha" maskUnits="userSpaceOnUse" x="31" y="63" width="174" height="309">
<path d="M31 65.6323C31 64.5278 31.8954 63.6323 33 63.6323H203C204.105 63.6323 205 64.5278 205 65.6323V371.029C205 371.362 204.73 371.632 204.396 371.632H31.6037C31.2703 371.632 31 371.362 31 371.029V65.6323Z" fill="white"/>
</mask>
<g mask="url(#mask2_0_1082)">
<path opacity="0.615319" fill-rule="evenodd" clip-rule="evenodd" d="M92 350.132C92 347.095 94.4624 344.632 97.5 344.632H138.5C141.538 344.632 144 347.095 144 350.132C144 353.17 141.538 355.632 138.5 355.632H97.5C94.4624 355.632 92 353.17 92 350.132Z" fill="url(#paint26_linear_0_1082)"/>
<g opacity="0.321501" filter="url(#filter10_f_0_1082)">
<path fill-rule="evenodd" clip-rule="evenodd" d="M118 365.632C124.627 365.632 130 360.26 130 353.632C130 347.005 124.627 341.632 118 341.632C111.373 341.632 106 347.005 106 353.632C106 360.26 111.373 365.632 118 365.632Z" fill="url(#paint27_linear_0_1082)"/>
</g>
<g opacity="0.3" filter="url(#filter11_f_0_1082)">
<path fill-rule="evenodd" clip-rule="evenodd" d="M37 117.632C37 114.871 39.2386 112.632 42 112.632H194C196.761 112.632 199 114.871 199 117.632V173.632C199 176.394 196.761 178.632 194 178.632H42C39.2386 178.632 37 176.394 37 173.632V117.632Z" fill="url(#paint28_linear_0_1082)"/>
</g>
<path fill-rule="evenodd" clip-rule="evenodd" d="M37 113.632C37 110.871 39.2386 108.632 42 108.632H194C196.761 108.632 199 110.871 199 113.632V169.632C199 172.394 196.761 174.632 194 174.632H42C39.2386 174.632 37 172.394 37 169.632V113.632Z" fill="white"/>
<path opacity="0.615319" fill-rule="evenodd" clip-rule="evenodd" d="M99 155.132C99 154.856 99.2239 154.632 99.5 154.632H138.5C138.776 154.632 139 154.856 139 155.132V158.132C139 158.408 138.776 158.632 138.5 158.632H99.5C99.2239 158.632 99 158.408 99 158.132V155.132Z" fill="#C8D7E9"/>
<path opacity="0.615319" fill-rule="evenodd" clip-rule="evenodd" d="M118 144.632C123.523 144.632 128 140.155 128 134.632C128 129.109 123.523 124.632 118 124.632C112.477 124.632 108 129.109 108 134.632C108 140.155 112.477 144.632 118 144.632Z" fill="#C8D7E9"/>
<path fill-rule="evenodd" clip-rule="evenodd" d="M128.115 130.632C130.324 130.632 132.115 128.841 132.115 126.632C132.115 124.423 130.324 122.632 128.115 122.632C125.906 122.632 124.115 124.423 124.115 126.632C124.115 128.841 125.906 130.632 128.115 130.632Z" fill="url(#paint29_linear_0_1082)" stroke="white" stroke-width="2"/>
<g opacity="0.3" filter="url(#filter12_f_0_1082)">
<path fill-rule="evenodd" clip-rule="evenodd" d="M37 193.632C37 190.871 39.2386 188.632 42 188.632H194C196.761 188.632 199 190.871 199 193.632V249.632C199 252.394 196.761 254.632 194 254.632H42C39.2386 254.632 37 252.394 37 249.632V193.632Z" fill="url(#paint30_linear_0_1082)"/>
</g>
<path fill-rule="evenodd" clip-rule="evenodd" d="M37 189.632C37 186.871 39.2386 184.632 42 184.632H194C196.761 184.632 199 186.871 199 189.632V245.632C199 248.394 196.761 250.632 194 250.632H42C39.2386 250.632 37 248.394 37 245.632V189.632Z" fill="white"/>
<path opacity="0.615319" fill-rule="evenodd" clip-rule="evenodd" d="M99 231.132C99 230.856 99.2239 230.632 99.5 230.632H138.5C138.776 230.632 139 230.856 139 231.132V234.132C139 234.408 138.776 234.632 138.5 234.632H99.5C99.2239 234.632 99 234.408 99 234.132V231.132Z" fill="#C8D7E9"/>
<path opacity="0.615319" fill-rule="evenodd" clip-rule="evenodd" d="M118 220.632C123.523 220.632 128 216.155 128 210.632C128 205.109 123.523 200.632 118 200.632C112.477 200.632 108 205.109 108 210.632C108 216.155 112.477 220.632 118 220.632Z" fill="#C8D7E9"/>
<path fill-rule="evenodd" clip-rule="evenodd" d="M128.115 206.632C130.324 206.632 132.115 204.841 132.115 202.632C132.115 200.423 130.324 198.632 128.115 198.632C125.906 198.632 124.115 200.423 124.115 202.632C124.115 204.841 125.906 206.632 128.115 206.632Z" fill="url(#paint31_linear_0_1082)" stroke="white" stroke-width="2"/>
<g opacity="0.3" filter="url(#filter13_f_0_1082)">
<path fill-rule="evenodd" clip-rule="evenodd" d="M37 269.632C37 266.871 39.2386 264.632 42 264.632H194C196.761 264.632 199 266.871 199 269.632V325.632C199 328.394 196.761 330.632 194 330.632H42C39.2386 330.632 37 328.394 37 325.632V269.632Z" fill="url(#paint32_linear_0_1082)"/>
</g>
<path fill-rule="evenodd" clip-rule="evenodd" d="M37 265.632C37 262.871 39.2386 260.632 42 260.632H194C196.761 260.632 199 262.871 199 265.632V321.632C199 324.394 196.761 326.632 194 326.632H42C39.2386 326.632 37 324.394 37 321.632V265.632Z" fill="white"/>
<path opacity="0.615319" fill-rule="evenodd" clip-rule="evenodd" d="M99 307.132C99 306.856 99.2239 306.632 99.5 306.632H138.5C138.776 306.632 139 306.856 139 307.132V310.132C139 310.408 138.776 310.632 138.5 310.632H99.5C99.2239 310.632 99 310.408 99 310.132V307.132Z" fill="#C8D7E9"/>
<path opacity="0.615319" fill-rule="evenodd" clip-rule="evenodd" d="M118 296.632C123.523 296.632 128 292.155 128 286.632C128 281.109 123.523 276.632 118 276.632C112.477 276.632 108 281.109 108 286.632C108 292.155 112.477 296.632 118 296.632Z" fill="#C8D7E9"/>
<path fill-rule="evenodd" clip-rule="evenodd" d="M128.115 282.632C130.324 282.632 132.115 280.841 132.115 278.632C132.115 276.423 130.324 274.632 128.115 274.632C125.906 274.632 124.115 276.423 124.115 278.632C124.115 280.841 125.906 282.632 128.115 282.632Z" fill="url(#paint33_linear_0_1082)" stroke="white" stroke-width="2"/>
<path fill-rule="evenodd" clip-rule="evenodd" d="M31.1149 65.6323C31.1149 64.5278 32.0103 63.6323 33.1149 63.6323H203.115C204.219 63.6323 205.115 64.5278 205.115 65.6323V83.6323H31.1149V65.6323Z" fill="url(#paint34_linear_0_1082)"/>
<path fill-rule="evenodd" clip-rule="evenodd" d="M31 82.6323H205V102.632H31V82.6323Z" fill="url(#paint35_linear_0_1082)"/>
<path fill-rule="evenodd" clip-rule="evenodd" d="M181.115 91.6323C181.115 91.08 181.563 90.6323 182.115 90.6323H194.115C194.667 90.6323 195.115 91.08 195.115 91.6323V93.6323C195.115 94.1846 194.667 94.6323 194.115 94.6323H182.115C181.563 94.6323 181.115 94.1846 181.115 93.6323V91.6323Z" fill="#C8D7E9"/>
<path opacity="0.5" fill-rule="evenodd" clip-rule="evenodd" d="M90 72.6323C90 72.08 90.4477 71.6323 91 71.6323H145C145.552 71.6323 146 72.08 146 72.6323V74.6323C146 75.1846 145.552 75.6323 145 75.6323H91C90.4477 75.6323 90 75.1846 90 74.6323V72.6323Z" fill="white"/>
</g>
<defs>
<filter id="filter0_f_0_1082" x="220.535" y="0.167788" width="642.924" height="450.929" filterUnits="userSpaceOnUse" color-interpolation-filters="sRGB">
<feFlood flood-opacity="0" result="BackgroundImageFix"/>
<feBlend mode="normal" in="SourceGraphic" in2="BackgroundImageFix" result="shape"/>
<feGaussianBlur stdDeviation="12.2323" result="effect1_foregroundBlur_0_1082"/>
</filter>
<filter id="filter1_f_0_1082" x="306.535" y="89.1678" width="499.929" height="82.9291" filterUnits="userSpaceOnUse" color-interpolation-filters="sRGB">
<feFlood flood-opacity="0" result="BackgroundImageFix"/>
<feBlend mode="normal" in="SourceGraphic" in2="BackgroundImageFix" result="shape"/>
<feGaussianBlur stdDeviation="12.2323" result="effect1_foregroundBlur_0_1082"/>
</filter>
<filter id="filter2_f_0_1082" x="306.535" y="136.168" width="499.929" height="82.9291" filterUnits="userSpaceOnUse" color-interpolation-filters="sRGB">
<feFlood flood-opacity="0" result="BackgroundImageFix"/>
<feBlend mode="normal" in="SourceGraphic" in2="BackgroundImageFix" result="shape"/>
<feGaussianBlur stdDeviation="12.2323" result="effect1_foregroundBlur_0_1082"/>
</filter>
<filter id="filter3_f_0_1082" x="306.535" y="183.168" width="499.929" height="82.9291" filterUnits="userSpaceOnUse" color-interpolation-filters="sRGB">
<feFlood flood-opacity="0" result="BackgroundImageFix"/>
<feBlend mode="normal" in="SourceGraphic" in2="BackgroundImageFix" result="shape"/>
<feGaussianBlur stdDeviation="12.2323" result="effect1_foregroundBlur_0_1082"/>
</filter>
<filter id="filter4_f_0_1082" x="306.535" y="230.168" width="499.929" height="82.9291" filterUnits="userSpaceOnUse" color-interpolation-filters="sRGB">
<feFlood flood-opacity="0" result="BackgroundImageFix"/>
<feBlend mode="normal" in="SourceGraphic" in2="BackgroundImageFix" result="shape"/>
<feGaussianBlur stdDeviation="12.2323" result="effect1_foregroundBlur_0_1082"/>
</filter>
<filter id="filter5_f_0_1082" x="306.535" y="277.168" width="499.929" height="82.9291" filterUnits="userSpaceOnUse" color-interpolation-filters="sRGB">
<feFlood flood-opacity="0" result="BackgroundImageFix"/>
<feBlend mode="normal" in="SourceGraphic" in2="BackgroundImageFix" result="shape"/>
<feGaussianBlur stdDeviation="12.2323" result="effect1_foregroundBlur_0_1082"/>
</filter>
<filter id="filter6_f_0_1082" x="306.535" y="324.168" width="499.929" height="82.9291" filterUnits="userSpaceOnUse" color-interpolation-filters="sRGB">
<feFlood flood-opacity="0" result="BackgroundImageFix"/>
<feBlend mode="normal" in="SourceGraphic" in2="BackgroundImageFix" result="shape"/>
<feGaussianBlur stdDeviation="12.2323" result="effect1_foregroundBlur_0_1082"/>
</filter>
<filter id="filter7_f_0_1082" x="0.0828209" y="3.71515" width="231.834" height="443.834" filterUnits="userSpaceOnUse" color-interpolation-filters="sRGB">
<feFlood flood-opacity="0" result="BackgroundImageFix"/>
<feBlend mode="normal" in="SourceGraphic" in2="BackgroundImageFix" result="shape"/>
<feGaussianBlur stdDeviation="10.4586" result="effect1_foregroundBlur_0_1082"/>
</filter>
<filter id="filter8_i_0_1082" x="104" y="42.6323" width="28" height="4" filterUnits="userSpaceOnUse" color-interpolation-filters="sRGB">
<feFlood flood-opacity="0" result="BackgroundImageFix"/>
<feBlend mode="normal" in="SourceGraphic" in2="BackgroundImageFix" result="shape"/>
<feColorMatrix in="SourceAlpha" type="matrix" values="0 0 0 0 0 0 0 0 0 0 0 0 0 0 0 0 0 0 127 0" result="hardAlpha"/>
<feOffset/>
<feGaussianBlur stdDeviation="2.5"/>
<feComposite in2="hardAlpha" operator="arithmetic" k2="-1" k3="1"/>
<feColorMatrix type="matrix" values="0 0 0 0 0.894118 0 0 0 0 0.894118 0 0 0 0 0.901961 0 0 0 0.259115 0"/>
<feBlend mode="normal" in2="shape" result="effect1_innerShadow_0_1082"/>
</filter>
<filter id="filter9_i_0_1082" x="104" y="381.632" width="28" height="28" filterUnits="userSpaceOnUse" color-interpolation-filters="sRGB">
<feFlood flood-opacity="0" result="BackgroundImageFix"/>
<feBlend mode="normal" in="SourceGraphic" in2="BackgroundImageFix" result="shape"/>
<feColorMatrix in="SourceAlpha" type="matrix" values="0 0 0 0 0 0 0 0 0 0 0 0 0 0 0 0 0 0 127 0" result="hardAlpha"/>
<feOffset/>
<feGaussianBlur stdDeviation="2.5"/>
<feComposite in2="hardAlpha" operator="arithmetic" k2="-1" k3="1"/>
<feColorMatrix type="matrix" values="0 0 0 0 0.894118 0 0 0 0 0.894118 0 0 0 0 0.901961 0 0 0 0.294158 0"/>
<feBlend mode="normal" in2="shape" result="effect1_innerShadow_0_1082"/>
</filter>
<filter id="filter10_f_0_1082" x="81.5355" y="317.168" width="72.9291" height="72.9291" filterUnits="userSpaceOnUse" color-interpolation-filters="sRGB">
<feFlood flood-opacity="0" result="BackgroundImageFix"/>
<feBlend mode="normal" in="SourceGraphic" in2="BackgroundImageFix" result="shape"/>
<feGaussianBlur stdDeviation="12.2323" result="effect1_foregroundBlur_0_1082"/>
</filter>
<filter id="filter11_f_0_1082" x="12.5355" y="88.1678" width="210.929" height="114.929" filterUnits="userSpaceOnUse" color-interpolation-filters="sRGB">
<feFlood flood-opacity="0" result="BackgroundImageFix"/>
<feBlend mode="normal" in="SourceGraphic" in2="BackgroundImageFix" result="shape"/>
<feGaussianBlur stdDeviation="12.2323" result="effect1_foregroundBlur_0_1082"/>
</filter>
<filter id="filter12_f_0_1082" x="12.5355" y="164.168" width="210.929" height="114.929" filterUnits="userSpaceOnUse" color-interpolation-filters="sRGB">
<feFlood flood-opacity="0" result="BackgroundImageFix"/>
<feBlend mode="normal" in="SourceGraphic" in2="BackgroundImageFix" result="shape"/>
<feGaussianBlur stdDeviation="12.2323" result="effect1_foregroundBlur_0_1082"/>
</filter>
<filter id="filter13_f_0_1082" x="12.5355" y="240.168" width="210.929" height="114.929" filterUnits="userSpaceOnUse" color-interpolation-filters="sRGB">
<feFlood flood-opacity="0" result="BackgroundImageFix"/>
<feBlend mode="normal" in="SourceGraphic" in2="BackgroundImageFix" result="shape"/>
<feGaussianBlur stdDeviation="12.2323" result="effect1_foregroundBlur_0_1082"/>
</filter>
<linearGradient id="paint0_linear_0_1082" x1="227.108" y1="24.6323" x2="227.108" y2="450.851" gradientUnits="userSpaceOnUse">
<stop stop-color="#525981" stop-opacity="0.222883"/>
<stop offset="0.90098" stop-color="#2D324F" stop-opacity="0.222883"/>
<stop offset="1" stop-color="#292D4A" stop-opacity="0.0996377"/>
</linearGradient>
<linearGradient id="paint1_linear_0_1082" x1="245" y1="416.623" x2="845.025" y2="416.623" gradientUnits="userSpaceOnUse">
<stop stop-color="white"/>
<stop offset="0.0202749" stop-color="#F9FBFB"/>
<stop offset="0.0457175" stop-color="white"/>
<stop offset="0.946132" stop-color="white"/>
<stop offset="0.976303" stop-color="#FCFDFD"/>
<stop offset="1" stop-color="white"/>
</linearGradient>
<linearGradient id="paint2_linear_0_1082" x1="1072.91" y1="534.115" x2="1075.75" y2="17.6213" gradientUnits="userSpaceOnUse">
<stop stop-color="white"/>
<stop offset="1" stop-color="#EBF2FA"/>
</linearGradient>
<linearGradient id="paint3_linear_0_1082" x1="317.415" y1="113.632" x2="317.415" y2="149.681" gradientUnits="userSpaceOnUse">
<stop stop-color="#525981" stop-opacity="0.222883"/>
<stop offset="0.90098" stop-color="#2D324F" stop-opacity="0.222883"/>
<stop offset="1" stop-color="#292D4A" stop-opacity="0.0996377"/>
</linearGradient>
<linearGradient id="paint4_linear_0_1082" x1="580.864" y1="106.199" x2="557.501" y2="140.472" gradientUnits="userSpaceOnUse">
<stop stop-color="#63E9FF"/>
<stop offset="1" stop-color="#9577FE"/>
</linearGradient>
<linearGradient id="paint5_linear_0_1082" x1="317.415" y1="160.632" x2="317.415" y2="196.681" gradientUnits="userSpaceOnUse">
<stop stop-color="#525981" stop-opacity="0.222883"/>
<stop offset="0.90098" stop-color="#2D324F" stop-opacity="0.222883"/>
<stop offset="1" stop-color="#292D4A" stop-opacity="0.0996377"/>
</linearGradient>
<linearGradient id="paint6_linear_0_1082" x1="588.382" y1="164.995" x2="588.382" y2="178.632" gradientUnits="userSpaceOnUse">
<stop stop-color="#FFC5B1"/>
<stop offset="1" stop-color="#FF5782"/>
</linearGradient>
<linearGradient id="paint7_linear_0_1082" x1="317.415" y1="207.632" x2="317.415" y2="243.681" gradientUnits="userSpaceOnUse">
<stop stop-color="#525981" stop-opacity="0.222883"/>
<stop offset="0.90098" stop-color="#2D324F" stop-opacity="0.222883"/>
<stop offset="1" stop-color="#292D4A" stop-opacity="0.0996377"/>
</linearGradient>
<linearGradient id="paint8_linear_0_1082" x1="657.592" y1="190.639" x2="656.407" y2="230.888" gradientUnits="userSpaceOnUse">
<stop stop-color="#9CE9CA"/>
<stop offset="1" stop-color="#00CED9"/>
</linearGradient>
<linearGradient id="paint9_linear_0_1082" x1="572.892" y1="188.638" x2="565.07" y2="237.774" gradientUnits="userSpaceOnUse">
<stop stop-color="#63E9FF"/>
<stop offset="1" stop-color="#9577FE"/>
</linearGradient>
<linearGradient id="paint10_linear_0_1082" x1="296.092" y1="134.523" x2="275.557" y2="263.505" gradientUnits="userSpaceOnUse">
<stop stop-color="#63E9FF"/>
<stop offset="1" stop-color="#9577FE"/>
</linearGradient>
<linearGradient id="paint11_linear_0_1082" x1="317.415" y1="254.632" x2="317.415" y2="290.681" gradientUnits="userSpaceOnUse">
<stop stop-color="#525981" stop-opacity="0.222883"/>
<stop offset="0.90098" stop-color="#2D324F" stop-opacity="0.222883"/>
<stop offset="1" stop-color="#292D4A" stop-opacity="0.0996377"/>
</linearGradient>
<linearGradient id="paint12_linear_0_1082" x1="317.415" y1="301.632" x2="317.415" y2="337.681" gradientUnits="userSpaceOnUse">
<stop stop-color="#525981" stop-opacity="0.222883"/>
<stop offset="0.90098" stop-color="#2D324F" stop-opacity="0.222883"/>
<stop offset="1" stop-color="#292D4A" stop-opacity="0.0996377"/>
</linearGradient>
<linearGradient id="paint13_linear_0_1082" x1="317.415" y1="348.632" x2="317.415" y2="384.681" gradientUnits="userSpaceOnUse">
<stop stop-color="#525981" stop-opacity="0.222883"/>
<stop offset="0.90098" stop-color="#2D324F" stop-opacity="0.222883"/>
<stop offset="1" stop-color="#292D4A" stop-opacity="0.0996377"/>
</linearGradient>
<linearGradient id="paint14_linear_0_1082" x1="3128.97" y1="393.127" x2="3128.97" y2="42.1778" gradientUnits="userSpaceOnUse">
<stop stop-color="white"/>
<stop offset="1" stop-color="#EBF2FA"/>
</linearGradient>
<linearGradient id="paint15_linear_0_1082" x1="735.934" y1="30.4332" x2="732.986" y2="71.2108" gradientUnits="userSpaceOnUse">
<stop stop-color="#63E9FF"/>
<stop offset="1" stop-color="#9577FE"/>
</linearGradient>
<linearGradient id="paint16_linear_0_1082" x1="747.753" y1="20.4122" x2="743.644" y2="60.9868" gradientUnits="userSpaceOnUse">
<stop stop-color="#63E9FF"/>
<stop offset="1" stop-color="#9577FE"/>
</linearGradient>
<linearGradient id="paint17_linear_0_1082" x1="-295.975" y1="69.0023" x2="-295.965" y2="151.613" gradientUnits="userSpaceOnUse">
<stop stop-color="white"/>
<stop stop-color="white"/>
<stop offset="1" stop-color="#EBF2FA"/>
</linearGradient>
<linearGradient id="paint18_linear_0_1082" x1="262.639" y1="5.50665" x2="435.251" y2="52.8356" gradientUnits="userSpaceOnUse">
<stop stop-color="#63E9FF"/>
<stop offset="1" stop-color="#9577FE"/>
</linearGradient>
<linearGradient id="paint19_linear_0_1082" x1="15.2768" y1="24.6323" x2="15.2768" y2="450.851" gradientUnits="userSpaceOnUse">
<stop stop-color="#525981" stop-opacity="0.222883"/>
<stop offset="0.90098" stop-color="#2D324F" stop-opacity="0.222883"/>
<stop offset="1" stop-color="#292D4A" stop-opacity="0.0996377"/>
</linearGradient>
<linearGradient id="paint20_linear_0_1082" x1="223.388" y1="427.691" x2="223.388" y2="7.6913" gradientUnits="userSpaceOnUse">
<stop stop-color="white"/>
<stop offset="0.0202749" stop-color="#F9FBFB"/>
<stop offset="0.0457175" stop-color="white"/>
<stop offset="0.946132" stop-color="white"/>
<stop offset="0.976303" stop-color="#FCFDFD"/>
<stop offset="1" stop-color="white"/>
</linearGradient>
<linearGradient id="paint21_linear_0_1082" x1="104" y1="46.5822" x2="132.236" y2="46.5822" gradientUnits="userSpaceOnUse">
<stop stop-color="white"/>
<stop offset="0.0202749" stop-color="#F9FBFB"/>
<stop offset="0.0457175" stop-color="white"/>
<stop offset="0.946132" stop-color="white"/>
<stop offset="0.976303" stop-color="#FCFDFD"/>
<stop offset="1" stop-color="white"/>
</linearGradient>
<linearGradient id="paint22_linear_0_1082" x1="103.577" y1="42.6323" x2="103.577" y2="46.6323" gradientUnits="userSpaceOnUse">
<stop stop-color="#F9FBFD"/>
<stop offset="1" stop-color="white"/>
</linearGradient>
<linearGradient id="paint23_linear_0_1082" x1="104" y1="409.282" x2="132.236" y2="409.282" gradientUnits="userSpaceOnUse">
<stop stop-color="white"/>
<stop offset="0.0202749" stop-color="#F9FBFB"/>
<stop offset="0.0457175" stop-color="white"/>
<stop offset="0.946132" stop-color="white"/>
<stop offset="0.976303" stop-color="#FCFDFD"/>
<stop offset="1" stop-color="white"/>
</linearGradient>
<linearGradient id="paint24_linear_0_1082" x1="103.577" y1="381.632" x2="103.577" y2="409.632" gradientUnits="userSpaceOnUse">
<stop stop-color="#F9FBFD"/>
<stop offset="1" stop-color="white"/>
</linearGradient>
<linearGradient id="paint25_linear_0_1082" x1="299.133" y1="477.182" x2="304.848" y2="49.6113" gradientUnits="userSpaceOnUse">
<stop stop-color="white"/>
<stop offset="1" stop-color="#EBF2FA"/>
</linearGradient>
<linearGradient id="paint26_linear_0_1082" x1="50.5915" y1="318.639" x2="49.4065" y2="358.888" gradientUnits="userSpaceOnUse">
<stop stop-color="#9CE9CA"/>
<stop offset="1" stop-color="#00CED9"/>
</linearGradient>
<linearGradient id="paint27_linear_0_1082" x1="105.277" y1="341.632" x2="105.277" y2="367.078" gradientUnits="userSpaceOnUse">
<stop stop-color="#525981" stop-opacity="0.222883"/>
<stop offset="0.90098" stop-color="#2D324F" stop-opacity="0.222883"/>
<stop offset="1" stop-color="#292D4A" stop-opacity="0.0996377"/>
</linearGradient>
<linearGradient id="paint28_linear_0_1082" x1="32.1202" y1="112.632" x2="32.1202" y2="182.608" gradientUnits="userSpaceOnUse">
<stop stop-color="#525981" stop-opacity="0.222883"/>
<stop offset="0.90098" stop-color="#2D324F" stop-opacity="0.222883"/>
<stop offset="1" stop-color="#292D4A" stop-opacity="0.0996377"/>
</linearGradient>
<linearGradient id="paint29_linear_0_1082" x1="114.979" y1="105.199" x2="91.6158" y2="139.472" gradientUnits="userSpaceOnUse">
<stop stop-color="#63E9FF"/>
<stop offset="1" stop-color="#9577FE"/>
</linearGradient>
<linearGradient id="paint30_linear_0_1082" x1="32.1202" y1="188.632" x2="32.1202" y2="258.608" gradientUnits="userSpaceOnUse">
<stop stop-color="#525981" stop-opacity="0.222883"/>
<stop offset="0.90098" stop-color="#2D324F" stop-opacity="0.222883"/>
<stop offset="1" stop-color="#292D4A" stop-opacity="0.0996377"/>
</linearGradient>
<linearGradient id="paint31_linear_0_1082" x1="122.497" y1="192.995" x2="122.497" y2="206.632" gradientUnits="userSpaceOnUse">
<stop stop-color="#FFC5B1"/>
<stop offset="1" stop-color="#FF5782"/>
</linearGradient>
<linearGradient id="paint32_linear_0_1082" x1="32.1202" y1="264.632" x2="32.1202" y2="334.608" gradientUnits="userSpaceOnUse">
<stop stop-color="#525981" stop-opacity="0.222883"/>
<stop offset="0.90098" stop-color="#2D324F" stop-opacity="0.222883"/>
<stop offset="1" stop-color="#292D4A" stop-opacity="0.0996377"/>
</linearGradient>
<linearGradient id="paint33_linear_0_1082" x1="107.007" y1="245.638" x2="99.1844" y2="294.774" gradientUnits="userSpaceOnUse">
<stop stop-color="#63E9FF"/>
<stop offset="1" stop-color="#9577FE"/>
</linearGradient>
<linearGradient id="paint34_linear_0_1082" x1="-76.9582" y1="47" x2="-76.9582" y2="90.9056" gradientUnits="userSpaceOnUse">
<stop stop-color="#6CD2FE"/>
<stop offset="1" stop-color="#8892FE"/>
</linearGradient>
<linearGradient id="paint35_linear_0_1082" x1="-190.841" y1="81.3283" x2="-190.824" y2="147.417" gradientUnits="userSpaceOnUse">
<stop stop-color="white"/>
<stop stop-color="white"/>
<stop offset="1" stop-color="#EBF2FA"/>
</linearGradient>
</defs>
</svg>
