<svg width="715" height="368" viewBox="0 0 715 368" fill="none" xmlns="http://www.w3.org/2000/svg">
<g opacity="0.522135" filter="url(#filter0_f_0_3461)">
<path fill-rule="evenodd" clip-rule="evenodd" d="M231.33 25.3033L255.407 20.2142H669.218L685.828 31.374L692.222 51.4405L695.196 312.342C695.196 312.342 685.25 327.393 681.559 329.197C677.868 331.002 654.973 347.267 654.973 347.267H258.645C258.645 347.267 234.212 340.683 228.597 335.019C222.982 329.356 220 305.695 220 305.695V51.4405L231.33 25.3033Z" fill="url(#paint0_linear_0_3461)"/>
</g>
<path fill-rule="evenodd" clip-rule="evenodd" d="M220 38.6C220 26.6706 229.671 17 241.6 17H674.4C686.329 17 696 26.6707 696 38.6V316.827C696 328.757 686.329 338.427 674.4 338.427H241.6C229.671 338.427 220 328.757 220 316.827V38.6Z" fill="url(#paint1_linear_0_3461)"/>
<path d="M220.36 38.6C220.36 26.8695 229.869 17.36 241.6 17.36H674.4C686.131 17.36 695.64 26.8695 695.64 38.6V316.827C695.64 328.558 686.131 338.067 674.4 338.067H241.6C229.869 338.067 220.36 328.558 220.36 316.827V38.6Z" stroke="#F0F1F6" stroke-opacity="0.233894" stroke-width="0.72"/>
<path opacity="0.4482" d="M254.13 30.41C254.13 29.4159 254.936 28.61 255.93 28.61H660.07C661.064 28.61 661.87 29.4159 661.87 30.41V324.214C661.87 325.208 661.064 326.014 660.07 326.014H255.93C254.936 326.014 254.13 325.208 254.13 324.214V30.41Z" fill="#E6F0FD" stroke="#C7D8EC" stroke-width="0.72"/>
<path fill-rule="evenodd" clip-rule="evenodd" d="M310.054 73.0827C310.054 72.2874 310.699 71.6427 311.494 71.6427H327.911C328.707 71.6427 329.351 72.2874 329.351 73.0827V89.4883C329.351 90.2836 328.707 90.9283 327.911 90.9283H311.494C310.699 90.9283 310.054 90.2836 310.054 89.4883V73.0827Z" fill="url(#paint2_linear_0_3461)"/>
<path fill-rule="evenodd" clip-rule="evenodd" d="M285.128 29.8571H659.986C660.781 29.8571 661.426 30.5018 661.426 31.2971V62.8034H285.128V29.8571Z" fill="white"/>
<path fill-rule="evenodd" clip-rule="evenodd" d="M311.662 43.5178C311.662 42.1864 312.743 41.1071 314.074 41.1071C315.406 41.1071 316.486 42.1864 316.486 43.5178C316.486 44.8492 315.406 45.9285 314.074 45.9285C312.743 45.9285 311.662 44.8492 311.662 43.5178Z" fill="#FF8E95"/>
<path fill-rule="evenodd" clip-rule="evenodd" d="M302.013 149.876H661.426V192.924H302.013V149.876Z" fill="white"/>
<path fill-rule="evenodd" clip-rule="evenodd" d="M309.202 154.901C309.202 154.503 309.524 154.181 309.922 154.181H365.988C366.385 154.181 366.708 154.503 366.708 154.901V157.048C366.708 157.446 366.385 157.768 365.988 157.768H309.922C309.524 157.768 309.202 157.446 309.202 157.048V154.901Z" fill="#C8D7E9"/>
<path opacity="0.615319" fill-rule="evenodd" clip-rule="evenodd" d="M309.202 162.075C309.202 161.678 309.524 161.355 309.922 161.355H380.364C380.762 161.355 381.084 161.678 381.084 162.075V162.788C381.084 163.185 380.762 163.508 380.364 163.508H309.922C309.524 163.508 309.202 163.185 309.202 162.788V162.075Z" fill="#C8D7E9"/>
<path opacity="0.316916" fill-rule="evenodd" clip-rule="evenodd" d="M613.983 157.773C613.983 156.978 614.628 156.333 615.423 156.333H649.203C649.998 156.333 650.643 156.978 650.643 157.773V169.243C650.643 170.038 649.998 170.683 649.203 170.683H615.423C614.628 170.683 613.983 170.038 613.983 169.243V157.773Z" fill="url(#paint3_linear_0_3461)"/>
<rect x="302.013" y="105.393" width="359.412" height="43.0483" fill="white"/>
<path fill-rule="evenodd" clip-rule="evenodd" d="M309.202 111.852C309.202 111.455 309.524 111.132 309.922 111.132H365.988C366.385 111.132 366.708 111.455 366.708 111.852V114C366.708 114.397 366.385 114.72 365.988 114.72H309.922C309.524 114.72 309.202 114.397 309.202 114V111.852Z" fill="#C8D7E9"/>
<path opacity="0.615319" fill-rule="evenodd" clip-rule="evenodd" d="M309.202 119.027C309.202 118.629 309.524 118.307 309.922 118.307H380.364C380.762 118.307 381.084 118.629 381.084 119.027V119.74C381.084 120.137 380.762 120.46 380.364 120.46H309.922C309.524 120.46 309.202 120.137 309.202 119.74V119.027Z" fill="#C8D7E9"/>
<path fill-rule="evenodd" clip-rule="evenodd" d="M613.983 113.29C613.983 112.495 614.628 111.85 615.423 111.85H649.203C649.998 111.85 650.643 112.495 650.643 113.29V124.759C650.643 125.555 649.998 126.199 649.203 126.199H615.423C614.628 126.199 613.983 125.555 613.983 124.759V113.29Z" fill="url(#paint4_linear_0_3461)"/>
<path fill-rule="evenodd" clip-rule="evenodd" d="M302.013 194.359H661.426V237.407H302.013V194.359Z" fill="white"/>
<path fill-rule="evenodd" clip-rule="evenodd" d="M309.202 200.819C309.202 200.421 309.524 200.099 309.922 200.099H365.988C366.385 200.099 366.708 200.421 366.708 200.819V202.966C366.708 203.364 366.385 203.686 365.988 203.686H309.922C309.524 203.686 309.202 203.364 309.202 202.966V200.819Z" fill="#C8D7E9"/>
<path opacity="0.615319" fill-rule="evenodd" clip-rule="evenodd" d="M309.202 207.994C309.202 207.596 309.524 207.274 309.922 207.274H380.364C380.762 207.274 381.084 207.596 381.084 207.994V208.706C381.084 209.104 380.762 209.426 380.364 209.426H309.922C309.524 209.426 309.202 209.104 309.202 208.706V207.994Z" fill="#C8D7E9"/>
<path opacity="0.316916" fill-rule="evenodd" clip-rule="evenodd" d="M613.983 202.256C613.983 201.461 614.628 200.816 615.423 200.816H649.203C649.998 200.816 650.643 201.461 650.643 202.256V213.726C650.643 214.521 649.998 215.166 649.203 215.166H615.423C614.628 215.166 613.983 214.521 613.983 213.726V202.256Z" fill="url(#paint5_linear_0_3461)"/>
<path fill-rule="evenodd" clip-rule="evenodd" d="M302.013 238.842H661.426V281.891H302.013V238.842Z" fill="white"/>
<path fill-rule="evenodd" clip-rule="evenodd" d="M309.202 245.302C309.202 244.905 309.524 244.582 309.922 244.582H365.988C366.385 244.582 366.708 244.905 366.708 245.302V247.45C366.708 247.847 366.385 248.17 365.988 248.17H309.922C309.524 248.17 309.202 247.847 309.202 247.45V245.302Z" fill="#C8D7E9"/>
<path opacity="0.615319" fill-rule="evenodd" clip-rule="evenodd" d="M309.202 252.477C309.202 252.079 309.524 251.757 309.922 251.757H380.364C380.762 251.757 381.084 252.079 381.084 252.477V253.189C381.084 253.587 380.762 253.909 380.364 253.909H309.922C309.524 253.909 309.202 253.587 309.202 253.189V252.477Z" fill="#C8D7E9"/>
<path opacity="0.316916" fill-rule="evenodd" clip-rule="evenodd" d="M613.983 246.74C613.983 245.944 614.628 245.3 615.423 245.3H649.203C649.998 245.3 650.643 245.944 650.643 246.74V258.209C650.643 259.004 649.998 259.649 649.203 259.649H615.423C614.628 259.649 613.983 259.004 613.983 258.209V246.74Z" fill="url(#paint6_linear_0_3461)"/>
<path fill-rule="evenodd" clip-rule="evenodd" d="M302.013 283.326H661.426V324.934C661.426 325.729 660.781 326.374 659.986 326.374H302.013V283.326Z" fill="white"/>
<path fill-rule="evenodd" clip-rule="evenodd" d="M309.202 289.785C309.202 289.388 309.524 289.065 309.922 289.065H365.988C366.385 289.065 366.708 289.388 366.708 289.785V291.933C366.708 292.33 366.385 292.653 365.988 292.653H309.922C309.524 292.653 309.202 292.33 309.202 291.933V289.785Z" fill="#C8D7E9"/>
<path opacity="0.615319" fill-rule="evenodd" clip-rule="evenodd" d="M309.202 296.96C309.202 296.562 309.524 296.24 309.922 296.24H380.364C380.762 296.24 381.084 296.562 381.084 296.96V297.673C381.084 298.07 380.762 298.393 380.364 298.393H309.922C309.524 298.393 309.202 298.07 309.202 297.673V296.96Z" fill="#C8D7E9"/>
<path opacity="0.316916" fill-rule="evenodd" clip-rule="evenodd" d="M613.983 291.223C613.983 290.428 614.628 289.783 615.423 289.783H649.203C649.998 289.783 650.643 290.428 650.643 291.223V302.692C650.643 303.488 649.998 304.132 649.203 304.132H615.423C614.628 304.132 613.983 303.488 613.983 302.692V291.223Z" fill="url(#paint7_linear_0_3461)"/>
<path fill-rule="evenodd" clip-rule="evenodd" d="M614.791 39.3328C614.791 38.5375 615.435 37.8928 616.231 37.8928H650.337C651.132 37.8928 651.777 38.5375 651.777 39.3328V50.9171C651.777 51.7123 651.132 52.3571 650.337 52.3571H616.231C615.435 52.3571 614.791 51.7123 614.791 50.9171V39.3328Z" fill="url(#paint8_linear_0_3461)"/>
<path opacity="0.957937" fill-rule="evenodd" clip-rule="evenodd" d="M253.77 31.2971C253.77 30.5018 254.415 29.8571 255.21 29.8571H301.209V326.374H255.21C254.415 326.374 253.77 325.729 253.77 324.934V31.2971Z" fill="#20324B"/>
<path fill-rule="evenodd" clip-rule="evenodd" d="M335.784 73.1663C335.784 72.7686 336.106 72.4463 336.504 72.4463H392.152C392.549 72.4463 392.872 72.7686 392.872 73.1663V75.7441C392.872 76.1418 392.549 76.4641 392.152 76.4641H336.504C336.106 76.4641 335.784 76.1418 335.784 75.7441V73.1663Z" fill="#C8D7E9"/>
<path opacity="0.615319" fill-rule="evenodd" clip-rule="evenodd" d="M335.784 81.2019C335.784 80.8043 336.106 80.4819 336.504 80.4819H407.429C407.826 80.4819 408.149 80.8043 408.149 81.2019V82.1726C408.149 82.5703 407.826 82.8926 407.429 82.8926H336.504C336.106 82.8926 335.784 82.5703 335.784 82.1726V81.2019Z" fill="#C8D7E9"/>
<g opacity="0.522135" filter="url(#filter1_f_0_3461)">
<path fill-rule="evenodd" clip-rule="evenodd" d="M23.9864 26.0859L32.4583 20.9977H178.059L183.904 32.1557L186.154 52.2192L187.2 313.081C187.2 313.081 183.701 328.129 182.402 329.933C181.103 331.738 173.047 348 173.047 348H33.5976C33.5976 348 25.0004 341.418 23.0248 335.755C21.0491 330.092 20 306.434 20 306.434V52.2192L23.9864 26.0859Z" fill="url(#paint9_linear_0_3461)"/>
</g>
<path fill-rule="evenodd" clip-rule="evenodd" d="M20 38.5995C20 27.112 29.3125 17.7996 40.8 17.7996H167.2C178.688 17.7996 188 27.112 188 38.5996V318.405C188 329.893 178.688 339.205 167.2 339.205H40.8C29.3125 339.205 20 329.893 20 318.405V38.5995Z" fill="url(#paint10_linear_0_3461)"/>
<path d="M20.36 38.5995C20.36 27.3108 29.5113 18.1596 40.8 18.1596H167.2C178.489 18.1596 187.64 27.3109 187.64 38.5996V318.405C187.64 329.694 178.489 338.845 167.2 338.845H40.8C29.5113 338.845 20.36 329.694 20.36 318.405V38.5995Z" stroke="#F0F1F6" stroke-opacity="0.233894" stroke-width="0.72"/>
<g filter="url(#filter2_i_0_3461)">
<path fill-rule="evenodd" clip-rule="evenodd" d="M104 327.213C109.744 327.213 114.4 322.559 114.4 316.819C114.4 311.079 109.744 306.425 104 306.425C98.2563 306.425 93.6001 311.079 93.6001 316.819C93.6001 322.559 98.2563 327.213 104 327.213Z" fill="url(#paint11_linear_0_3461)"/>
</g>
<path d="M114.04 316.819C114.04 322.36 109.545 326.853 104 326.853C98.455 326.853 93.9601 322.36 93.9601 316.819C93.9601 311.278 98.455 306.785 104 306.785C109.545 306.785 114.04 311.278 114.04 316.819Z" stroke="#F0F1F6" stroke-opacity="0.233894" stroke-width="0.72"/>
<g opacity="0.4482">
<path fill-rule="evenodd" clip-rule="evenodd" d="M34.3999 48.7421C34.3999 47.5492 35.367 46.5822 36.5599 46.5822H172.24C173.433 46.5822 174.4 47.5492 174.4 48.7422V293.072C174.4 294.265 173.433 295.232 172.24 295.232H36.5599C35.367 295.232 34.3999 294.265 34.3999 293.072V48.7421Z" fill="#E6F0FD"/>
<path d="M34.7599 48.7421C34.7599 47.748 35.5658 46.9422 36.5599 46.9422H172.24C173.234 46.9422 174.04 47.748 174.04 48.7422V293.072C174.04 294.066 173.234 294.872 172.24 294.872H36.5599C35.5658 294.872 34.7599 294.066 34.7599 293.072V48.7421Z" stroke="#C7D8EC" stroke-opacity="0.13536" stroke-width="0.72"/>
</g>
<mask id="mask0_0_3461" style="mask-type:alpha" maskUnits="userSpaceOnUse" x="34" y="46" width="141" height="250">
<path fill-rule="evenodd" clip-rule="evenodd" d="M34.3999 48.7421C34.3999 47.5492 35.367 46.5822 36.5599 46.5822H172.24C173.433 46.5822 174.4 47.5492 174.4 48.7422V293.072C174.4 294.265 173.433 295.232 172.24 295.232H36.5599C35.367 295.232 34.3999 294.265 34.3999 293.072V48.7421Z" fill="white"/>
<path d="M34.7599 48.7421C34.7599 47.748 35.5658 46.9422 36.5599 46.9422H172.24C173.234 46.9422 174.04 47.748 174.04 48.7422V293.072C174.04 294.066 173.234 294.872 172.24 294.872H36.5599C35.5658 294.872 34.7599 294.066 34.7599 293.072V48.7421Z" stroke="white" stroke-width="0.72"/>
</mask>
<g mask="url(#mask0_0_3461)">
<rect x="35.2" y="64.1715" width="138.4" height="32.7802" fill="white"/>
<path fill-rule="evenodd" clip-rule="evenodd" d="M144.827 70.3253C144.827 69.8834 145.185 69.5253 145.627 69.5253H164.827C165.269 69.5253 165.627 69.8834 165.627 70.3253V78.3195C165.627 78.7613 165.269 79.1195 164.827 79.1195H145.627C145.185 79.1195 144.827 78.7613 144.827 78.3195V70.3253Z" fill="url(#paint12_linear_0_3461)"/>
<rect opacity="0.957937" x="34.3999" y="46.5822" width="140" height="16.7899" fill="#20324B"/>
<path fill-rule="evenodd" clip-rule="evenodd" d="M167.2 56.1764C167.642 56.1764 168 55.8185 168 55.3769C168 54.9353 167.642 54.5774 167.2 54.5774C166.758 54.5774 166.4 54.9353 166.4 55.3769C166.4 55.8185 166.758 56.1764 167.2 56.1764Z" fill="white"/>
<path fill-rule="evenodd" clip-rule="evenodd" d="M35.2 187.297H173.6V208.085H35.2V187.297Z" fill="white"/>
<rect x="144.8" y="192.094" width="20.8" height="9.5942" rx="0.8" fill="url(#paint13_linear_0_3461)"/>
<path fill-rule="evenodd" clip-rule="evenodd" d="M41.5999 192.894C41.5999 192.452 41.9578 192.094 42.3994 192.094H65.6003C66.0419 192.094 66.3999 192.452 66.3999 192.894C66.3999 193.335 66.0419 193.693 65.6003 193.693H42.3994C41.9578 193.693 41.5999 193.335 41.5999 192.894Z" fill="#C8D7E9"/>
<path opacity="0.615319" fill-rule="evenodd" clip-rule="evenodd" d="M41.5999 195.692C41.5999 195.471 41.7788 195.292 41.9996 195.292H66.0001C66.2209 195.292 66.3999 195.471 66.3999 195.692C66.3999 195.913 66.2209 196.092 66.0001 196.092H41.9996C41.7788 196.092 41.5999 195.913 41.5999 195.692Z" fill="#C8D7E9"/>
<rect opacity="0.615319" x="41.5999" y="197.691" width="22.4" height="0.799517" rx="0.399758" fill="#C8D7E9"/>
<path fill-rule="evenodd" clip-rule="evenodd" d="M35.2 208.884H173.6V229.671H35.2V208.884Z" fill="white"/>
<rect opacity="0.316916" x="144.8" y="213.681" width="20.8" height="9.5942" rx="0.8" fill="url(#paint14_linear_0_3461)"/>
<path fill-rule="evenodd" clip-rule="evenodd" d="M41.5999 214.481C41.5999 214.039 41.9578 213.681 42.3994 213.681H65.6003C66.0419 213.681 66.3999 214.039 66.3999 214.481C66.3999 214.922 66.0419 215.28 65.6003 215.28H42.3994C41.9578 215.28 41.5999 214.922 41.5999 214.481Z" fill="#C8D7E9"/>
<path opacity="0.615319" fill-rule="evenodd" clip-rule="evenodd" d="M41.5999 217.279C41.5999 217.058 41.7788 216.879 41.9996 216.879H66.0001C66.2209 216.879 66.3999 217.058 66.3999 217.279C66.3999 217.5 66.2209 217.679 66.0001 217.679H41.9996C41.7788 217.679 41.5999 217.5 41.5999 217.279Z" fill="#C8D7E9"/>
<rect opacity="0.615319" x="41.5999" y="219.278" width="22.4" height="0.799517" rx="0.399758" fill="#C8D7E9"/>
<path fill-rule="evenodd" clip-rule="evenodd" d="M35.2 230.471H173.6V251.259H35.2V230.471Z" fill="white"/>
<rect opacity="0.316916" x="144.8" y="235.268" width="20.8" height="9.5942" rx="0.8" fill="url(#paint15_linear_0_3461)"/>
<path fill-rule="evenodd" clip-rule="evenodd" d="M41.5999 236.068C41.5999 235.626 41.9578 235.268 42.3994 235.268H65.6003C66.0419 235.268 66.3999 235.626 66.3999 236.068C66.3999 236.509 66.0419 236.867 65.6003 236.867H42.3994C41.9578 236.867 41.5999 236.509 41.5999 236.068Z" fill="#C8D7E9"/>
<path opacity="0.615319" fill-rule="evenodd" clip-rule="evenodd" d="M41.5999 238.866C41.5999 238.645 41.7788 238.466 41.9996 238.466H66.0001C66.2209 238.466 66.3999 238.645 66.3999 238.866C66.3999 239.087 66.2209 239.266 66.0001 239.266H41.9996C41.7788 239.266 41.5999 239.087 41.5999 238.866Z" fill="#C8D7E9"/>
<rect opacity="0.615319" x="41.5999" y="240.865" width="22.4" height="0.799517" rx="0.399758" fill="#C8D7E9"/>
<path fill-rule="evenodd" clip-rule="evenodd" d="M35.2 252.058H173.6V272.845H35.2V252.058Z" fill="white"/>
<rect opacity="0.316916" x="144.8" y="256.855" width="20.8" height="9.5942" rx="0.8" fill="url(#paint16_linear_0_3461)"/>
<path fill-rule="evenodd" clip-rule="evenodd" d="M41.5999 257.655C41.5999 257.213 41.9578 256.855 42.3994 256.855H65.6003C66.0419 256.855 66.3999 257.213 66.3999 257.655C66.3999 258.096 66.0419 258.454 65.6003 258.454H42.3994C41.9578 258.454 41.5999 258.096 41.5999 257.655Z" fill="#C8D7E9"/>
<path opacity="0.615319" fill-rule="evenodd" clip-rule="evenodd" d="M41.5999 260.453C41.5999 260.232 41.7788 260.053 41.9996 260.053H66.0001C66.2209 260.053 66.3999 260.232 66.3999 260.453C66.3999 260.674 66.2209 260.853 66.0001 260.853H41.9996C41.7788 260.853 41.5999 260.674 41.5999 260.453Z" fill="#C8D7E9"/>
<rect opacity="0.615319" x="41.5999" y="262.452" width="22.4" height="0.799517" rx="0.399758" fill="#C8D7E9"/>
<path fill-rule="evenodd" clip-rule="evenodd" d="M35.2 273.645H173.6V294.432H35.2V273.645Z" fill="white"/>
<rect opacity="0.316916" x="144.8" y="278.442" width="20.8" height="9.5942" rx="0.8" fill="url(#paint17_linear_0_3461)"/>
<path fill-rule="evenodd" clip-rule="evenodd" d="M41.5999 279.242C41.5999 278.8 41.9578 278.442 42.3994 278.442H65.6003C66.0419 278.442 66.3999 278.8 66.3999 279.242C66.3999 279.683 66.0419 280.041 65.6003 280.041H42.3994C41.9578 280.041 41.5999 279.683 41.5999 279.242Z" fill="#C8D7E9"/>
<path opacity="0.615319" fill-rule="evenodd" clip-rule="evenodd" d="M41.5999 282.04C41.5999 281.819 41.7788 281.64 41.9996 281.64H66.0001C66.2209 281.64 66.3999 281.819 66.3999 282.04C66.3999 282.261 66.2209 282.44 66.0001 282.44H41.9996C41.7788 282.44 41.5999 282.261 41.5999 282.04Z" fill="#C8D7E9"/>
<rect opacity="0.615319" x="41.5999" y="284.039" width="22.4" height="0.799517" rx="0.399758" fill="#C8D7E9"/>
<path fill-rule="evenodd" clip-rule="evenodd" d="M35.2 97.7512H173.6V118.539H35.2V97.7512Z" fill="white"/>
<rect x="41.5999" y="102.548" width="9.6" height="9.5942" rx="0.8" fill="url(#paint18_linear_0_3461)"/>
<rect x="144.8" y="102.548" width="20.8" height="9.5942" rx="0.8" fill="url(#paint19_linear_0_3461)"/>
<rect x="53.5999" y="102.548" width="24.8" height="1.59903" rx="0.799517" fill="#C8D7E9"/>
<rect opacity="0.615319" x="53.5999" y="105.746" width="24.8" height="0.799517" rx="0.399758" fill="#C8D7E9"/>
<rect opacity="0.615319" x="53.5999" y="108.145" width="22.4" height="0.799517" rx="0.399758" fill="#C8D7E9"/>
<rect x="40.7356" y="70.2214" width="9.6" height="9.5942" rx="0.8" fill="url(#paint20_linear_0_3461)"/>
<rect x="52.7356" y="70.2214" width="24.8" height="1.59903" rx="0.799517" fill="#C8D7E9"/>
<rect opacity="0.615319" x="52.7356" y="73.4196" width="24.8" height="0.799517" rx="0.399758" fill="#C8D7E9"/>
<rect opacity="0.615319" x="52.7356" y="75.8181" width="22.4" height="0.799517" rx="0.399758" fill="#C8D7E9"/>
</g>
<defs>
<filter id="filter0_f_0_3461" x="200.428" y="0.642605" width="514.339" height="366.196" filterUnits="userSpaceOnUse" color-interpolation-filters="sRGB">
<feFlood flood-opacity="0" result="BackgroundImageFix"/>
<feBlend mode="normal" in="SourceGraphic" in2="BackgroundImageFix" result="shape"/>
<feGaussianBlur stdDeviation="9.78581" result="effect1_foregroundBlur_0_3461"/>
</filter>
<filter id="filter1_f_0_3461" x="0.428371" y="1.42605" width="206.343" height="366.146" filterUnits="userSpaceOnUse" color-interpolation-filters="sRGB">
<feFlood flood-opacity="0" result="BackgroundImageFix"/>
<feBlend mode="normal" in="SourceGraphic" in2="BackgroundImageFix" result="shape"/>
<feGaussianBlur stdDeviation="9.78581" result="effect1_foregroundBlur_0_3461"/>
</filter>
<filter id="filter2_i_0_3461" x="93.6001" y="306.425" width="20.8" height="21.7875" filterUnits="userSpaceOnUse" color-interpolation-filters="sRGB">
<feFlood flood-opacity="0" result="BackgroundImageFix"/>
<feBlend mode="normal" in="SourceGraphic" in2="BackgroundImageFix" result="shape"/>
<feColorMatrix in="SourceAlpha" type="matrix" values="0 0 0 0 0 0 0 0 0 0 0 0 0 0 0 0 0 0 127 0" result="hardAlpha"/>
<feOffset dy="1"/>
<feGaussianBlur stdDeviation="1"/>
<feComposite in2="hardAlpha" operator="arithmetic" k2="-1" k3="1"/>
<feColorMatrix type="matrix" values="0 0 0 0 0.894118 0 0 0 0 0.894118 0 0 0 0 0.901961 0 0 0 0.380491 0"/>
<feBlend mode="normal" in2="shape" result="effect1_innerShadow_0_3461"/>
</filter>
<linearGradient id="paint0_linear_0_3461" x1="205.686" y1="20.2142" x2="205.686" y2="366.97" gradientUnits="userSpaceOnUse">
<stop stop-color="#525981" stop-opacity="0.222883"/>
<stop offset="0.90098" stop-color="#2D324F" stop-opacity="0.222883"/>
<stop offset="1" stop-color="#292D4A" stop-opacity="0.0996377"/>
</linearGradient>
<linearGradient id="paint1_linear_0_3461" x1="220" y1="334.401" x2="700.02" y2="334.401" gradientUnits="userSpaceOnUse">
<stop stop-color="white"/>
<stop offset="0.0202749" stop-color="#F9FBFB"/>
<stop offset="0.0457175" stop-color="white"/>
<stop offset="0.946132" stop-color="white"/>
<stop offset="0.976303" stop-color="#FCFDFD"/>
<stop offset="1" stop-color="white"/>
</linearGradient>
<linearGradient id="paint2_linear_0_3461" x1="308.85" y1="70.0361" x2="308.85" y2="88.51" gradientUnits="userSpaceOnUse">
<stop stop-color="#FFC5B1"/>
<stop offset="1" stop-color="#FF5782"/>
</linearGradient>
<linearGradient id="paint3_linear_0_3461" x1="628.921" y1="150.828" x2="622.641" y2="171.739" gradientUnits="userSpaceOnUse">
<stop stop-color="#C2F1A1"/>
<stop offset="1" stop-color="#8EE067"/>
</linearGradient>
<linearGradient id="paint4_linear_0_3461" x1="628.921" y1="106.345" x2="622.641" y2="127.256" gradientUnits="userSpaceOnUse">
<stop stop-color="#C2F1A1"/>
<stop offset="1" stop-color="#8EE067"/>
</linearGradient>
<linearGradient id="paint5_linear_0_3461" x1="628.921" y1="195.311" x2="622.641" y2="216.222" gradientUnits="userSpaceOnUse">
<stop stop-color="#C2F1A1"/>
<stop offset="1" stop-color="#8EE067"/>
</linearGradient>
<linearGradient id="paint6_linear_0_3461" x1="628.921" y1="239.795" x2="622.641" y2="260.705" gradientUnits="userSpaceOnUse">
<stop stop-color="#C2F1A1"/>
<stop offset="1" stop-color="#8EE067"/>
</linearGradient>
<linearGradient id="paint7_linear_0_3461" x1="628.921" y1="284.278" x2="622.641" y2="305.189" gradientUnits="userSpaceOnUse">
<stop stop-color="#C2F1A1"/>
<stop offset="1" stop-color="#8EE067"/>
</linearGradient>
<linearGradient id="paint8_linear_0_3461" x1="614.791" y1="37.8928" x2="614.791" y2="52.3571" gradientUnits="userSpaceOnUse">
<stop stop-color="#00E2C8"/>
<stop offset="1" stop-color="#327FF6"/>
</linearGradient>
<linearGradient id="paint9_linear_0_3461" x1="14.9636" y1="20.9977" x2="14.9636" y2="367.7" gradientUnits="userSpaceOnUse">
<stop stop-color="#525981" stop-opacity="0.222883"/>
<stop offset="0.90098" stop-color="#2D324F" stop-opacity="0.222883"/>
<stop offset="1" stop-color="#292D4A" stop-opacity="0.0996377"/>
</linearGradient>
<linearGradient id="paint10_linear_0_3461" x1="20" y1="335.179" x2="189.419" y2="335.179" gradientUnits="userSpaceOnUse">
<stop stop-color="white"/>
<stop offset="0.0202749" stop-color="#F9FBFB"/>
<stop offset="0.0457175" stop-color="white"/>
<stop offset="0.946132" stop-color="white"/>
<stop offset="0.976303" stop-color="#FCFDFD"/>
<stop offset="1" stop-color="white"/>
</linearGradient>
<linearGradient id="paint11_linear_0_3461" x1="93.6001" y1="326.952" x2="114.576" y2="326.952" gradientUnits="userSpaceOnUse">
<stop stop-color="white"/>
<stop offset="0.0202749" stop-color="#F9FBFB"/>
<stop offset="0.0457175" stop-color="white"/>
<stop offset="0.946132" stop-color="white"/>
<stop offset="0.976303" stop-color="#FCFDFD"/>
<stop offset="1" stop-color="white"/>
</linearGradient>
<linearGradient id="paint12_linear_0_3461" x1="144.827" y1="69.5253" x2="144.827" y2="79.1195" gradientUnits="userSpaceOnUse">
<stop stop-color="#00E2C8"/>
<stop offset="1" stop-color="#327FF6"/>
</linearGradient>
<linearGradient id="paint13_linear_0_3461" x1="153.275" y1="188.414" x2="148.481" y2="201.959" gradientUnits="userSpaceOnUse">
<stop stop-color="#C2F1A1"/>
<stop offset="1" stop-color="#8EE067"/>
</linearGradient>
<linearGradient id="paint14_linear_0_3461" x1="153.275" y1="210.001" x2="148.481" y2="223.546" gradientUnits="userSpaceOnUse">
<stop stop-color="#C2F1A1"/>
<stop offset="1" stop-color="#8EE067"/>
</linearGradient>
<linearGradient id="paint15_linear_0_3461" x1="153.275" y1="231.588" x2="148.481" y2="245.133" gradientUnits="userSpaceOnUse">
<stop stop-color="#C2F1A1"/>
<stop offset="1" stop-color="#8EE067"/>
</linearGradient>
<linearGradient id="paint16_linear_0_3461" x1="153.275" y1="253.175" x2="148.481" y2="266.72" gradientUnits="userSpaceOnUse">
<stop stop-color="#C2F1A1"/>
<stop offset="1" stop-color="#8EE067"/>
</linearGradient>
<linearGradient id="paint17_linear_0_3461" x1="153.275" y1="274.762" x2="148.481" y2="288.307" gradientUnits="userSpaceOnUse">
<stop stop-color="#C2F1A1"/>
<stop offset="1" stop-color="#8EE067"/>
</linearGradient>
<linearGradient id="paint18_linear_0_3461" x1="46.3999" y1="98.6882" x2="38.6806" y2="108.287" gradientUnits="userSpaceOnUse">
<stop stop-color="#FF7272"/>
<stop offset="1" stop-color="#FFBE3E"/>
</linearGradient>
<linearGradient id="paint19_linear_0_3461" x1="144.8" y1="102.548" x2="144.8" y2="112.143" gradientUnits="userSpaceOnUse">
<stop stop-color="#00E2C8"/>
<stop offset="1" stop-color="#327FF6"/>
</linearGradient>
<linearGradient id="paint20_linear_0_3461" x1="45.5356" y1="66.3613" x2="37.8163" y2="75.9601" gradientUnits="userSpaceOnUse">
<stop stop-color="#FF7272"/>
<stop offset="1" stop-color="#FFBE3E"/>
</linearGradient>
</defs>
</svg>
