<svg width="703" height="539" viewBox="0 0 703 539" fill="none" xmlns="http://www.w3.org/2000/svg">
<g opacity="0.522135" filter="url(#filter0_f_0_1082)">
<path fill-rule="evenodd" clip-rule="evenodd" d="M254.729 97.9576L283.839 88.0811L797.247 25.0426L819.527 36.1272L830.465 59.6342L873.237 377.481C873.237 377.481 863.152 397.357 858.843 400.121C854.534 402.885 828.565 426.216 828.565 426.216L336.848 486.591C336.848 486.591 305.547 482.282 297.732 476.227C289.918 470.173 282.674 441.761 282.674 441.761L244.588 131.571L254.729 97.9576Z" fill="url(#paint0_linear_0_1082)"/>
</g>
<path fill-rule="evenodd" clip-rule="evenodd" d="M242.591 115.311C240.774 100.51 251.299 87.039 266.099 85.2217L803.067 19.2904C817.867 17.4731 831.339 27.9982 833.156 42.7987L875.57 388.232C877.387 403.032 866.862 416.504 852.062 418.321L315.094 484.252C300.294 486.069 286.822 475.544 285.005 460.744L242.591 115.311Z" fill="url(#paint1_linear_0_1082)"/>
<path d="M243.038 115.256C241.251 100.702 251.6 87.4554 266.154 85.6684L803.122 19.7371C817.675 17.9501 830.922 28.2997 832.709 42.8535L875.123 388.286C876.91 402.84 866.561 416.087 852.007 417.874L315.039 483.805C300.485 485.592 287.238 475.243 285.451 460.689L243.038 115.256Z" stroke="#F0F1F6" stroke-opacity="0.233894" stroke-width="0.9"/>
<path fill-rule="evenodd" clip-rule="evenodd" d="M283.145 100.962C282.963 99.4817 284.015 98.1345 285.495 97.9528L786.334 36.4575C787.814 36.2758 789.161 37.3283 789.343 38.8084L834.02 402.676C834.202 404.156 833.15 405.503 831.67 405.685L330.831 467.18C329.351 467.362 328.004 466.309 327.822 464.829L283.145 100.962Z" fill="url(#paint2_linear_0_1082)"/>
<g opacity="0.3" filter="url(#filter1_f_0_1082)">
<rect x="336.115" y="171.331" width="451" height="34" transform="rotate(-7 336.115 171.331)" fill="url(#paint3_linear_0_1082)"/>
</g>
<rect x="335.75" y="168.353" width="451" height="34" rx="5" transform="rotate(-7 335.75 168.353)" fill="white"/>
<path opacity="0.615319" fill-rule="evenodd" clip-rule="evenodd" d="M703.139 140.875C702.769 137.86 704.913 135.116 707.928 134.745L748.622 129.749C751.637 129.379 754.381 131.523 754.752 134.538C755.122 137.552 752.978 140.297 749.963 140.667L709.269 145.663C706.254 146.034 703.509 143.89 703.139 140.875Z" fill="#C8D7E9"/>
<path fill-rule="evenodd" clip-rule="evenodd" d="M599.349 157.145C601.541 156.876 603.101 154.88 602.831 152.687C602.562 150.495 600.566 148.935 598.374 149.205C596.181 149.474 594.622 151.47 594.891 153.662C595.16 155.855 597.156 157.414 599.349 157.145Z" fill="url(#paint4_linear_0_1082)"/>
<path opacity="0.615319" fill-rule="evenodd" clip-rule="evenodd" d="M612.574 149.98C612.54 149.706 612.735 149.456 613.009 149.423L656.681 144.06C656.955 144.027 657.205 144.222 657.239 144.496L657.604 147.473C657.638 147.748 657.443 147.997 657.169 148.031L613.497 153.393C613.223 153.427 612.973 153.232 612.94 152.958L612.574 149.98Z" fill="#C8D7E9"/>
<path opacity="0.615319" fill-rule="evenodd" clip-rule="evenodd" d="M359.387 192.654C365.143 191.947 369.236 186.708 368.529 180.952C367.823 175.196 362.584 171.103 356.828 171.81C351.072 172.517 346.979 177.756 347.686 183.511C348.393 189.267 353.632 193.36 359.387 192.654Z" fill="#C8D7E9"/>
<path opacity="0.615319" fill-rule="evenodd" clip-rule="evenodd" d="M378.333 178.741C378.299 178.467 378.494 178.217 378.768 178.184L417.478 173.431C417.752 173.397 418.001 173.592 418.035 173.866L418.4 176.844C418.434 177.118 418.239 177.367 417.965 177.401L379.256 182.154C378.982 182.188 378.732 181.993 378.699 181.719L378.333 178.741Z" fill="#C8D7E9"/>
<path opacity="0.615319" fill-rule="evenodd" clip-rule="evenodd" d="M499.424 163.873C499.39 163.599 499.585 163.349 499.859 163.316L548.494 157.344C548.768 157.31 549.017 157.505 549.051 157.779L549.417 160.757C549.45 161.031 549.255 161.281 548.981 161.314L500.346 167.286C500.072 167.319 499.823 167.125 499.789 166.85L499.424 163.873Z" fill="#C8D7E9"/>
<g opacity="0.3" filter="url(#filter2_f_0_1082)">
<rect x="341.843" y="217.98" width="451" height="34" transform="rotate(-7 341.843 217.98)" fill="url(#paint5_linear_0_1082)"/>
</g>
<rect x="341.477" y="215.003" width="451" height="34" rx="5" transform="rotate(-7 341.477 215.003)" fill="white"/>
<path fill-rule="evenodd" clip-rule="evenodd" d="M605.076 203.795C607.269 203.525 608.828 201.53 608.559 199.337C608.29 197.144 606.294 195.585 604.101 195.854C601.909 196.124 600.349 198.119 600.619 200.312C600.888 202.505 602.884 204.064 605.076 203.795Z" fill="url(#paint6_linear_0_1082)"/>
<path opacity="0.615319" fill-rule="evenodd" clip-rule="evenodd" d="M618.302 196.63C618.268 196.355 618.463 196.106 618.737 196.072L662.409 190.71C662.683 190.676 662.933 190.871 662.966 191.145L663.332 194.123C663.366 194.397 663.171 194.647 662.897 194.68L619.225 200.043C618.951 200.076 618.701 199.881 618.667 199.607L618.302 196.63Z" fill="#C8D7E9"/>
<path opacity="0.615319" fill-rule="evenodd" clip-rule="evenodd" d="M365.115 239.303C370.871 238.597 374.964 233.358 374.257 227.602C373.551 221.846 368.312 217.753 362.556 218.46C356.8 219.166 352.707 224.405 353.414 230.161C354.121 235.917 359.359 240.01 365.115 239.303Z" fill="#C8D7E9"/>
<path opacity="0.615319" fill-rule="evenodd" clip-rule="evenodd" d="M384.061 225.391C384.027 225.117 384.222 224.867 384.496 224.833L423.205 220.081C423.48 220.047 423.729 220.242 423.763 220.516L424.128 223.494C424.162 223.768 423.967 224.017 423.693 224.051L384.984 228.804C384.71 228.837 384.46 228.642 384.426 228.368L384.061 225.391Z" fill="#C8D7E9"/>
<path opacity="0.615319" fill-rule="evenodd" clip-rule="evenodd" d="M505.152 210.523C505.118 210.248 505.313 209.999 505.587 209.965L554.222 203.994C554.496 203.96 554.745 204.155 554.779 204.429L555.144 207.407C555.178 207.681 554.983 207.93 554.709 207.964L506.074 213.935C505.8 213.969 505.551 213.774 505.517 213.5L505.152 210.523Z" fill="#C8D7E9"/>
<g opacity="0.3" filter="url(#filter3_f_0_1082)">
<rect x="347.571" y="264.63" width="451" height="34" transform="rotate(-7 347.571 264.63)" fill="url(#paint7_linear_0_1082)"/>
</g>
<rect x="347.205" y="261.652" width="451" height="34" rx="5" transform="rotate(-7 347.205 261.652)" fill="white"/>
<path fill-rule="evenodd" clip-rule="evenodd" d="M610.804 250.444C612.997 250.175 614.556 248.179 614.287 245.987C614.018 243.794 612.022 242.235 609.829 242.504C607.637 242.773 606.077 244.769 606.347 246.962C606.616 249.154 608.612 250.714 610.804 250.444Z" fill="url(#paint8_linear_0_1082)"/>
<path opacity="0.615319" fill-rule="evenodd" clip-rule="evenodd" d="M624.03 243.279C623.996 243.005 624.191 242.756 624.465 242.722L668.137 237.36C668.411 237.326 668.661 237.521 668.694 237.795L669.06 240.773C669.094 241.047 668.899 241.296 668.625 241.33L624.953 246.692C624.678 246.726 624.429 246.531 624.395 246.257L624.03 243.279Z" fill="#C8D7E9"/>
<path fill-rule="evenodd" clip-rule="evenodd" d="M370.843 285.953C376.599 285.246 380.692 280.007 379.985 274.252C379.278 268.496 374.039 264.403 368.284 265.109C362.528 265.816 358.435 271.055 359.142 276.811C359.848 282.567 365.087 286.66 370.843 285.953Z" fill="url(#paint9_linear_0_1082)"/>
<path opacity="0.615319" fill-rule="evenodd" clip-rule="evenodd" d="M389.789 272.04C389.755 271.766 389.95 271.517 390.224 271.483L428.933 266.73C429.207 266.697 429.457 266.891 429.491 267.166L429.856 270.143C429.89 270.417 429.695 270.667 429.421 270.7L390.712 275.453C390.437 275.487 390.188 275.292 390.154 275.018L389.789 272.04Z" fill="#C8D7E9"/>
<path opacity="0.615319" fill-rule="evenodd" clip-rule="evenodd" d="M510.879 257.172C510.846 256.898 511.041 256.649 511.315 256.615L559.949 250.643C560.223 250.61 560.473 250.805 560.507 251.079L560.872 254.056C560.906 254.33 560.711 254.58 560.437 254.614L511.802 260.585C511.528 260.619 511.279 260.424 511.245 260.15L510.879 257.172Z" fill="#C8D7E9"/>
<g opacity="0.3" filter="url(#filter4_f_0_1082)">
<rect x="353.299" y="311.28" width="451" height="34" transform="rotate(-7 353.299 311.28)" fill="url(#paint10_linear_0_1082)"/>
</g>
<rect x="352.933" y="308.302" width="451" height="34" rx="5" transform="rotate(-7 352.933 308.302)" fill="white"/>
<path opacity="0.615319" fill-rule="evenodd" clip-rule="evenodd" d="M616.532 297.094C618.725 296.825 620.284 294.829 620.015 292.636C619.746 290.444 617.75 288.884 615.557 289.154C613.364 289.423 611.805 291.419 612.074 293.611C612.344 295.804 614.339 297.363 616.532 297.094Z" fill="#C8D7E9"/>
<path opacity="0.615319" fill-rule="evenodd" clip-rule="evenodd" d="M629.757 289.929C629.724 289.655 629.919 289.405 630.193 289.372L673.865 284.009C674.139 283.976 674.388 284.171 674.422 284.445L674.788 287.422C674.821 287.696 674.626 287.946 674.352 287.98L630.68 293.342C630.406 293.376 630.157 293.181 630.123 292.907L629.757 289.929Z" fill="#C8D7E9"/>
<path opacity="0.615319" fill-rule="evenodd" clip-rule="evenodd" d="M376.571 332.603C382.327 331.896 386.42 326.657 385.713 320.901C385.006 315.145 379.767 311.052 374.012 311.759C368.256 312.466 364.163 317.705 364.869 323.46C365.576 329.216 370.815 333.309 376.571 332.603Z" fill="#C8D7E9"/>
<path opacity="0.615319" fill-rule="evenodd" clip-rule="evenodd" d="M395.517 318.69C395.483 318.416 395.678 318.166 395.952 318.133L434.661 313.38C434.935 313.346 435.185 313.541 435.218 313.815L435.584 316.793C435.618 317.067 435.423 317.316 435.149 317.35L396.439 322.103C396.165 322.137 395.916 321.942 395.882 321.668L395.517 318.69Z" fill="#C8D7E9"/>
<path opacity="0.615319" fill-rule="evenodd" clip-rule="evenodd" d="M516.607 303.822C516.574 303.548 516.768 303.298 517.043 303.265L565.677 297.293C565.951 297.259 566.201 297.454 566.235 297.728L566.6 300.706C566.634 300.98 566.439 301.23 566.165 301.263L517.53 307.235C517.256 307.268 517.006 307.074 516.973 306.799L516.607 303.822Z" fill="#C8D7E9"/>
<g opacity="0.3" filter="url(#filter5_f_0_1082)">
<rect x="359.027" y="357.929" width="451" height="34" transform="rotate(-7 359.027 357.929)" fill="url(#paint11_linear_0_1082)"/>
</g>
<rect x="358.661" y="354.952" width="451" height="34" rx="5" transform="rotate(-7 358.661 354.952)" fill="white"/>
<path opacity="0.615319" fill-rule="evenodd" clip-rule="evenodd" d="M622.26 343.744C624.453 343.474 626.012 341.479 625.743 339.286C625.473 337.093 623.478 335.534 621.285 335.803C619.092 336.073 617.533 338.068 617.802 340.261C618.072 342.454 620.067 344.013 622.26 343.744Z" fill="#C8D7E9"/>
<path opacity="0.615319" fill-rule="evenodd" clip-rule="evenodd" d="M635.485 336.579C635.452 336.304 635.647 336.055 635.921 336.021L679.593 330.659C679.867 330.625 680.116 330.82 680.15 331.094L680.516 334.072C680.549 334.346 680.354 334.596 680.08 334.629L636.408 339.992C636.134 340.025 635.885 339.83 635.851 339.556L635.485 336.579Z" fill="#C8D7E9"/>
<path opacity="0.615319" fill-rule="evenodd" clip-rule="evenodd" d="M382.299 379.252C388.055 378.545 392.148 373.307 391.441 367.551C390.734 361.795 385.495 357.702 379.739 358.409C373.984 359.115 369.891 364.354 370.597 370.11C371.304 375.866 376.543 379.959 382.299 379.252Z" fill="#C8D7E9"/>
<path opacity="0.615319" fill-rule="evenodd" clip-rule="evenodd" d="M401.244 365.34C401.211 365.066 401.406 364.816 401.68 364.782L440.389 360.03C440.663 359.996 440.913 360.191 440.946 360.465L441.312 363.443C441.346 363.717 441.151 363.966 440.877 364L402.167 368.753C401.893 368.786 401.644 368.591 401.61 368.317L401.244 365.34Z" fill="#C8D7E9"/>
<path opacity="0.615319" fill-rule="evenodd" clip-rule="evenodd" d="M522.335 350.471C522.301 350.197 522.496 349.948 522.77 349.914L571.405 343.943C571.679 343.909 571.929 344.104 571.962 344.378L572.328 347.356C572.362 347.63 572.167 347.879 571.893 347.913L523.258 353.884C522.984 353.918 522.734 353.723 522.701 353.449L522.335 350.471Z" fill="#C8D7E9"/>
<g opacity="0.3" filter="url(#filter6_f_0_1082)">
<rect x="364.755" y="404.579" width="451" height="34" transform="rotate(-7 364.755 404.579)" fill="url(#paint12_linear_0_1082)"/>
</g>
<rect x="364.389" y="401.601" width="451" height="34" rx="5" transform="rotate(-7 364.389 401.601)" fill="white"/>
<path opacity="0.615319" fill-rule="evenodd" clip-rule="evenodd" d="M627.988 390.393C630.181 390.124 631.74 388.128 631.471 385.936C631.201 383.743 629.206 382.184 627.013 382.453C624.82 382.722 623.261 384.718 623.53 386.911C623.799 389.103 625.795 390.663 627.988 390.393Z" fill="#C8D7E9"/>
<path opacity="0.615319" fill-rule="evenodd" clip-rule="evenodd" d="M641.213 383.228C641.18 382.954 641.375 382.705 641.649 382.671L685.321 377.309C685.595 377.275 685.844 377.47 685.878 377.744L686.243 380.722C686.277 380.996 686.082 381.245 685.808 381.279L642.136 386.641C641.862 386.675 641.613 386.48 641.579 386.206L641.213 383.228Z" fill="#C8D7E9"/>
<path opacity="0.615319" fill-rule="evenodd" clip-rule="evenodd" d="M388.027 425.902C393.782 425.195 397.875 419.956 397.169 414.2C396.462 408.445 391.223 404.352 385.467 405.058C379.712 405.765 375.619 411.004 376.325 416.76C377.032 422.516 382.271 426.609 388.027 425.902Z" fill="#C8D7E9"/>
<path opacity="0.615319" fill-rule="evenodd" clip-rule="evenodd" d="M406.972 411.989C406.939 411.715 407.134 411.466 407.408 411.432L446.117 406.679C446.391 406.646 446.641 406.84 446.674 407.115L447.04 410.092C447.073 410.366 446.879 410.616 446.604 410.649L407.895 415.402C407.621 415.436 407.372 415.241 407.338 414.967L406.972 411.989Z" fill="#C8D7E9"/>
<path opacity="0.615319" fill-rule="evenodd" clip-rule="evenodd" d="M528.063 397.121C528.029 396.847 528.224 396.598 528.498 396.564L577.133 390.592C577.407 390.559 577.657 390.754 577.69 391.028L578.056 394.005C578.089 394.279 577.895 394.529 577.62 394.563L528.986 400.534C528.712 400.568 528.462 400.373 528.428 400.099L528.063 397.121Z" fill="#C8D7E9"/>
<path d="M311.721 95.7402L786.357 37.4623C787.344 37.3412 788.242 38.0428 788.363 39.0295L792.409 71.9821L315.987 130.479L311.721 95.7402Z" fill="url(#paint13_linear_0_1082)"/>
<path fill-rule="evenodd" clip-rule="evenodd" d="M693.999 66.4339C693.629 63.4189 695.773 60.6748 698.788 60.3046L739.482 55.3079C742.497 54.9377 745.241 57.0817 745.612 60.0967C745.982 63.1116 743.838 65.8558 740.823 66.2259L700.128 71.2226C697.113 71.5928 694.369 69.4488 693.999 66.4339Z" fill="white"/>
<path fill-rule="evenodd" clip-rule="evenodd" d="M328.559 109.793C328.492 109.245 328.882 108.746 329.43 108.679L407.841 99.0509C408.389 98.9836 408.888 99.3734 408.956 99.9215L409.321 102.899C409.388 103.447 408.999 103.946 408.45 104.014L330.039 113.641C329.491 113.709 328.992 113.319 328.925 112.771L328.559 109.793Z" fill="#C8D7E9"/>
<path fill-rule="evenodd" clip-rule="evenodd" d="M315.987 130.479L792.409 71.9821L795.456 96.7957L319.033 155.293L315.987 130.479Z" fill="url(#paint14_linear_0_1082)"/>
<path fill-rule="evenodd" clip-rule="evenodd" d="M697.472 94.7214C697.405 94.1733 697.795 93.6743 698.343 93.607L726.134 90.1947C726.682 90.1274 727.181 90.5172 727.249 91.0653L727.614 94.043C727.682 94.5912 727.292 95.0901 726.744 95.1574L698.952 98.5697C698.404 98.637 697.905 98.2472 697.838 97.6991L697.472 94.7214Z" fill="#C8D7E9"/>
<path fill-rule="evenodd" clip-rule="evenodd" d="M589.285 108.005C589.218 107.457 589.607 106.958 590.156 106.891L612.984 104.088C613.532 104.02 614.031 104.41 614.098 104.958L614.464 107.936C614.531 108.484 614.142 108.983 613.593 109.05L590.765 111.853C590.217 111.921 589.718 111.531 589.65 110.983L589.285 108.005Z" fill="#C8D7E9"/>
<path fill-rule="evenodd" clip-rule="evenodd" d="M494 119.705C493.933 119.156 494.323 118.657 494.871 118.59L532.588 113.959C533.136 113.892 533.635 114.282 533.702 114.83L534.068 117.807C534.135 118.356 533.745 118.855 533.197 118.922L495.48 123.553C494.932 123.62 494.433 123.23 494.366 122.682L494 119.705Z" fill="#C8D7E9"/>
<path fill-rule="evenodd" clip-rule="evenodd" d="M332.215 139.569C332.148 139.021 332.538 138.522 333.086 138.455L350.952 136.261C351.5 136.194 351.999 136.584 352.066 137.132L352.432 140.11C352.499 140.658 352.109 141.157 351.561 141.224L333.695 143.418C333.147 143.485 332.648 143.095 332.581 142.547L332.215 139.569Z" fill="#C8D7E9"/>
<path fill-rule="evenodd" clip-rule="evenodd" d="M366.955 135.304C366.887 134.756 367.277 134.257 367.825 134.189L380.728 132.605C381.276 132.538 381.775 132.928 381.843 133.476L382.208 136.453C382.276 137.002 381.886 137.501 381.338 137.568L368.435 139.152C367.886 139.219 367.387 138.83 367.32 138.281L366.955 135.304Z" fill="#C8D7E9"/>
<path fill-rule="evenodd" clip-rule="evenodd" d="M283.035 100.068C282.914 99.0817 283.615 98.1836 284.602 98.0625L311.599 94.7476L357.042 464.848L330.045 468.163C329.058 468.284 328.16 467.583 328.039 466.596L283.035 100.068Z" fill="url(#paint15_linear_0_1082)"/>
<path opacity="0.5" fill-rule="evenodd" clip-rule="evenodd" d="M300.994 123.253C304.831 122.781 307.56 119.289 307.089 115.452C306.618 111.615 303.125 108.886 299.288 109.357C295.451 109.828 292.722 113.321 293.193 117.158C293.664 120.995 297.157 123.724 300.994 123.253Z" fill="white"/>
<path opacity="0.5" fill-rule="evenodd" clip-rule="evenodd" d="M317.934 261.217C320.127 260.947 321.686 258.952 321.417 256.759C321.148 254.566 319.152 253.007 316.959 253.276C314.766 253.545 313.207 255.541 313.476 257.734C313.746 259.927 315.741 261.486 317.934 261.217Z" fill="white"/>
<path opacity="0.5" fill-rule="evenodd" clip-rule="evenodd" d="M320.25 280.075C322.442 279.806 324.001 277.81 323.732 275.617C323.463 273.425 321.467 271.865 319.275 272.134C317.082 272.404 315.523 274.399 315.792 276.592C316.061 278.785 318.057 280.344 320.25 280.075Z" fill="white"/>
<path opacity="0.5" fill-rule="evenodd" clip-rule="evenodd" d="M322.443 297.941C324.636 297.671 326.195 295.676 325.926 293.483C325.657 291.29 323.661 289.731 321.468 290C319.276 290.27 317.716 292.265 317.986 294.458C318.255 296.651 320.251 298.21 322.443 297.941Z" fill="white"/>
<path opacity="0.5" fill-rule="evenodd" clip-rule="evenodd" d="M306.722 169.902C308.915 169.633 310.474 167.637 310.205 165.445C309.936 163.252 307.94 161.693 305.747 161.962C303.554 162.231 301.995 164.227 302.264 166.42C302.534 168.612 304.529 170.171 306.722 169.902Z" fill="white"/>
<path opacity="0.5" fill-rule="evenodd" clip-rule="evenodd" d="M309.038 188.761C311.23 188.491 312.789 186.496 312.52 184.303C312.251 182.11 310.255 180.551 308.063 180.82C305.87 181.089 304.311 183.085 304.58 185.278C304.849 187.471 306.845 189.03 309.038 188.761Z" fill="white"/>
<path opacity="0.5" fill-rule="evenodd" clip-rule="evenodd" d="M311.353 207.619C313.546 207.35 315.105 205.354 314.836 203.161C314.567 200.969 312.571 199.409 310.378 199.679C308.185 199.948 306.626 201.944 306.895 204.136C307.165 206.329 309.16 207.888 311.353 207.619Z" fill="white"/>
<path opacity="0.5" fill-rule="evenodd" clip-rule="evenodd" d="M313.669 226.477C315.861 226.208 317.421 224.212 317.151 222.02C316.882 219.827 314.886 218.268 312.694 218.537C310.501 218.806 308.942 220.802 309.211 222.995C309.48 225.187 311.476 226.747 313.669 226.477Z" fill="white"/>
<path opacity="0.5" fill-rule="evenodd" clip-rule="evenodd" d="M315.862 244.343C318.055 244.074 319.614 242.078 319.345 239.886C319.076 237.693 317.08 236.134 314.887 236.403C312.695 236.672 311.135 238.668 311.405 240.861C311.674 243.053 313.67 244.612 315.862 244.343Z" fill="white"/>
<g opacity="0.522135" filter="url(#filter7_f_0_1082)">
<path fill-rule="evenodd" clip-rule="evenodd" d="M21.1648 129.971L32.9161 118.891L191.704 100.588L206.149 107.258L209.55 134.957L249.91 453.908C249.91 453.908 248.223 472.8 247.029 475.187C245.836 477.574 239.192 498.582 239.192 498.582L81.9076 517.894C81.9076 517.894 71.2223 511.033 68.1434 504.379C65.0645 497.726 60.3281 468.933 60.3281 468.933L22.0024 156.795L21.1648 129.971Z" fill="url(#paint16_linear_0_1082)"/>
</g>
<path fill-rule="evenodd" clip-rule="evenodd" d="M16.7148 138.347C15.2113 126.103 23.9187 114.958 36.1632 113.454L190.331 94.5249C202.576 93.0214 213.721 101.729 215.224 113.973L258.771 468.636C260.274 480.88 251.567 492.025 239.323 493.528L85.1547 512.458C72.9102 513.961 61.7653 505.254 60.2618 493.009L16.7148 138.347Z" fill="url(#paint17_linear_0_1082)"/>
<path d="M16.9844 138.314C15.4993 126.218 24.1007 115.209 36.1963 113.724L190.364 94.7945C202.46 93.3093 213.469 101.911 214.954 114.006L258.501 468.669C259.987 480.764 251.385 491.774 239.29 493.259L85.1215 512.188C73.026 513.673 62.0166 505.072 60.5315 492.976L16.9844 138.314Z" stroke="#F0F1F6" stroke-opacity="0.233894" stroke-width="0.543335"/>
<g filter="url(#filter8_i_0_1082)">
<rect x="102.155" y="128.524" width="28" height="4" rx="1.81112" transform="rotate(-7 102.155 128.524)" fill="url(#paint18_linear_0_1082)"/>
</g>
<rect opacity="0.386436" x="102.155" y="128.524" width="28" height="4" rx="1.81112" transform="rotate(-7 102.155 128.524)" fill="url(#paint19_linear_0_1082)"/>
<g filter="url(#filter9_i_0_1082)">
<path fill-rule="evenodd" clip-rule="evenodd" d="M160.776 491.083C168.451 490.14 173.908 483.155 172.966 475.481C172.023 467.806 165.038 462.349 157.364 463.291C149.689 464.234 144.232 471.219 145.174 478.893C146.117 486.567 153.102 492.025 160.776 491.083Z" fill="url(#paint20_linear_0_1082)"/>
</g>
<path opacity="0.386436" fill-rule="evenodd" clip-rule="evenodd" d="M160.776 491.083C168.451 490.14 173.908 483.155 172.966 475.481C172.023 467.806 165.038 462.349 157.364 463.291C149.689 464.234 144.232 471.219 145.174 478.893C146.117 486.567 153.102 492.025 160.776 491.083Z" fill="url(#paint21_linear_0_1082)"/>
<path d="M32.5016 160.249C32.367 159.153 33.1466 158.155 34.243 158.021L202.976 137.303C204.072 137.168 205.07 137.948 205.205 139.044L242.423 442.164C242.464 442.495 242.228 442.796 241.897 442.837L70.3928 463.895C70.0619 463.936 69.7607 463.7 69.7201 463.369L32.5016 160.249Z" fill="url(#paint22_linear_0_1082)"/>
<mask id="mask0_0_1082" style="mask-type:alpha" maskUnits="userSpaceOnUse" x="32" y="137" width="211" height="327">
<path d="M32.5016 160.249C32.367 159.153 33.1466 158.155 34.243 158.021L202.976 137.303C204.072 137.168 205.07 137.948 205.205 139.044L242.423 442.164C242.464 442.495 242.228 442.796 241.897 442.837L70.3928 463.895C70.0619 463.936 69.7607 463.7 69.7201 463.369L32.5016 160.249Z" fill="white"/>
</mask>
<g mask="url(#mask0_0_1082)">
<path opacity="0.615319" fill-rule="evenodd" clip-rule="evenodd" d="M127.719 435.195C127.349 432.18 129.493 429.436 132.508 429.065L173.202 424.069C176.217 423.699 178.961 425.843 179.331 428.858C179.701 431.872 177.557 434.617 174.542 434.987L133.848 439.983C130.833 440.354 128.089 438.21 127.719 435.195Z" fill="url(#paint23_linear_0_1082)"/>
<g opacity="0.321501" filter="url(#filter10_f_0_1082)">
<path fill-rule="evenodd" clip-rule="evenodd" d="M155.414 447.411C161.992 446.603 166.67 440.616 165.862 434.038C165.054 427.46 159.067 422.782 152.489 423.589C145.911 424.397 141.233 430.384 142.041 436.962C142.849 443.54 148.836 448.218 155.414 447.411Z" fill="url(#paint24_linear_0_1082)"/>
</g>
<g opacity="0.3" filter="url(#filter11_f_0_1082)">
<path fill-rule="evenodd" clip-rule="evenodd" d="M44.7942 211.131C44.4576 208.39 46.4067 205.895 49.1475 205.558L200.015 187.034C202.755 186.698 205.25 188.647 205.587 191.388L212.411 246.97C212.748 249.711 210.799 252.206 208.058 252.542L57.1909 271.067C54.4501 271.403 51.9554 269.454 51.6188 266.713L44.7942 211.131Z" fill="url(#paint25_linear_0_1082)"/>
</g>
<path fill-rule="evenodd" clip-rule="evenodd" d="M44.3067 207.16C43.9701 204.42 45.9192 201.925 48.6601 201.588L199.527 183.064C202.268 182.728 204.763 184.677 205.099 187.418L211.924 243C212.26 245.741 210.311 248.236 207.57 248.572L56.7034 267.096C53.9626 267.433 51.4679 265.484 51.1314 262.743L44.3067 207.16Z" fill="white"/>
<path opacity="0.615319" fill-rule="evenodd" clip-rule="evenodd" d="M110.902 240.795C110.868 240.521 111.063 240.272 111.337 240.238L150.047 235.485C150.321 235.451 150.57 235.646 150.604 235.92L150.97 238.898C151.003 239.172 150.808 239.422 150.534 239.455L111.825 244.208C111.551 244.242 111.301 244.047 111.268 243.773L110.902 240.795Z" fill="#C8D7E9"/>
<path opacity="0.615319" fill-rule="evenodd" clip-rule="evenodd" d="M128.481 228.058C133.963 227.385 137.861 222.395 137.188 216.914C136.515 211.432 131.525 207.534 126.043 208.207C120.562 208.88 116.664 213.869 117.337 219.351C118.01 224.833 122.999 228.731 128.481 228.058Z" fill="#C8D7E9"/>
<path fill-rule="evenodd" clip-rule="evenodd" d="M136.814 212.93C139.007 212.66 140.566 210.665 140.297 208.472C140.028 206.279 138.032 204.72 135.839 204.989C133.647 205.258 132.087 207.254 132.356 209.447C132.626 211.64 134.621 213.199 136.814 212.93Z" fill="url(#paint26_linear_0_1082)" stroke="white" stroke-width="2"/>
<g opacity="0.3" filter="url(#filter12_f_0_1082)">
<path fill-rule="evenodd" clip-rule="evenodd" d="M54.0562 286.564C53.7197 283.823 55.6687 281.329 58.4096 280.992L209.277 262.468C212.017 262.131 214.512 264.08 214.849 266.821L221.673 322.404C222.01 325.145 220.061 327.639 217.32 327.976L66.4529 346.5C63.7121 346.837 61.2174 344.887 60.8809 342.147L54.0562 286.564Z" fill="url(#paint27_linear_0_1082)"/>
</g>
<path fill-rule="evenodd" clip-rule="evenodd" d="M53.5687 282.594C53.2322 279.853 55.1812 277.358 57.9221 277.022L208.789 258.498C211.53 258.161 214.025 260.11 214.361 262.851L221.186 318.434C221.522 321.174 219.573 323.669 216.832 324.006L65.9655 342.53C63.2246 342.866 60.7299 340.917 60.3934 338.176L53.5687 282.594Z" fill="white"/>
<path opacity="0.615319" fill-rule="evenodd" clip-rule="evenodd" d="M120.164 316.229C120.13 315.955 120.325 315.705 120.599 315.671L159.309 310.919C159.583 310.885 159.832 311.08 159.866 311.354L160.232 314.332C160.265 314.606 160.07 314.855 159.796 314.889L121.087 319.642C120.813 319.675 120.563 319.48 120.53 319.206L120.164 316.229Z" fill="#C8D7E9"/>
<path opacity="0.615319" fill-rule="evenodd" clip-rule="evenodd" d="M137.743 303.491C143.225 302.818 147.123 297.829 146.45 292.347C145.777 286.866 140.787 282.967 135.305 283.64C129.824 284.314 125.926 289.303 126.599 294.785C127.272 300.266 132.261 304.164 137.743 303.491Z" fill="#C8D7E9"/>
<path fill-rule="evenodd" clip-rule="evenodd" d="M146.076 288.363C148.269 288.094 149.828 286.098 149.559 283.905C149.29 281.713 147.294 280.153 145.101 280.423C142.909 280.692 141.349 282.688 141.619 284.88C141.888 287.073 143.884 288.632 146.076 288.363Z" fill="url(#paint28_linear_0_1082)" stroke="white" stroke-width="2"/>
<g opacity="0.3" filter="url(#filter13_f_0_1082)">
<path fill-rule="evenodd" clip-rule="evenodd" d="M63.3183 361.998C62.9817 359.257 64.9308 356.762 67.6717 356.425L218.539 337.901C221.28 337.565 223.774 339.514 224.111 342.255L230.935 397.837C231.272 400.578 229.323 403.073 226.582 403.409L75.715 421.933C72.9742 422.27 70.4795 420.321 70.143 417.58L63.3183 361.998Z" fill="url(#paint29_linear_0_1082)"/>
</g>
<path fill-rule="evenodd" clip-rule="evenodd" d="M62.8308 358.027C62.4942 355.286 64.4433 352.792 67.1842 352.455L218.051 333.931C220.792 333.595 223.287 335.544 223.623 338.284L230.448 393.867C230.784 396.608 228.835 399.103 226.095 399.439L75.2275 417.963C72.4867 418.3 69.992 416.351 69.6555 413.61L62.8308 358.027Z" fill="white"/>
<path opacity="0.615319" fill-rule="evenodd" clip-rule="evenodd" d="M129.426 391.662C129.393 391.388 129.587 391.139 129.862 391.105L168.571 386.352C168.845 386.318 169.094 386.513 169.128 386.787L169.494 389.765C169.527 390.039 169.332 390.289 169.058 390.322L130.349 395.075C130.075 395.109 129.825 394.914 129.792 394.64L129.426 391.662Z" fill="#C8D7E9"/>
<path opacity="0.615319" fill-rule="evenodd" clip-rule="evenodd" d="M147.005 378.925C152.487 378.252 156.385 373.262 155.712 367.781C155.039 362.299 150.049 358.401 144.568 359.074C139.086 359.747 135.188 364.736 135.861 370.218C136.534 375.7 141.523 379.598 147.005 378.925Z" fill="#C8D7E9"/>
<path fill-rule="evenodd" clip-rule="evenodd" d="M155.338 363.797C157.531 363.527 159.09 361.532 158.821 359.339C158.552 357.146 156.556 355.587 154.363 355.856C152.171 356.125 150.611 358.121 150.881 360.314C151.15 362.506 153.146 364.066 155.338 363.797Z" fill="url(#paint30_linear_0_1082)" stroke="white" stroke-width="2"/>
<path fill-rule="evenodd" clip-rule="evenodd" d="M32.6156 160.235C32.481 159.139 33.2606 158.141 34.357 158.007L203.09 137.289C204.186 137.154 205.184 137.934 205.319 139.03L207.512 156.896L34.8093 178.101L32.6156 160.235Z" fill="url(#paint31_linear_0_1082)"/>
<path fill-rule="evenodd" clip-rule="evenodd" d="M34.5734 177.123L207.276 155.917L209.714 175.768L37.0108 196.974L34.5734 177.123Z" fill="url(#paint32_linear_0_1082)"/>
<path fill-rule="evenodd" clip-rule="evenodd" d="M184.666 167.761C184.599 167.213 184.989 166.714 185.537 166.647L197.447 165.184C197.996 165.117 198.495 165.507 198.562 166.055L198.806 168.04C198.873 168.588 198.483 169.087 197.935 169.155L186.024 170.617C185.476 170.684 184.977 170.294 184.91 169.746L184.666 167.761Z" fill="#C8D7E9"/>
<path opacity="0.5" fill-rule="evenodd" clip-rule="evenodd" d="M91.915 160.007C91.8477 159.459 92.2375 158.96 92.7856 158.893L146.383 152.312C146.931 152.244 147.43 152.634 147.498 153.182L147.741 155.167C147.809 155.716 147.419 156.214 146.871 156.282L93.2731 162.863C92.7249 162.93 92.226 162.54 92.1587 161.992L91.915 160.007Z" fill="white"/>
<g filter="url(#filter14_i_0_1082)">
<path fill-rule="evenodd" clip-rule="evenodd" d="M160.776 491.083C168.451 490.14 173.908 483.155 172.966 475.481C172.023 467.806 165.038 462.349 157.364 463.291C149.689 464.234 144.232 471.219 145.174 478.893C146.117 486.567 153.102 492.025 160.776 491.083Z" fill="url(#paint33_linear_0_1082)"/>
</g>
</g>
<defs>
<filter id="filter0_f_0_1082" x="220.123" y="0.578066" width="677.579" height="510.478" filterUnits="userSpaceOnUse" color-interpolation-filters="sRGB">
<feFlood flood-opacity="0" result="BackgroundImageFix"/>
<feBlend mode="normal" in="SourceGraphic" in2="BackgroundImageFix" result="shape"/>
<feGaussianBlur stdDeviation="12.2323" result="effect1_foregroundBlur_0_1082"/>
</filter>
<filter id="filter1_f_0_1082" x="311.651" y="91.9033" width="500.711" height="137.639" filterUnits="userSpaceOnUse" color-interpolation-filters="sRGB">
<feFlood flood-opacity="0" result="BackgroundImageFix"/>
<feBlend mode="normal" in="SourceGraphic" in2="BackgroundImageFix" result="shape"/>
<feGaussianBlur stdDeviation="12.2323" result="effect1_foregroundBlur_0_1082"/>
</filter>
<filter id="filter2_f_0_1082" x="317.379" y="138.553" width="500.711" height="137.639" filterUnits="userSpaceOnUse" color-interpolation-filters="sRGB">
<feFlood flood-opacity="0" result="BackgroundImageFix"/>
<feBlend mode="normal" in="SourceGraphic" in2="BackgroundImageFix" result="shape"/>
<feGaussianBlur stdDeviation="12.2323" result="effect1_foregroundBlur_0_1082"/>
</filter>
<filter id="filter3_f_0_1082" x="323.106" y="185.203" width="500.711" height="137.639" filterUnits="userSpaceOnUse" color-interpolation-filters="sRGB">
<feFlood flood-opacity="0" result="BackgroundImageFix"/>
<feBlend mode="normal" in="SourceGraphic" in2="BackgroundImageFix" result="shape"/>
<feGaussianBlur stdDeviation="12.2323" result="effect1_foregroundBlur_0_1082"/>
</filter>
<filter id="filter4_f_0_1082" x="328.834" y="231.852" width="500.711" height="137.639" filterUnits="userSpaceOnUse" color-interpolation-filters="sRGB">
<feFlood flood-opacity="0" result="BackgroundImageFix"/>
<feBlend mode="normal" in="SourceGraphic" in2="BackgroundImageFix" result="shape"/>
<feGaussianBlur stdDeviation="12.2323" result="effect1_foregroundBlur_0_1082"/>
</filter>
<filter id="filter5_f_0_1082" x="334.562" y="278.502" width="500.711" height="137.639" filterUnits="userSpaceOnUse" color-interpolation-filters="sRGB">
<feFlood flood-opacity="0" result="BackgroundImageFix"/>
<feBlend mode="normal" in="SourceGraphic" in2="BackgroundImageFix" result="shape"/>
<feGaussianBlur stdDeviation="12.2323" result="effect1_foregroundBlur_0_1082"/>
</filter>
<filter id="filter6_f_0_1082" x="340.29" y="325.152" width="500.711" height="137.639" filterUnits="userSpaceOnUse" color-interpolation-filters="sRGB">
<feFlood flood-opacity="0" result="BackgroundImageFix"/>
<feBlend mode="normal" in="SourceGraphic" in2="BackgroundImageFix" result="shape"/>
<feGaussianBlur stdDeviation="12.2323" result="effect1_foregroundBlur_0_1082"/>
</filter>
<filter id="filter7_f_0_1082" x="0.247616" y="79.6705" width="270.58" height="459.141" filterUnits="userSpaceOnUse" color-interpolation-filters="sRGB">
<feFlood flood-opacity="0" result="BackgroundImageFix"/>
<feBlend mode="normal" in="SourceGraphic" in2="BackgroundImageFix" result="shape"/>
<feGaussianBlur stdDeviation="10.4586" result="effect1_foregroundBlur_0_1082"/>
</filter>
<filter id="filter8_i_0_1082" x="102.362" y="125.319" width="27.8647" height="6.96851" filterUnits="userSpaceOnUse" color-interpolation-filters="sRGB">
<feFlood flood-opacity="0" result="BackgroundImageFix"/>
<feBlend mode="normal" in="SourceGraphic" in2="BackgroundImageFix" result="shape"/>
<feColorMatrix in="SourceAlpha" type="matrix" values="0 0 0 0 0 0 0 0 0 0 0 0 0 0 0 0 0 0 127 0" result="hardAlpha"/>
<feOffset/>
<feGaussianBlur stdDeviation="2.5"/>
<feComposite in2="hardAlpha" operator="arithmetic" k2="-1" k3="1"/>
<feColorMatrix type="matrix" values="0 0 0 0 0.894118 0 0 0 0 0.894118 0 0 0 0 0.901961 0 0 0 0.259115 0"/>
<feBlend mode="normal" in2="shape" result="effect1_innerShadow_0_1082"/>
</filter>
<filter id="filter9_i_0_1082" x="145.069" y="463.185" width="28.0029" height="28.0029" filterUnits="userSpaceOnUse" color-interpolation-filters="sRGB">
<feFlood flood-opacity="0" result="BackgroundImageFix"/>
<feBlend mode="normal" in="SourceGraphic" in2="BackgroundImageFix" result="shape"/>
<feColorMatrix in="SourceAlpha" type="matrix" values="0 0 0 0 0 0 0 0 0 0 0 0 0 0 0 0 0 0 127 0" result="hardAlpha"/>
<feOffset/>
<feGaussianBlur stdDeviation="2.5"/>
<feComposite in2="hardAlpha" operator="arithmetic" k2="-1" k3="1"/>
<feColorMatrix type="matrix" values="0 0 0 0 0.894118 0 0 0 0 0.894118 0 0 0 0 0.901961 0 0 0 0.294158 0"/>
<feBlend mode="normal" in2="shape" result="effect1_innerShadow_0_1082"/>
</filter>
<filter id="filter10_f_0_1082" x="117.486" y="399.034" width="72.9315" height="72.9315" filterUnits="userSpaceOnUse" color-interpolation-filters="sRGB">
<feFlood flood-opacity="0" result="BackgroundImageFix"/>
<feBlend mode="normal" in="SourceGraphic" in2="BackgroundImageFix" result="shape"/>
<feGaussianBlur stdDeviation="12.2323" result="effect1_foregroundBlur_0_1082"/>
</filter>
<filter id="filter11_f_0_1082" x="20.2919" y="162.532" width="216.622" height="133.037" filterUnits="userSpaceOnUse" color-interpolation-filters="sRGB">
<feFlood flood-opacity="0" result="BackgroundImageFix"/>
<feBlend mode="normal" in="SourceGraphic" in2="BackgroundImageFix" result="shape"/>
<feGaussianBlur stdDeviation="12.2323" result="effect1_foregroundBlur_0_1082"/>
</filter>
<filter id="filter12_f_0_1082" x="29.5539" y="237.966" width="216.622" height="133.037" filterUnits="userSpaceOnUse" color-interpolation-filters="sRGB">
<feFlood flood-opacity="0" result="BackgroundImageFix"/>
<feBlend mode="normal" in="SourceGraphic" in2="BackgroundImageFix" result="shape"/>
<feGaussianBlur stdDeviation="12.2323" result="effect1_foregroundBlur_0_1082"/>
</filter>
<filter id="filter13_f_0_1082" x="38.816" y="313.399" width="216.622" height="133.037" filterUnits="userSpaceOnUse" color-interpolation-filters="sRGB">
<feFlood flood-opacity="0" result="BackgroundImageFix"/>
<feBlend mode="normal" in="SourceGraphic" in2="BackgroundImageFix" result="shape"/>
<feGaussianBlur stdDeviation="12.2323" result="effect1_foregroundBlur_0_1082"/>
</filter>
<filter id="filter14_i_0_1082" x="145.069" y="463.185" width="28.0029" height="28.0029" filterUnits="userSpaceOnUse" color-interpolation-filters="sRGB">
<feFlood flood-opacity="0" result="BackgroundImageFix"/>
<feBlend mode="normal" in="SourceGraphic" in2="BackgroundImageFix" result="shape"/>
<feColorMatrix in="SourceAlpha" type="matrix" values="0 0 0 0 0 0 0 0 0 0 0 0 0 0 0 0 0 0 127 0" result="hardAlpha"/>
<feOffset/>
<feGaussianBlur stdDeviation="2.5"/>
<feComposite in2="hardAlpha" operator="arithmetic" k2="-1" k3="1"/>
<feColorMatrix type="matrix" values="0 0 0 0 0.894118 0 0 0 0 0.894118 0 0 0 0 0.901961 0 0 0 0.302593 0"/>
<feBlend mode="normal" in2="shape" result="effect1_innerShadow_0_1082"/>
</filter>
<linearGradient id="paint0_linear_0_1082" x1="222.151" y1="95.6555" x2="274.094" y2="518.697" gradientUnits="userSpaceOnUse">
<stop stop-color="#525981" stop-opacity="0.222883"/>
<stop offset="0.90098" stop-color="#2D324F" stop-opacity="0.222883"/>
<stop offset="1" stop-color="#292D4A" stop-opacity="0.0996377"/>
</linearGradient>
<linearGradient id="paint1_linear_0_1082" x1="287.682" y1="482.544" x2="883.234" y2="409.419" gradientUnits="userSpaceOnUse">
<stop stop-color="white"/>
<stop offset="0.0202749" stop-color="#F9FBFB"/>
<stop offset="0.0457175" stop-color="white"/>
<stop offset="0.946132" stop-color="white"/>
<stop offset="0.976303" stop-color="#FCFDFD"/>
<stop offset="1" stop-color="white"/>
</linearGradient>
<linearGradient id="paint2_linear_0_1082" x1="1123.74" y1="498.264" x2="1063.61" y2="-14.727" gradientUnits="userSpaceOnUse">
<stop stop-color="white"/>
<stop offset="1" stop-color="#EBF2FA"/>
</linearGradient>
<linearGradient id="paint3_linear_0_1082" x1="322.53" y1="171.331" x2="322.53" y2="207.379" gradientUnits="userSpaceOnUse">
<stop stop-color="#525981" stop-opacity="0.222883"/>
<stop offset="0.90098" stop-color="#2D324F" stop-opacity="0.222883"/>
<stop offset="1" stop-color="#292D4A" stop-opacity="0.0996377"/>
</linearGradient>
<linearGradient id="paint4_linear_0_1082" x1="583.211" y1="133.502" x2="564.199" y2="170.366" gradientUnits="userSpaceOnUse">
<stop stop-color="#63E9FF"/>
<stop offset="1" stop-color="#9577FE"/>
</linearGradient>
<linearGradient id="paint5_linear_0_1082" x1="328.258" y1="217.98" x2="328.258" y2="254.029" gradientUnits="userSpaceOnUse">
<stop stop-color="#525981" stop-opacity="0.222883"/>
<stop offset="0.90098" stop-color="#2D324F" stop-opacity="0.222883"/>
<stop offset="1" stop-color="#292D4A" stop-opacity="0.0996377"/>
</linearGradient>
<linearGradient id="paint6_linear_0_1082" x1="597.838" y1="190.944" x2="599.5" y2="204.479" gradientUnits="userSpaceOnUse">
<stop stop-color="#FFC5B1"/>
<stop offset="1" stop-color="#FF5782"/>
</linearGradient>
<linearGradient id="paint7_linear_0_1082" x1="333.986" y1="264.63" x2="333.986" y2="300.678" gradientUnits="userSpaceOnUse">
<stop stop-color="#525981" stop-opacity="0.222883"/>
<stop offset="0.90098" stop-color="#2D324F" stop-opacity="0.222883"/>
<stop offset="1" stop-color="#292D4A" stop-opacity="0.0996377"/>
</linearGradient>
<linearGradient id="paint8_linear_0_1082" x1="585.345" y1="216.298" x2="583.569" y2="266.022" gradientUnits="userSpaceOnUse">
<stop stop-color="#63E9FF"/>
<stop offset="1" stop-color="#9577FE"/>
</linearGradient>
<linearGradient id="paint9_linear_0_1082" x1="304.013" y1="196.32" x2="299.351" y2="326.843" gradientUnits="userSpaceOnUse">
<stop stop-color="#63E9FF"/>
<stop offset="1" stop-color="#9577FE"/>
</linearGradient>
<linearGradient id="paint10_linear_0_1082" x1="339.714" y1="311.28" x2="339.714" y2="347.328" gradientUnits="userSpaceOnUse">
<stop stop-color="#525981" stop-opacity="0.222883"/>
<stop offset="0.90098" stop-color="#2D324F" stop-opacity="0.222883"/>
<stop offset="1" stop-color="#292D4A" stop-opacity="0.0996377"/>
</linearGradient>
<linearGradient id="paint11_linear_0_1082" x1="345.442" y1="357.929" x2="345.442" y2="393.978" gradientUnits="userSpaceOnUse">
<stop stop-color="#525981" stop-opacity="0.222883"/>
<stop offset="0.90098" stop-color="#2D324F" stop-opacity="0.222883"/>
<stop offset="1" stop-color="#292D4A" stop-opacity="0.0996377"/>
</linearGradient>
<linearGradient id="paint12_linear_0_1082" x1="351.169" y1="404.579" x2="351.169" y2="440.627" gradientUnits="userSpaceOnUse">
<stop stop-color="#525981" stop-opacity="0.222883"/>
<stop offset="0.90098" stop-color="#2D324F" stop-opacity="0.222883"/>
<stop offset="1" stop-color="#292D4A" stop-opacity="0.0996377"/>
</linearGradient>
<linearGradient id="paint13_linear_0_1082" x1="3147.3" y1="107.755" x2="3104.53" y2="-240.579" gradientUnits="userSpaceOnUse">
<stop stop-color="white"/>
<stop offset="1" stop-color="#EBF2FA"/>
</linearGradient>
<linearGradient id="paint14_linear_0_1082" x1="-291.625" y1="203.443" x2="-281.548" y2="285.436" gradientUnits="userSpaceOnUse">
<stop stop-color="white"/>
<stop stop-color="white"/>
<stop offset="1" stop-color="#EBF2FA"/>
</linearGradient>
<linearGradient id="paint15_linear_0_1082" x1="255.087" y1="72.3421" x2="432.18" y2="98.2822" gradientUnits="userSpaceOnUse">
<stop stop-color="#63E9FF"/>
<stop offset="1" stop-color="#9577FE"/>
</linearGradient>
<linearGradient id="paint16_linear_0_1082" x1="11.899" y1="121.471" x2="63.8419" y2="544.512" gradientUnits="userSpaceOnUse">
<stop stop-color="#525981" stop-opacity="0.222883"/>
<stop offset="0.90098" stop-color="#2D324F" stop-opacity="0.222883"/>
<stop offset="1" stop-color="#292D4A" stop-opacity="0.0996377"/>
</linearGradient>
<linearGradient id="paint17_linear_0_1082" x1="267.579" y1="496.163" x2="216.394" y2="79.2941" gradientUnits="userSpaceOnUse">
<stop stop-color="white"/>
<stop offset="0.0202749" stop-color="#F9FBFB"/>
<stop offset="0.0457175" stop-color="white"/>
<stop offset="0.946132" stop-color="white"/>
<stop offset="0.976303" stop-color="#FCFDFD"/>
<stop offset="1" stop-color="white"/>
</linearGradient>
<linearGradient id="paint18_linear_0_1082" x1="102.155" y1="132.474" x2="130.391" y2="132.474" gradientUnits="userSpaceOnUse">
<stop stop-color="white"/>
<stop offset="0.0202749" stop-color="#F9FBFB"/>
<stop offset="0.0457175" stop-color="white"/>
<stop offset="0.946132" stop-color="white"/>
<stop offset="0.976303" stop-color="#FCFDFD"/>
<stop offset="1" stop-color="white"/>
</linearGradient>
<linearGradient id="paint19_linear_0_1082" x1="101.732" y1="128.524" x2="101.732" y2="132.524" gradientUnits="userSpaceOnUse">
<stop stop-color="#F9FBFD"/>
<stop offset="1" stop-color="white"/>
</linearGradient>
<linearGradient id="paint20_linear_0_1082" x1="146.838" y1="492.441" x2="174.864" y2="488.999" gradientUnits="userSpaceOnUse">
<stop stop-color="white"/>
<stop offset="0.0202749" stop-color="#F9FBFB"/>
<stop offset="0.0457175" stop-color="white"/>
<stop offset="0.946132" stop-color="white"/>
<stop offset="0.976303" stop-color="#FCFDFD"/>
<stop offset="1" stop-color="white"/>
</linearGradient>
<linearGradient id="paint21_linear_0_1082" x1="143.048" y1="465.049" x2="146.461" y2="492.84" gradientUnits="userSpaceOnUse">
<stop stop-color="#F9FBFD"/>
<stop offset="1" stop-color="white"/>
</linearGradient>
<linearGradient id="paint22_linear_0_1082" x1="348.791" y1="536.055" x2="302.356" y2="110.974" gradientUnits="userSpaceOnUse">
<stop stop-color="white"/>
<stop offset="1" stop-color="#EBF2FA"/>
</linearGradient>
<linearGradient id="paint23_linear_0_1082" x1="82.7809" y1="408.982" x2="86.5099" y2="449.076" gradientUnits="userSpaceOnUse">
<stop stop-color="#9CE9CA"/>
<stop offset="1" stop-color="#00CED9"/>
</linearGradient>
<linearGradient id="paint24_linear_0_1082" x1="139.861" y1="425.14" x2="142.962" y2="450.396" gradientUnits="userSpaceOnUse">
<stop stop-color="#525981" stop-opacity="0.222883"/>
<stop offset="0.90098" stop-color="#2D324F" stop-opacity="0.222883"/>
<stop offset="1" stop-color="#292D4A" stop-opacity="0.0996377"/>
</linearGradient>
<linearGradient id="paint25_linear_0_1082" x1="39.3414" y1="206.763" x2="47.8693" y2="276.217" gradientUnits="userSpaceOnUse">
<stop stop-color="#525981" stop-opacity="0.222883"/>
<stop offset="0.90098" stop-color="#2D324F" stop-opacity="0.222883"/>
<stop offset="1" stop-color="#292D4A" stop-opacity="0.0996377"/>
</linearGradient>
<linearGradient id="paint26_linear_0_1082" x1="120.676" y1="189.287" x2="101.664" y2="226.151" gradientUnits="userSpaceOnUse">
<stop stop-color="#63E9FF"/>
<stop offset="1" stop-color="#9577FE"/>
</linearGradient>
<linearGradient id="paint27_linear_0_1082" x1="48.6034" y1="282.196" x2="57.1314" y2="351.651" gradientUnits="userSpaceOnUse">
<stop stop-color="#525981" stop-opacity="0.222883"/>
<stop offset="0.90098" stop-color="#2D324F" stop-opacity="0.222883"/>
<stop offset="1" stop-color="#292D4A" stop-opacity="0.0996377"/>
</linearGradient>
<linearGradient id="paint28_linear_0_1082" x1="138.838" y1="275.513" x2="140.5" y2="289.048" gradientUnits="userSpaceOnUse">
<stop stop-color="#FFC5B1"/>
<stop offset="1" stop-color="#FF5782"/>
</linearGradient>
<linearGradient id="paint29_linear_0_1082" x1="57.8655" y1="357.629" x2="66.3935" y2="427.084" gradientUnits="userSpaceOnUse">
<stop stop-color="#525981" stop-opacity="0.222883"/>
<stop offset="0.90098" stop-color="#2D324F" stop-opacity="0.222883"/>
<stop offset="1" stop-color="#292D4A" stop-opacity="0.0996377"/>
</linearGradient>
<linearGradient id="paint30_linear_0_1082" x1="129.879" y1="329.651" x2="128.103" y2="379.374" gradientUnits="userSpaceOnUse">
<stop stop-color="#63E9FF"/>
<stop offset="1" stop-color="#9577FE"/>
</linearGradient>
<linearGradient id="paint31_linear_0_1082" x1="-76.9226" y1="154.913" x2="-71.5718" y2="198.491" gradientUnits="userSpaceOnUse">
<stop stop-color="#6CD2FE"/>
<stop offset="1" stop-color="#8892FE"/>
</linearGradient>
<linearGradient id="paint32_linear_0_1082" x1="-185.773" y1="202.864" x2="-177.702" y2="268.458" gradientUnits="userSpaceOnUse">
<stop stop-color="white"/>
<stop stop-color="white"/>
<stop offset="1" stop-color="#EBF2FA"/>
</linearGradient>
<linearGradient id="paint33_linear_0_1082" x1="146.838" y1="492.441" x2="174.864" y2="488.999" gradientUnits="userSpaceOnUse">
<stop stop-color="white"/>
<stop offset="0.0202749" stop-color="#F9FBFB"/>
<stop offset="0.0457175" stop-color="white"/>
<stop offset="0.946132" stop-color="white"/>
<stop offset="0.976303" stop-color="#FCFDFD"/>
<stop offset="1" stop-color="white"/>
</linearGradient>
</defs>
</svg>
