<svg width="894" height="460" viewBox="0 0 894 460" fill="none" xmlns="http://www.w3.org/2000/svg">
<g opacity="0.522135" filter="url(#filter0_f_0_1428)">
<path fill-rule="evenodd" clip-rule="evenodd" d="M289.162 31.3854L319.259 25.0203H836.522L857.285 38.9784L865.278 64.0767L868.995 390.401C868.995 390.401 856.563 409.225 851.949 411.482C847.335 413.739 818.716 434.083 818.716 434.083H323.307C323.307 434.083 292.765 425.848 285.746 418.764C278.727 411.68 275 382.086 275 382.086V64.0767L289.162 31.3854Z" fill="url(#paint0_linear_0_1428)"/>
</g>
<path fill-rule="evenodd" clip-rule="evenodd" d="M275 48C275 33.0883 287.088 21 302 21H843C857.912 21 870 33.0883 870 48V396.027C870 410.939 857.912 423.027 843 423.027H302C287.088 423.027 275 410.939 275 396.027V48Z" fill="url(#paint1_linear_0_1428)"/>
<path d="M302 21.45H843C857.663 21.45 869.55 33.3368 869.55 48V396.027C869.55 410.69 857.663 422.577 843 422.577H302C287.337 422.577 275.45 410.69 275.45 396.027V48C275.45 33.3368 287.337 21.45 302 21.45Z" stroke="#F0F1F6" stroke-opacity="0.233894" stroke-width="0.9"/>
<path opacity="0.4482" d="M319.913 35.5209H825.087C826.33 35.5209 827.337 36.5283 827.337 37.7709V405.251C827.337 406.494 826.33 407.501 825.087 407.501H319.913C318.67 407.501 317.663 406.494 317.663 405.251V37.7709C317.663 36.5283 318.67 35.5209 319.913 35.5209Z" fill="#E6F0FD" stroke="#C7D8EC" stroke-width="0.9"/>
<path fill-rule="evenodd" clip-rule="evenodd" d="M387.568 91.1446C387.568 90.1505 388.373 89.3446 389.368 89.3446H409.889C410.883 89.3446 411.689 90.1505 411.689 91.1446V111.666C411.689 112.66 410.883 113.466 409.889 113.466H389.368C388.373 113.466 387.568 112.66 387.568 111.666V91.1446Z" fill="url(#paint2_linear_0_1428)"/>
<path fill-rule="evenodd" clip-rule="evenodd" d="M356.41 37.0811H824.982C825.976 37.0811 826.782 37.8869 826.782 38.8811V78.2888H356.41V37.0811Z" fill="white"/>
<path fill-rule="evenodd" clip-rule="evenodd" d="M389.578 54.1672C389.578 52.5019 390.928 51.152 392.593 51.152V51.152C394.258 51.152 395.608 52.5019 395.608 54.1672V54.1672C395.608 55.8324 394.258 57.1824 392.593 57.1824V57.1824C390.928 57.1824 389.578 55.8324 389.578 54.1672V54.1672Z" fill="#FF8E95"/>
<path fill-rule="evenodd" clip-rule="evenodd" d="M377.517 187.195H826.782V241.038H377.517V187.195Z" fill="white"/>
<path fill-rule="evenodd" clip-rule="evenodd" d="M386.502 193.479C386.502 192.982 386.905 192.579 387.402 192.579H457.485C457.982 192.579 458.385 192.982 458.385 193.479V196.166C458.385 196.663 457.982 197.066 457.485 197.066H387.402C386.905 197.066 386.502 196.663 386.502 196.166V193.479Z" fill="#C8D7E9"/>
<path opacity="0.615319" fill-rule="evenodd" clip-rule="evenodd" d="M386.502 202.453C386.502 201.956 386.905 201.553 387.402 201.553H475.455C475.952 201.553 476.355 201.956 476.355 202.453V203.345C476.355 203.842 475.952 204.245 475.455 204.245H387.402C386.905 204.245 386.502 203.842 386.502 203.345V202.453Z" fill="#C8D7E9"/>
<path opacity="0.316916" fill-rule="evenodd" clip-rule="evenodd" d="M767.479 197.071C767.479 196.077 768.285 195.271 769.279 195.271H811.504C812.498 195.271 813.304 196.077 813.304 197.071V211.419C813.304 212.413 812.498 213.219 811.504 213.219H769.279C768.285 213.219 767.479 212.413 767.479 211.419V197.071Z" fill="url(#paint3_linear_0_1428)"/>
<rect x="377.517" y="131.557" width="449.265" height="53.8429" fill="white"/>
<path fill-rule="evenodd" clip-rule="evenodd" d="M386.502 139.636C386.502 139.139 386.905 138.736 387.402 138.736H457.485C457.982 138.736 458.385 139.139 458.385 139.636V142.323C458.385 142.82 457.982 143.223 457.485 143.223H387.402C386.905 143.223 386.502 142.82 386.502 142.323V139.636Z" fill="#C8D7E9"/>
<path opacity="0.615319" fill-rule="evenodd" clip-rule="evenodd" d="M386.502 148.61C386.502 148.113 386.905 147.71 387.402 147.71H475.455C475.952 147.71 476.355 148.113 476.355 148.61V149.502C476.355 149.999 475.952 150.402 475.455 150.402H387.402C386.905 150.402 386.502 149.999 386.502 149.502V148.61Z" fill="#C8D7E9"/>
<path fill-rule="evenodd" clip-rule="evenodd" d="M767.479 141.434C767.479 140.44 768.285 139.634 769.279 139.634H811.504C812.498 139.634 813.304 140.44 813.304 141.434V155.781C813.304 156.776 812.498 157.581 811.504 157.581H769.279C768.285 157.581 767.479 156.776 767.479 155.781V141.434Z" fill="url(#paint4_linear_0_1428)"/>
<path fill-rule="evenodd" clip-rule="evenodd" d="M377.517 242.833H826.782V296.676H377.517V242.833Z" fill="white"/>
<path fill-rule="evenodd" clip-rule="evenodd" d="M386.502 250.912C386.502 250.415 386.905 250.012 387.402 250.012H457.485C457.982 250.012 458.385 250.415 458.385 250.912V253.599C458.385 254.096 457.982 254.499 457.485 254.499H387.402C386.905 254.499 386.502 254.096 386.502 253.599V250.912Z" fill="#C8D7E9"/>
<path opacity="0.615319" fill-rule="evenodd" clip-rule="evenodd" d="M386.502 259.886C386.502 259.389 386.905 258.986 387.402 258.986H475.455C475.952 258.986 476.355 259.389 476.355 259.886V260.778C476.355 261.275 475.952 261.678 475.455 261.678H387.402C386.905 261.678 386.502 261.275 386.502 260.778V259.886Z" fill="#C8D7E9"/>
<path opacity="0.316916" fill-rule="evenodd" clip-rule="evenodd" d="M767.479 252.709C767.479 251.715 768.285 250.909 769.279 250.909H811.504C812.498 250.909 813.304 251.715 813.304 252.709V267.057C813.304 268.051 812.498 268.857 811.504 268.857H769.279C768.285 268.857 767.479 268.051 767.479 267.057V252.709Z" fill="url(#paint5_linear_0_1428)"/>
<path fill-rule="evenodd" clip-rule="evenodd" d="M377.517 298.47H826.782V352.313H377.517V298.47Z" fill="white"/>
<path fill-rule="evenodd" clip-rule="evenodd" d="M386.502 306.549C386.502 306.052 386.905 305.649 387.402 305.649H457.485C457.982 305.649 458.385 306.052 458.385 306.549V309.236C458.385 309.733 457.982 310.136 457.485 310.136H387.402C386.905 310.136 386.502 309.733 386.502 309.236V306.549Z" fill="#C8D7E9"/>
<path opacity="0.615319" fill-rule="evenodd" clip-rule="evenodd" d="M386.502 315.523C386.502 315.026 386.905 314.623 387.402 314.623H475.455C475.952 314.623 476.355 315.026 476.355 315.523V316.415C476.355 316.912 475.952 317.315 475.455 317.315H387.402C386.905 317.315 386.502 316.912 386.502 316.415V315.523Z" fill="#C8D7E9"/>
<path opacity="0.316916" fill-rule="evenodd" clip-rule="evenodd" d="M767.479 308.347C767.479 307.353 768.285 306.547 769.279 306.547H811.504C812.498 306.547 813.304 307.353 813.304 308.347V322.695C813.304 323.689 812.498 324.495 811.504 324.495H769.279C768.285 324.495 767.479 323.689 767.479 322.695V308.347Z" fill="url(#paint6_linear_0_1428)"/>
<path fill-rule="evenodd" clip-rule="evenodd" d="M377.517 354.108H826.782V406.151C826.782 407.145 825.976 407.951 824.982 407.951H377.517V354.108Z" fill="white"/>
<path fill-rule="evenodd" clip-rule="evenodd" d="M386.502 362.187C386.502 361.69 386.905 361.287 387.402 361.287H457.485C457.982 361.287 458.385 361.69 458.385 362.187V364.874C458.385 365.371 457.982 365.774 457.485 365.774H387.402C386.905 365.774 386.502 365.371 386.502 364.874V362.187Z" fill="#C8D7E9"/>
<path opacity="0.615319" fill-rule="evenodd" clip-rule="evenodd" d="M386.502 371.161C386.502 370.664 386.905 370.261 387.402 370.261H475.455C475.952 370.261 476.355 370.664 476.355 371.161V372.053C476.355 372.55 475.952 372.953 475.455 372.953H387.402C386.905 372.953 386.502 372.55 386.502 372.053V371.161Z" fill="#C8D7E9"/>
<path opacity="0.316916" fill-rule="evenodd" clip-rule="evenodd" d="M767.479 363.984C767.479 362.99 768.285 362.184 769.279 362.184H811.504C812.498 362.184 813.304 362.99 813.304 363.984V378.332C813.304 379.326 812.498 380.132 811.504 380.132H769.279C768.285 380.132 767.479 379.326 767.479 378.332V363.984Z" fill="url(#paint7_linear_0_1428)"/>
<path fill-rule="evenodd" clip-rule="evenodd" d="M768.488 48.9317C768.488 47.9376 769.294 47.1317 770.288 47.1317H812.921C813.915 47.1317 814.721 47.9376 814.721 48.9317V63.4229C814.721 64.417 813.915 65.2229 812.921 65.2229H770.288C769.294 65.2229 768.488 64.417 768.488 63.4229V48.9317Z" fill="url(#paint8_linear_0_1428)"/>
<path opacity="0.957937" fill-rule="evenodd" clip-rule="evenodd" d="M317.213 38.881C317.213 37.8869 318.019 37.0811 319.013 37.0811H376.512V407.951H319.013C318.019 407.951 317.213 407.145 317.213 406.151V38.881Z" fill="#20324B"/>
<path fill-rule="evenodd" clip-rule="evenodd" d="M419.73 91.2496C419.73 90.7526 420.133 90.3496 420.63 90.3496H490.19C490.687 90.3496 491.09 90.7526 491.09 91.2496V94.4749C491.09 94.972 490.687 95.3749 490.19 95.3749H420.63C420.133 95.3749 419.73 94.972 419.73 94.4749V91.2496Z" fill="#C8D7E9"/>
<path opacity="0.615319" fill-rule="evenodd" clip-rule="evenodd" d="M419.73 101.3C419.73 100.803 420.133 100.4 420.63 100.4H509.286C509.783 100.4 510.186 100.803 510.186 101.3V102.516C510.186 103.013 509.783 103.416 509.286 103.416H420.63C420.133 103.416 419.73 103.013 419.73 102.516V101.3Z" fill="#C8D7E9"/>
<g opacity="0.522135" filter="url(#filter1_f_0_1428)">
<path fill-rule="evenodd" clip-rule="evenodd" d="M29.983 32.3642L40.5728 26H222.574L229.88 39.956L232.692 65.0504L234 391.325C234 391.325 229.626 410.146 228.002 412.403C226.379 414.66 216.309 435 216.309 435H41.997C41.997 435 31.2505 426.767 28.7809 419.684C26.3113 412.601 25 383.012 25 383.012V65.0504L29.983 32.3642Z" fill="url(#paint9_linear_0_1428)"/>
</g>
<path fill-rule="evenodd" clip-rule="evenodd" d="M25 48C25 33.6406 36.6406 22 51 22H209C223.359 22 235 33.6406 235 48V398C235 412.359 223.359 424 209 424H51C36.6406 424 25 412.359 25 398V48Z" fill="url(#paint10_linear_0_1428)"/>
<path d="M51 22.45H209C223.111 22.45 234.55 33.8891 234.55 48V398C234.55 412.111 223.111 423.55 209 423.55H51C36.8891 423.55 25.45 412.111 25.45 398V48C25.45 33.8891 36.8891 22.45 51 22.45Z" stroke="#F0F1F6" stroke-opacity="0.233894" stroke-width="0.9"/>
<g filter="url(#filter2_i_0_1428)">
<path fill-rule="evenodd" clip-rule="evenodd" d="M130 409C137.18 409 143 403.18 143 396C143 388.82 137.18 383 130 383C122.82 383 117 388.82 117 396C117 403.18 122.82 409 130 409Z" fill="url(#paint11_linear_0_1428)"/>
</g>
<path d="M142.55 396C142.55 402.931 136.931 408.55 130 408.55C123.069 408.55 117.45 402.931 117.45 396C117.45 389.069 123.069 383.45 130 383.45C136.931 383.45 142.55 389.069 142.55 396Z" stroke="#F0F1F6" stroke-opacity="0.233894" stroke-width="0.9"/>
<g opacity="0.4482">
<path fill-rule="evenodd" clip-rule="evenodd" d="M43 60.7C43 59.2088 44.2088 58 45.7 58H215.3C216.791 58 218 59.2088 218 60.7V366.3C218 367.791 216.791 369 215.3 369H45.7C44.2088 369 43 367.791 43 366.3V60.7Z" fill="#E6F0FD"/>
<path d="M45.7 58.45H215.3C216.543 58.45 217.55 59.4574 217.55 60.7V366.3C217.55 367.543 216.543 368.55 215.3 368.55H45.7C44.4574 368.55 43.45 367.543 43.45 366.3V60.7C43.45 59.4574 44.4574 58.45 45.7 58.45Z" stroke="#C7D8EC" stroke-opacity="0.13536" stroke-width="0.9"/>
</g>
<mask id="mask0_0_1428" style="mask-type:alpha" maskUnits="userSpaceOnUse" x="43" y="58" width="175" height="311">
<path fill-rule="evenodd" clip-rule="evenodd" d="M43 60.7C43 59.2088 44.2088 58 45.7 58H215.3C216.791 58 218 59.2088 218 60.7V366.3C218 367.791 216.791 369 215.3 369H45.7C44.2088 369 43 367.791 43 366.3V60.7Z" fill="white"/>
<path d="M45.7 58.45H215.3C216.543 58.45 217.55 59.4574 217.55 60.7V366.3C217.55 367.543 216.543 368.55 215.3 368.55H45.7C44.4574 368.55 43.45 367.543 43.45 366.3V60.7C43.45 59.4574 44.4574 58.45 45.7 58.45Z" stroke="white" stroke-width="0.9"/>
</mask>
<g mask="url(#mask0_0_1428)">
<rect x="44" y="80" width="173" height="41" fill="white"/>
<rect x="181.034" y="86.6963" width="26" height="12" rx="1" fill="url(#paint12_linear_0_1428)"/>
<rect opacity="0.957937" x="43" y="58" width="175" height="21" fill="#20324B"/>
<path fill-rule="evenodd" clip-rule="evenodd" d="M209 70C209.552 70 210 69.5523 210 69C210 68.4477 209.552 68 209 68C208.448 68 208 68.4477 208 69C208 69.5523 208.448 70 209 70Z" fill="white"/>
<path fill-rule="evenodd" clip-rule="evenodd" d="M44 234H217V260H44V234Z" fill="white"/>
<rect x="181" y="240" width="26" height="12" rx="1" fill="url(#paint13_linear_0_1428)"/>
<rect x="52" y="240" width="31" height="2" rx="1" fill="#C8D7E9"/>
<rect opacity="0.615319" x="52" y="244" width="31" height="1" rx="0.5" fill="#C8D7E9"/>
<rect opacity="0.615319" x="52" y="247" width="28" height="1" rx="0.5" fill="#C8D7E9"/>
<path fill-rule="evenodd" clip-rule="evenodd" d="M44 261H217V287H44V261Z" fill="white"/>
<rect opacity="0.316916" x="181" y="267" width="26" height="12" rx="1" fill="url(#paint14_linear_0_1428)"/>
<rect x="52" y="267" width="31" height="2" rx="1" fill="#C8D7E9"/>
<rect opacity="0.615319" x="52" y="271" width="31" height="1" rx="0.5" fill="#C8D7E9"/>
<rect opacity="0.615319" x="52" y="274" width="28" height="1" rx="0.5" fill="#C8D7E9"/>
<path fill-rule="evenodd" clip-rule="evenodd" d="M44 288H217V314H44V288Z" fill="white"/>
<rect opacity="0.316916" x="181" y="294" width="26" height="12" rx="1" fill="url(#paint15_linear_0_1428)"/>
<rect x="52" y="294" width="31" height="2" rx="1" fill="#C8D7E9"/>
<rect opacity="0.615319" x="52" y="298" width="31" height="1" rx="0.5" fill="#C8D7E9"/>
<rect opacity="0.615319" x="52" y="301" width="28" height="1" rx="0.5" fill="#C8D7E9"/>
<path fill-rule="evenodd" clip-rule="evenodd" d="M44 315H217V341H44V315Z" fill="white"/>
<rect opacity="0.316916" x="181" y="321" width="26" height="12" rx="1" fill="url(#paint16_linear_0_1428)"/>
<rect x="52" y="321" width="31" height="2" rx="1" fill="#C8D7E9"/>
<rect opacity="0.615319" x="52" y="325" width="31" height="1" rx="0.5" fill="#C8D7E9"/>
<rect opacity="0.615319" x="52" y="328" width="28" height="1" rx="0.5" fill="#C8D7E9"/>
<path fill-rule="evenodd" clip-rule="evenodd" d="M44 342H217V368H44V342Z" fill="white"/>
<rect opacity="0.316916" x="181" y="348" width="26" height="12" rx="1" fill="url(#paint17_linear_0_1428)"/>
<rect x="52" y="348" width="31" height="2" rx="1" fill="#C8D7E9"/>
<rect opacity="0.615319" x="52" y="352" width="31" height="1" rx="0.5" fill="#C8D7E9"/>
<rect opacity="0.615319" x="52" y="355" width="28" height="1" rx="0.5" fill="#C8D7E9"/>
<path fill-rule="evenodd" clip-rule="evenodd" d="M44 122H217V148H44V122Z" fill="white"/>
<rect x="52" y="128" width="12" height="12" rx="1" fill="url(#paint18_linear_0_1428)"/>
<rect x="181" y="128" width="26" height="12" rx="1" fill="url(#paint19_linear_0_1428)"/>
<rect x="67" y="128" width="31" height="2" rx="1" fill="#C8D7E9"/>
<rect opacity="0.615319" x="67" y="132" width="31" height="1" rx="0.5" fill="#C8D7E9"/>
<rect opacity="0.615319" x="67" y="135" width="28" height="1" rx="0.5" fill="#C8D7E9"/>
<rect x="50.9196" y="87.5669" width="12" height="12" rx="1" fill="url(#paint20_linear_0_1428)"/>
<rect x="65.9196" y="87.5669" width="31" height="2" rx="1" fill="#C8D7E9"/>
<rect opacity="0.615319" x="65.9196" y="91.5669" width="31" height="1" rx="0.5" fill="#C8D7E9"/>
<rect opacity="0.615319" x="65.9196" y="94.5669" width="28" height="1" rx="0.5" fill="#C8D7E9"/>
</g>
<defs>
<filter id="filter0_f_0_1428" x="250.535" y="0.555727" width="642.924" height="457.992" filterUnits="userSpaceOnUse" color-interpolation-filters="sRGB">
<feFlood flood-opacity="0" result="BackgroundImageFix"/>
<feBlend mode="normal" in="SourceGraphic" in2="BackgroundImageFix" result="shape"/>
<feGaussianBlur stdDeviation="12.2323" result="effect1_foregroundBlur_0_1428"/>
</filter>
<filter id="filter1_f_0_1428" x="0.535463" y="1.53546" width="257.929" height="457.929" filterUnits="userSpaceOnUse" color-interpolation-filters="sRGB">
<feFlood flood-opacity="0" result="BackgroundImageFix"/>
<feBlend mode="normal" in="SourceGraphic" in2="BackgroundImageFix" result="shape"/>
<feGaussianBlur stdDeviation="12.2323" result="effect1_foregroundBlur_0_1428"/>
</filter>
<filter id="filter2_i_0_1428" x="117" y="383" width="26" height="27" filterUnits="userSpaceOnUse" color-interpolation-filters="sRGB">
<feFlood flood-opacity="0" result="BackgroundImageFix"/>
<feBlend mode="normal" in="SourceGraphic" in2="BackgroundImageFix" result="shape"/>
<feColorMatrix in="SourceAlpha" type="matrix" values="0 0 0 0 0 0 0 0 0 0 0 0 0 0 0 0 0 0 127 0" result="hardAlpha"/>
<feOffset dy="1"/>
<feGaussianBlur stdDeviation="1.5"/>
<feComposite in2="hardAlpha" operator="arithmetic" k2="-1" k3="1"/>
<feColorMatrix type="matrix" values="0 0 0 0 0.894118 0 0 0 0 0.894118 0 0 0 0 0.901961 0 0 0 0.380491 0"/>
<feBlend mode="normal" in2="shape" result="effect1_innerShadow_0_1428"/>
</filter>
<linearGradient id="paint0_linear_0_1428" x1="257.108" y1="25.0203" x2="257.108" y2="458.726" gradientUnits="userSpaceOnUse">
<stop stop-color="#525981" stop-opacity="0.222883"/>
<stop offset="0.90098" stop-color="#2D324F" stop-opacity="0.222883"/>
<stop offset="1" stop-color="#292D4A" stop-opacity="0.0996377"/>
</linearGradient>
<linearGradient id="paint1_linear_0_1428" x1="275" y1="417.991" x2="875.025" y2="417.991" gradientUnits="userSpaceOnUse">
<stop stop-color="white"/>
<stop offset="0.0202749" stop-color="#F9FBFB"/>
<stop offset="0.0457175" stop-color="white"/>
<stop offset="0.946132" stop-color="white"/>
<stop offset="0.976303" stop-color="#FCFDFD"/>
<stop offset="1" stop-color="white"/>
</linearGradient>
<linearGradient id="paint2_linear_0_1428" x1="386.062" y1="87.3352" x2="386.062" y2="110.442" gradientUnits="userSpaceOnUse">
<stop stop-color="#FFC5B1"/>
<stop offset="1" stop-color="#FF5782"/>
</linearGradient>
<linearGradient id="paint3_linear_0_1428" x1="786.151" y1="188.386" x2="778.292" y2="214.538" gradientUnits="userSpaceOnUse">
<stop stop-color="#C2F1A1"/>
<stop offset="1" stop-color="#8EE067"/>
</linearGradient>
<linearGradient id="paint4_linear_0_1428" x1="786.151" y1="132.749" x2="778.292" y2="158.9" gradientUnits="userSpaceOnUse">
<stop stop-color="#C2F1A1"/>
<stop offset="1" stop-color="#8EE067"/>
</linearGradient>
<linearGradient id="paint5_linear_0_1428" x1="786.151" y1="244.024" x2="778.292" y2="270.175" gradientUnits="userSpaceOnUse">
<stop stop-color="#C2F1A1"/>
<stop offset="1" stop-color="#8EE067"/>
</linearGradient>
<linearGradient id="paint6_linear_0_1428" x1="786.151" y1="299.662" x2="778.292" y2="325.813" gradientUnits="userSpaceOnUse">
<stop stop-color="#C2F1A1"/>
<stop offset="1" stop-color="#8EE067"/>
</linearGradient>
<linearGradient id="paint7_linear_0_1428" x1="786.151" y1="355.299" x2="778.292" y2="381.451" gradientUnits="userSpaceOnUse">
<stop stop-color="#C2F1A1"/>
<stop offset="1" stop-color="#8EE067"/>
</linearGradient>
<linearGradient id="paint8_linear_0_1428" x1="768.488" y1="47.1317" x2="768.488" y2="65.2229" gradientUnits="userSpaceOnUse">
<stop stop-color="#00E2C8"/>
<stop offset="1" stop-color="#327FF6"/>
</linearGradient>
<linearGradient id="paint9_linear_0_1428" x1="18.7045" y1="26" x2="18.7045" y2="459.64" gradientUnits="userSpaceOnUse">
<stop stop-color="#525981" stop-opacity="0.222883"/>
<stop offset="0.90098" stop-color="#2D324F" stop-opacity="0.222883"/>
<stop offset="1" stop-color="#292D4A" stop-opacity="0.0996377"/>
</linearGradient>
<linearGradient id="paint10_linear_0_1428" x1="25" y1="418.964" x2="236.773" y2="418.964" gradientUnits="userSpaceOnUse">
<stop stop-color="white"/>
<stop offset="0.0202749" stop-color="#F9FBFB"/>
<stop offset="0.0457175" stop-color="white"/>
<stop offset="0.946132" stop-color="white"/>
<stop offset="0.976303" stop-color="#FCFDFD"/>
<stop offset="1" stop-color="white"/>
</linearGradient>
<linearGradient id="paint11_linear_0_1428" x1="117" y1="408.674" x2="143.22" y2="408.674" gradientUnits="userSpaceOnUse">
<stop stop-color="white"/>
<stop offset="0.0202749" stop-color="#F9FBFB"/>
<stop offset="0.0457175" stop-color="white"/>
<stop offset="0.946132" stop-color="white"/>
<stop offset="0.976303" stop-color="#FCFDFD"/>
<stop offset="1" stop-color="white"/>
</linearGradient>
<linearGradient id="paint12_linear_0_1428" x1="181.034" y1="86.6963" x2="181.034" y2="98.6963" gradientUnits="userSpaceOnUse">
<stop stop-color="#00E2C8"/>
<stop offset="1" stop-color="#327FF6"/>
</linearGradient>
<linearGradient id="paint13_linear_0_1428" x1="191.594" y1="235.397" x2="185.595" y2="252.336" gradientUnits="userSpaceOnUse">
<stop stop-color="#C2F1A1"/>
<stop offset="1" stop-color="#8EE067"/>
</linearGradient>
<linearGradient id="paint14_linear_0_1428" x1="191.594" y1="262.397" x2="185.595" y2="279.336" gradientUnits="userSpaceOnUse">
<stop stop-color="#C2F1A1"/>
<stop offset="1" stop-color="#8EE067"/>
</linearGradient>
<linearGradient id="paint15_linear_0_1428" x1="191.594" y1="289.397" x2="185.595" y2="306.336" gradientUnits="userSpaceOnUse">
<stop stop-color="#C2F1A1"/>
<stop offset="1" stop-color="#8EE067"/>
</linearGradient>
<linearGradient id="paint16_linear_0_1428" x1="191.594" y1="316.397" x2="185.595" y2="333.336" gradientUnits="userSpaceOnUse">
<stop stop-color="#C2F1A1"/>
<stop offset="1" stop-color="#8EE067"/>
</linearGradient>
<linearGradient id="paint17_linear_0_1428" x1="191.594" y1="343.397" x2="185.595" y2="360.336" gradientUnits="userSpaceOnUse">
<stop stop-color="#C2F1A1"/>
<stop offset="1" stop-color="#8EE067"/>
</linearGradient>
<linearGradient id="paint18_linear_0_1428" x1="58" y1="123.172" x2="48.3438" y2="135.172" gradientUnits="userSpaceOnUse">
<stop stop-color="#FF7272"/>
<stop offset="1" stop-color="#FFBE3E"/>
</linearGradient>
<linearGradient id="paint19_linear_0_1428" x1="181" y1="128" x2="181" y2="140" gradientUnits="userSpaceOnUse">
<stop stop-color="#00E2C8"/>
<stop offset="1" stop-color="#327FF6"/>
</linearGradient>
<linearGradient id="paint20_linear_0_1428" x1="56.9196" y1="82.7388" x2="47.2634" y2="94.7388" gradientUnits="userSpaceOnUse">
<stop stop-color="#FF7272"/>
<stop offset="1" stop-color="#FFBE3E"/>
</linearGradient>
</defs>
</svg>
